<svg width="24" height="24" viewBox="0 0 24 24" fill="none" xmlns="http://www.w3.org/2000/svg">
<g clip-path="url(#clip0_1_1561)">
<path d="M9.75 23.25H8.25C7.42275 23.25 6.75 22.5773 6.75 21.75V18.75H3.75C2.92275 18.75 2.25 18.0773 2.25 17.25V9C2.25 8.17275 2.92275 7.5 3.75 7.5H5.25C6.07725 7.5 6.75 8.17275 6.75 9V14.25H11.25V21.75C11.25 22.5773 10.5773 23.25 9.75 23.25ZM3.75 9V17.25H6.75C7.57725 17.25 8.25 17.9227 8.25 18.75V21.75H9.75V15.75H5.25V9H3.75Z" fill="#61F0FE"></path>
<path d="M11.25 15.75H5.25V11.25H9.75C10.5773 11.25 11.25 11.9227 11.25 12.75V15.75ZM6.75 14.25H9.75V12.7493L6.75 12.75V14.25ZM15.75 23.25H14.25C13.4227 23.25 12.75 22.5773 12.75 21.75V14.25H17.25V9C17.25 8.17275 17.9227 7.5 18.75 7.5H20.25C21.0773 7.5 21.75 8.17275 21.75 9V17.25C21.75 18.0773 21.0773 18.75 20.25 18.75H17.25V21.75C17.25 22.5773 16.5773 23.25 15.75 23.25ZM14.25 15.75V21.75H15.75V18.75C15.75 17.9227 16.4227 17.25 17.25 17.25H20.25V9H18.75V15.75H14.25Z" fill="#61F0FE"></path>
<path d="M18.75 15.75H12.75V12.75C12.75 11.9227 13.4227 11.25 14.25 11.25H18.75V15.75ZM14.25 14.25H17.25V12.75H14.25V14.25ZM9 5.25C7.7595 5.25 6.75 4.2405 6.75 3C6.75 1.7595 7.7595 0.75 9 0.75C10.2405 0.75 11.25 1.7595 11.25 3C11.25 4.2405 10.2405 5.25 9 5.25ZM9 2.25C8.80689 2.25864 8.62455 2.34143 8.49096 2.48114C8.35736 2.62084 8.2828 2.8067 8.2828 3C8.2828 3.1933 8.35736 3.37916 8.49096 3.51886C8.62455 3.65857 8.80689 3.74136 9 3.75C9.19311 3.74136 9.37545 3.65857 9.50904 3.51886C9.64264 3.37916 9.7172 3.1933 9.7172 3C9.7172 2.8067 9.64264 2.62084 9.50904 2.48114C9.37545 2.34143 9.19311 2.25864 9 2.25ZM15 5.25C13.7595 5.25 12.75 4.2405 12.75 3C12.75 1.7595 13.7595 0.75 15 0.75C16.2405 0.75 17.25 1.7595 17.25 3C17.25 4.2405 16.2405 5.25 15 5.25ZM15 2.25C14.8011 2.25 14.6103 2.32902 14.4697 2.46967C14.329 2.61032 14.25 2.80109 14.25 3C14.25 3.19891 14.329 3.38968 14.4697 3.53033C14.6103 3.67098 14.8011 3.75 15 3.75C15.1989 3.75 15.3897 3.67098 15.5303 3.53033C15.671 3.38968 15.75 3.19891 15.75 3C15.75 2.80109 15.671 2.61032 15.5303 2.46967C15.3897 2.32902 15.1989 2.25 15 2.25Z" fill="#61F0FE"></path>
<path d="M9 7.5C8.80109 7.5 8.61032 7.42098 8.46967 7.28033C8.32902 7.13968 8.25 6.94891 8.25 6.75V5.25C8.25 5.05109 8.32902 4.86032 8.46967 4.71967C8.61032 4.57902 8.80109 4.5 9 4.5C9.19891 4.5 9.38968 4.57902 9.53033 4.71967C9.67098 4.86032 9.75 5.05109 9.75 5.25V6.75C9.75 6.94891 9.67098 7.13968 9.53033 7.28033C9.38968 7.42098 9.19891 7.5 9 7.5ZM15 7.5C14.8011 7.5 14.6103 7.42098 14.4697 7.28033C14.329 7.13968 14.25 6.94891 14.25 6.75V4.5C14.25 4.30109 14.329 4.11032 14.4697 3.96967C14.6103 3.82902 14.8011 3.75 15 3.75C15.1989 3.75 15.3897 3.82902 15.5303 3.96967C15.671 4.11032 15.75 4.30109 15.75 4.5V6.75C15.75 6.94891 15.671 7.13968 15.5303 7.28033C15.3897 7.42098 15.1989 7.5 15 7.5ZM12 9.75C11.8011 9.75 11.6103 9.67098 11.4697 9.53033C11.329 9.38968 11.25 9.19891 11.25 9V7.5C11.25 7.30109 11.329 7.11032 11.4697 6.96967C11.6103 6.82902 11.8011 6.75 12 6.75C12.1989 6.75 12.3897 6.82902 12.5303 6.96967C12.671 7.11032 12.75 7.30109 12.75 7.5V9C12.75 9.19891 12.671 9.38968 12.5303 9.53033C12.3897 9.67098 12.1989 9.75 12 9.75Z" fill="#61F0FE"></path>
<path d="M15 7.5H9C8.80109 7.5 8.61032 7.42098 8.46967 7.28033C8.32902 7.13968 8.25 6.94891 8.25 6.75C8.25 6.55109 8.32902 6.36032 8.46967 6.21967C8.61032 6.07902 8.80109 6 9 6H15C15.1989 6 15.3897 6.07902 15.5303 6.21967C15.671 6.36032 15.75 6.55109 15.75 6.75C15.75 6.94891 15.671 7.13968 15.5303 7.28033C15.3897 7.42098 15.1989 7.5 15 7.5Z" fill="#61F0FE"></path>
</g>
<defs>
<clipPath id="clip0_1_1561">
<rect width="24" height="24" fill="white"></rect>
</clipPath>
</defs>
</svg>