<svg width="24" height="24" viewBox="0 0 24 24" fill="none" xmlns="http://www.w3.org/2000/svg">
<path d="M21.5156 8.95312H20.0625V21.375H21.5156V8.95312Z" fill="#61F0FE"></path>
<path d="M17.1562 14.5312H15.6562V21.375H17.1562V14.5312Z" fill="#61F0FE"></path>
<path d="M12.75 12.4219H11.25V21.375H12.75V12.4219Z" fill="#61F0FE"></path>
<path d="M8.34375 16.0312H6.84375V21.375H8.34375V16.0312Z" fill="#61F0FE"></path>
<path d="M3.9375 14.2031H2.48438V21.375H3.9375V14.2031Z" fill="#61F0FE"></path>
<path d="M20.7256 2.62036C20.3974 2.62029 20.0746 2.70348 19.7873 2.86216C19.5 3.02083 19.2577 3.24979 19.083 3.52761C18.9083 3.80543 18.807 4.12303 18.7885 4.45069C18.7699 4.77835 18.8349 5.10534 18.9771 5.40108L16.894 6.54183C16.724 6.14746 16.428 5.82064 16.0523 5.6126C15.6766 5.40457 15.2425 5.32709 14.818 5.3923C14.3936 5.45751 14.0027 5.66172 13.7068 5.97294C13.4109 6.28415 13.2266 6.68476 13.1829 7.11197L10.736 7.31536C10.576 6.868 10.2573 6.49492 9.84051 6.2669C9.42369 6.03887 8.93767 5.97176 8.47465 6.07829C8.01163 6.18482 7.60381 6.45758 7.32854 6.84484C7.05328 7.23209 6.92972 7.70691 6.9813 8.17922L4.85585 9.32391C4.57244 8.92588 4.1489 8.64985 3.67032 8.55128C3.19175 8.45271 2.6936 8.53891 2.27597 8.79254C1.85834 9.04618 1.55217 9.44847 1.41897 9.91858C1.28577 10.3887 1.33541 10.8918 1.55793 11.3268C1.78044 11.7618 2.15934 12.0965 2.61849 12.2636C3.07764 12.4308 3.58302 12.4179 4.0331 12.2277C4.48318 12.0375 4.8446 11.684 5.04475 11.2383C5.2449 10.7925 5.26895 10.2876 5.11207 9.82481L7.12928 8.73839C7.3063 9.14804 7.61916 9.48413 8.0151 9.68999C8.41104 9.89585 8.86585 9.9589 9.30286 9.8685C9.73987 9.7781 10.1323 9.53979 10.4141 9.19374C10.6959 8.84768 10.8497 8.41506 10.8497 7.9688C10.8497 7.93599 10.8488 7.90317 10.8472 7.87036L13.2078 7.67414C13.3016 8.16621 13.5822 8.60292 13.9907 8.89283C14.3992 9.18274 14.904 9.30337 15.3994 9.22947C15.8949 9.15556 16.3425 8.89286 16.6487 8.49635C16.9548 8.09985 17.0956 7.60029 17.0418 7.10227L19.2944 5.8688C19.5121 6.10691 19.7858 6.28695 20.0907 6.39261C20.3955 6.49826 20.722 6.5262 21.0403 6.47388C21.3587 6.42157 21.659 6.29066 21.914 6.093C22.169 5.89535 22.3707 5.6372 22.5008 5.34194C22.6309 5.04668 22.6853 4.72363 22.659 4.40205C22.6327 4.08047 22.5267 3.77053 22.3504 3.50029C22.1741 3.23005 21.9332 3.00805 21.6495 2.85441C21.3658 2.70076 21.0482 2.62032 20.7256 2.62036Z" fill="#61F0FE"></path>
</svg>