<svg width="351" height="261" viewBox="0 0 351 261" fill="none" xmlns="http://www.w3.org/2000/svg">
<path d="M248.453 99.8205C252.975 98.5904 257.676 101.256 258.504 105.868C261.076 120.205 260.36 134.943 256.411 148.964C255.141 153.474 250.203 155.671 245.822 154.009L229.285 147.733C224.904 146.071 222.763 141.177 223.808 136.609C225.429 129.527 225.784 122.211 224.857 115.005C224.26 110.358 226.865 105.694 231.386 104.464L248.453 99.8205Z" fill="#186E76"></path>
<path d="M246.12 92.5182C250.516 90.8983 252.801 86.0005 250.801 81.7635C243.8 66.9353 233.103 54.0956 219.681 44.5141C203.949 33.2845 185.202 27.0504 165.878 26.6233C146.555 26.1961 127.55 31.5956 111.338 42.1191C95.1258 52.6425 82.4568 67.8025 74.9799 85.626C67.503 103.449 65.5645 123.111 69.4166 142.051C73.2688 160.992 82.7333 178.334 96.5782 191.821C110.423 205.308 128.007 214.315 147.042 217.67C163.283 220.532 179.939 219.166 195.424 213.771C199.848 212.229 201.742 207.167 199.817 202.896L192.55 186.77C190.624 182.498 185.609 180.658 181.114 181.978C172.043 184.642 162.442 185.194 153.057 183.54C140.875 181.393 129.621 175.628 120.76 166.997C111.9 158.365 105.842 147.266 103.377 135.144C100.912 123.022 102.152 110.439 106.937 99.0321C111.723 87.6251 119.831 77.9227 130.207 71.1877C140.582 64.4527 152.745 60.997 165.112 61.2704C177.479 61.5438 189.478 65.5336 199.546 72.7205C207.302 78.2571 213.636 85.4935 218.091 93.8317C220.299 97.9644 225.126 100.253 229.523 98.633L246.12 92.5182Z" fill="#62F0FE"></path>
<path d="M243.456 159.644C247.71 161.607 249.6 166.671 247.27 170.736C240.026 183.374 230.007 194.205 217.97 202.409C214.099 205.048 208.904 203.558 206.616 199.469L197.978 184.034C195.69 179.945 197.195 174.819 200.931 171.992C206.725 167.607 211.698 162.23 215.619 156.113C218.148 152.169 223.141 150.27 227.396 152.233L243.456 159.644Z" fill="#0A99A6"></path>
<path d="M119.452 50.1549L109.138 25.0664" stroke="white" stroke-width="1.0811" stroke-linecap="round"></path>
<path d="M67.0449 25.0664L72.4504 21.9455V28.1873L67.0449 25.0664ZM109.138 24.5259C109.436 24.5259 109.678 24.7679 109.678 25.0664C109.678 25.3649 109.436 25.607 109.138 25.607V24.5259ZM71.9099 24.5259L109.138 24.5259V25.607L71.9099 25.607V24.5259Z" fill="white"></path>
<path d="M0.654474 28V20.7273H1.75178V27.0554H5.04723V28H0.654474ZM6.21378 28V22.5455H7.27557V28H6.21378ZM6.75 21.7038C6.56534 21.7038 6.40672 21.6423 6.27415 21.5192C6.14394 21.3937 6.07884 21.2446 6.07884 21.0717C6.07884 20.8965 6.14394 20.7474 6.27415 20.6243C6.40672 20.4988 6.56534 20.4361 6.75 20.4361C6.93466 20.4361 7.09209 20.4988 7.2223 20.6243C7.35488 20.7474 7.42116 20.8965 7.42116 21.0717C7.42116 21.2446 7.35488 21.3937 7.2223 21.5192C7.09209 21.6423 6.93466 21.7038 6.75 21.7038ZM12.3865 30.0455V27.1513H12.3226C12.2587 27.2673 12.1664 27.3999 12.0456 27.549C11.9273 27.6982 11.7639 27.8284 11.5556 27.9396C11.3472 28.0509 11.0774 28.1065 10.7459 28.1065C10.3056 28.1065 9.91258 27.9941 9.56694 27.7692C9.22366 27.5419 8.95378 27.2187 8.75728 26.7997C8.56315 26.3783 8.46609 25.8729 8.46609 25.2834C8.46609 24.6939 8.56433 24.1896 8.76083 23.7706C8.95969 23.3516 9.23195 23.0308 9.57759 22.8082C9.92324 22.5857 10.315 22.4744 10.753 22.4744C11.0916 22.4744 11.3638 22.5312 11.5698 22.6449C11.7781 22.7562 11.9391 22.8864 12.0527 23.0355C12.1687 23.1847 12.2587 23.3161 12.3226 23.4297H12.4114V22.5455H13.4483V30.0455H12.3865ZM10.9803 27.201C11.2857 27.201 11.5437 27.1205 11.7544 26.9595C11.9675 26.7962 12.1285 26.5701 12.2374 26.2812C12.3487 25.9924 12.4043 25.6562 12.4043 25.2727C12.4043 24.8939 12.3498 24.5625 12.2409 24.2784C12.132 23.9943 11.9722 23.773 11.7615 23.6143C11.5508 23.4557 11.2904 23.3764 10.9803 23.3764C10.6607 23.3764 10.3944 23.4593 10.1813 23.625C9.96822 23.7907 9.80723 24.0168 9.69833 24.3033C9.5918 24.5897 9.53853 24.9129 9.53853 25.2727C9.53853 25.6373 9.59298 25.9652 9.70188 26.2564C9.81078 26.5476 9.97177 26.7784 10.1848 26.9489C10.4003 27.117 10.6654 27.201 10.9803 27.201ZM18.3311 25.7379V22.5455H19.3965V28H18.3525V27.0554H18.2956C18.1702 27.3466 17.9689 27.5893 17.6919 27.7834C17.4173 27.9751 17.0752 28.071 16.6657 28.071C16.3153 28.071 16.0051 27.9941 15.7353 27.8402C15.4677 27.6839 15.257 27.4531 15.1032 27.1477C14.9516 26.8423 14.8759 26.4647 14.8759 26.0149V22.5455H15.9377V25.8871C15.9377 26.2588 16.0407 26.5547 16.2466 26.7749C16.4526 26.995 16.7201 27.1051 17.0492 27.1051C17.248 27.1051 17.4457 27.0554 17.6422 26.956C17.8411 26.8565 18.0056 26.7062 18.1358 26.505C18.2684 26.3037 18.3335 26.0481 18.3311 25.7379ZM20.8232 28V22.5455H21.8849V28H20.8232ZM21.3594 21.7038C21.1747 21.7038 21.0161 21.6423 20.8835 21.5192C20.7533 21.3937 20.6882 21.2446 20.6882 21.0717C20.6882 20.8965 20.7533 20.7474 20.8835 20.6243C21.0161 20.4988 21.1747 20.4361 21.3594 20.4361C21.544 20.4361 21.7015 20.4988 21.8317 20.6243C21.9643 20.7474 22.0305 20.8965 22.0305 21.0717C22.0305 21.2446 21.9643 21.3937 21.8317 21.5192C21.7015 21.6423 21.544 21.7038 21.3594 21.7038ZM25.3553 28.1065C24.915 28.1065 24.522 27.9941 24.1763 27.7692C23.833 27.5419 23.5632 27.2187 23.3667 26.7997C23.1725 26.3783 23.0755 25.8729 23.0755 25.2834C23.0755 24.6939 23.1737 24.1896 23.3702 23.7706C23.5691 23.3516 23.8413 23.0308 24.187 22.8082C24.5326 22.5857 24.9244 22.4744 25.3624 22.4744C25.7009 22.4744 25.9732 22.5312 26.1792 22.6449C26.3875 22.7562 26.5485 22.8864 26.6621 23.0355C26.7781 23.1847 26.8681 23.3161 26.932 23.4297H26.9959V20.7273H28.0577V28H27.0208V27.1513H26.932C26.8681 27.2673 26.7757 27.3999 26.655 27.549C26.5366 27.6982 26.3733 27.8284 26.165 27.9396C25.9566 28.0509 25.6867 28.1065 25.3553 28.1065ZM25.5897 27.201C25.8951 27.201 26.1531 27.1205 26.3638 26.9595C26.5769 26.7962 26.7379 26.5701 26.8468 26.2812C26.958 25.9924 27.0137 25.6562 27.0137 25.2727C27.0137 24.8939 26.9592 24.5625 26.8503 24.2784C26.7414 23.9943 26.5816 23.773 26.3709 23.6143C26.1602 23.4557 25.8998 23.3764 25.5897 23.3764C25.2701 23.3764 25.0037 23.4593 24.7907 23.625C24.5776 23.7907 24.4166 24.0168 24.3077 24.3033C24.2012 24.5897 24.1479 24.9129 24.1479 25.2727C24.1479 25.6373 24.2024 25.9652 24.3113 26.2564C24.4202 26.5476 24.5811 26.7784 24.7942 26.9489C25.0096 27.117 25.2748 27.201 25.5897 27.201ZM29.5732 28V22.5455H30.6349V28H29.5732ZM30.1094 21.7038C29.9247 21.7038 29.7661 21.6423 29.6335 21.5192C29.5033 21.3937 29.4382 21.2446 29.4382 21.0717C29.4382 20.8965 29.5033 20.7474 29.6335 20.6243C29.7661 20.4988 29.9247 20.4361 30.1094 20.4361C30.294 20.4361 30.4515 20.4988 30.5817 20.6243C30.7143 20.7474 30.7805 20.8965 30.7805 21.0717C30.7805 21.2446 30.7143 21.3937 30.5817 21.5192C30.4515 21.6423 30.294 21.7038 30.1094 21.7038ZM34.6096 22.5455V23.3977H31.6301V22.5455H34.6096ZM32.4292 21.2386H33.4909V26.3984C33.4909 26.6044 33.5217 26.7595 33.5833 26.8636C33.6448 26.9654 33.7241 27.0353 33.8212 27.0732C33.9206 27.1087 34.0283 27.1264 34.1444 27.1264C34.2296 27.1264 34.3042 27.1205 34.3681 27.1087C34.432 27.0968 34.4817 27.0874 34.5172 27.0803L34.709 27.9574C34.6474 27.9811 34.5598 28.0047 34.4462 28.0284C34.3326 28.0545 34.1905 28.0687 34.0201 28.071C33.7407 28.0758 33.4803 28.026 33.2388 27.9219C32.9973 27.8177 32.802 27.6567 32.6529 27.4389C32.5037 27.2211 32.4292 26.9477 32.4292 26.6186V21.2386ZM36.4553 30.0455C36.2966 30.0455 36.1522 30.0324 36.022 30.0064C35.8918 29.9827 35.7947 29.9567 35.7308 29.9283L35.9865 29.0582C36.1806 29.1103 36.3535 29.1328 36.505 29.1257C36.6565 29.1186 36.7902 29.0618 36.9062 28.9553C37.0246 28.8487 37.1288 28.6747 37.2188 28.4332L37.3501 28.071L35.3544 22.5455H36.4908L37.8722 26.7784H37.929L39.3104 22.5455H40.4503L38.2024 28.728C38.0982 29.0121 37.9657 29.2524 37.8047 29.4489C37.6437 29.6477 37.4519 29.7969 37.2294 29.8963C37.0069 29.9957 36.7488 30.0455 36.4553 30.0455ZM44.1799 28V20.7273H46.7722C47.338 20.7273 47.8068 20.8303 48.1784 21.0362C48.5501 21.2422 48.8283 21.5239 49.013 21.8814C49.1976 22.2365 49.29 22.6366 49.29 23.0817C49.29 23.5291 49.1964 23.9316 49.0094 24.2891C48.8248 24.6442 48.5454 24.9259 48.1713 25.1342C47.7997 25.3402 47.3321 25.4432 46.7686 25.4432H44.986V24.5128H46.6692C47.0267 24.5128 47.3167 24.4512 47.5392 24.3281C47.7618 24.2027 47.9251 24.0322 48.0293 23.8168C48.1335 23.6013 48.1855 23.3563 48.1855 23.0817C48.1855 22.8071 48.1335 22.5632 48.0293 22.3501C47.9251 22.1371 47.7606 21.9702 47.5357 21.8494C47.3132 21.7287 47.0196 21.6683 46.655 21.6683H45.2772V28H44.1799ZM52.7203 28.1101C52.209 28.1101 51.7627 27.9929 51.3816 27.7585C51.0004 27.5241 50.7045 27.1963 50.4938 26.7749C50.2831 26.3535 50.1777 25.861 50.1777 25.2976C50.1777 24.7318 50.2831 24.237 50.4938 23.8132C50.7045 23.3894 51.0004 23.0604 51.3816 22.826C51.7627 22.5916 52.209 22.4744 52.7203 22.4744C53.2317 22.4744 53.678 22.5916 54.0591 22.826C54.4403 23.0604 54.7362 23.3894 54.9469 23.8132C55.1576 24.237 55.263 24.7318 55.263 25.2976C55.263 25.861 55.1576 26.3535 54.9469 26.7749C54.7362 27.1963 54.4403 27.5241 54.0591 27.7585C53.678 27.9929 53.2317 28.1101 52.7203 28.1101ZM52.7239 27.2188C53.0553 27.2188 53.33 27.1312 53.5478 26.956C53.7656 26.7808 53.9266 26.5476 54.0307 26.2564C54.1373 25.9652 54.1905 25.6444 54.1905 25.294C54.1905 24.946 54.1373 24.6264 54.0307 24.3352C53.9266 24.0417 53.7656 23.8061 53.5478 23.6286C53.33 23.451 53.0553 23.3622 52.7239 23.3622C52.3901 23.3622 52.1131 23.451 51.8929 23.6286C51.6751 23.8061 51.513 24.0417 51.4064 24.3352C51.3023 24.6264 51.2502 24.946 51.2502 25.294C51.2502 25.6444 51.3023 25.9652 51.4064 26.2564C51.513 26.5476 51.6751 26.7808 51.8929 26.956C52.1131 27.1312 52.3901 27.2188 52.7239 27.2188ZM58.7457 28.1101C58.2344 28.1101 57.7881 27.9929 57.407 27.7585C57.0258 27.5241 56.7299 27.1963 56.5192 26.7749C56.3085 26.3535 56.2031 25.861 56.2031 25.2976C56.2031 24.7318 56.3085 24.237 56.5192 23.8132C56.7299 23.3894 57.0258 23.0604 57.407 22.826C57.7881 22.5916 58.2344 22.4744 58.7457 22.4744C59.2571 22.4744 59.7034 22.5916 60.0845 22.826C60.4657 23.0604 60.7616 23.3894 60.9723 23.8132C61.183 24.237 61.2884 24.7318 61.2884 25.2976C61.2884 25.861 61.183 26.3535 60.9723 26.7749C60.7616 27.1963 60.4657 27.5241 60.0845 27.7585C59.7034 27.9929 59.2571 28.1101 58.7457 28.1101ZM58.7493 27.2188C59.0807 27.2188 59.3554 27.1312 59.5732 26.956C59.791 26.7808 59.9519 26.5476 60.0561 26.2564C60.1626 25.9652 60.2159 25.6444 60.2159 25.294C60.2159 24.946 60.1626 24.6264 60.0561 24.3352C59.9519 24.0417 59.791 23.8061 59.5732 23.6286C59.3554 23.451 59.0807 23.3622 58.7493 23.3622C58.4155 23.3622 58.1385 23.451 57.9183 23.6286C57.7005 23.8061 57.5384 24.0417 57.4318 24.3352C57.3277 24.6264 57.2756 24.946 57.2756 25.294C57.2756 25.6444 57.3277 25.9652 57.4318 26.2564C57.5384 26.5476 57.7005 26.7808 57.9183 26.956C58.1385 27.1312 58.4155 27.2188 58.7493 27.2188ZM63.5353 20.7273V28H62.4735V20.7273H63.5353ZM36.6204 39.3636C36.6204 38.4735 36.7376 37.6544 36.9719 36.9062C37.2063 36.1581 37.5484 35.468 37.9982 34.8359H38.9712C38.796 35.0703 38.6327 35.358 38.4812 35.6989C38.3297 36.0398 38.1971 36.4138 38.0835 36.821C37.9698 37.2259 37.881 37.6461 37.8171 38.0817C37.7532 38.5149 37.7212 38.9422 37.7212 39.3636C37.7212 39.9271 37.7769 40.4976 37.8881 41.0753C37.9994 41.6529 38.1497 42.1892 38.3391 42.6839C38.5285 43.1787 38.7392 43.5824 38.9712 43.8949H37.9982C37.5484 43.2628 37.2063 42.5727 36.9719 41.8246C36.7376 41.0765 36.6204 40.2562 36.6204 39.3636ZM42.4949 35.6278C42.8192 35.6302 43.1388 35.6894 43.4537 35.8054C43.7685 35.9214 44.0526 36.1108 44.3059 36.3736C44.5616 36.6364 44.7652 36.9915 44.9167 37.4389C45.0706 37.884 45.1487 38.438 45.1511 39.1009C45.1511 39.7377 45.0872 40.3047 44.9593 40.8018C44.8315 41.2966 44.648 41.7145 44.4089 42.0554C44.1722 42.3963 43.8845 42.6555 43.546 42.8331C43.2074 43.0107 42.8263 43.0994 42.4025 43.0994C41.9693 43.0994 41.5846 43.0142 41.2484 42.8438C40.9122 42.6733 40.6388 42.4377 40.4281 42.1371C40.2174 41.834 40.086 41.486 40.0339 41.093H41.117C41.188 41.4055 41.3324 41.6589 41.5502 41.853C41.7704 42.0447 42.0545 42.1406 42.4025 42.1406C42.9352 42.1406 43.3507 41.9086 43.649 41.4446C43.9473 40.9782 44.0976 40.3272 44.1 39.4915H44.0431C43.92 39.6951 43.7662 39.8703 43.5815 40.017C43.3992 40.1638 43.1944 40.2775 42.9672 40.358C42.7399 40.4384 42.4972 40.4787 42.2392 40.4787C41.8201 40.4787 41.439 40.3757 41.0957 40.1697C40.7524 39.9638 40.479 39.6809 40.2754 39.321C40.0718 38.9612 39.97 38.5504 39.97 38.0888C39.97 37.6295 40.0742 37.2128 40.2825 36.8388C40.4932 36.4647 40.7868 36.1688 41.1632 35.951C41.542 35.7308 41.9859 35.6231 42.4949 35.6278ZM42.4984 36.5511C42.2214 36.5511 41.9717 36.6198 41.7491 36.7571C41.5289 36.892 41.3549 37.0755 41.2271 37.3075C41.0993 37.5372 41.0353 37.7929 41.0353 38.0746C41.0353 38.3563 41.0969 38.612 41.22 38.8416C41.3455 39.0689 41.5159 39.25 41.7314 39.3849C41.9492 39.5175 42.1977 39.5838 42.4771 39.5838C42.6854 39.5838 42.8796 39.5436 43.0595 39.4631C43.2394 39.3826 43.3968 39.2713 43.5318 39.1293C43.6667 38.9848 43.7721 38.8215 43.8478 38.6392C43.9236 38.4569 43.9615 38.2652 43.9615 38.0639C43.9615 37.7964 43.8975 37.5478 43.7697 37.3182C43.6442 37.0885 43.4714 36.9039 43.2512 36.7642C43.0311 36.6222 42.7801 36.5511 42.4984 36.5511ZM48.9659 43.1207C48.4048 43.1184 47.9254 42.9704 47.5277 42.6768C47.13 42.3833 46.8258 41.956 46.6151 41.3949C46.4044 40.8338 46.299 40.1579 46.299 39.3672C46.299 38.5788 46.4044 37.9053 46.6151 37.3466C46.8281 36.7879 47.1335 36.3617 47.5312 36.0682C47.9313 35.7746 48.4096 35.6278 48.9659 35.6278C49.5223 35.6278 49.9993 35.7758 50.397 36.0717C50.7947 36.3653 51.099 36.7914 51.3097 37.3501C51.5227 37.9065 51.6293 38.5788 51.6293 39.3672C51.6293 40.1603 51.5239 40.8374 51.3132 41.3984C51.1025 41.9571 50.7983 42.3845 50.4006 42.6804C50.0028 42.974 49.5246 43.1207 48.9659 43.1207ZM48.9659 42.1726C49.4583 42.1726 49.843 41.9323 50.12 41.4517C50.3994 40.9711 50.5391 40.2763 50.5391 39.3672C50.5391 38.7635 50.4751 38.2533 50.3473 37.8366C50.2218 37.4176 50.0407 37.1004 49.804 36.8849C49.5696 36.6671 49.2902 36.5582 48.9659 36.5582C48.4759 36.5582 48.0911 36.7997 47.8118 37.2827C47.5324 37.7656 47.3916 38.4605 47.3892 39.3672C47.3892 39.9732 47.4519 40.4858 47.5774 40.9048C47.7053 41.3215 47.8864 41.6375 48.1207 41.853C48.3551 42.0661 48.6368 42.1726 48.9659 42.1726ZM56.6852 41.6364V41.2528C56.6852 40.9782 56.742 40.7273 56.8556 40.5C56.9717 40.2704 57.1397 40.0869 57.3599 39.9496C57.5824 39.8099 57.8511 39.7401 58.166 39.7401C58.488 39.7401 58.7579 39.8087 58.9757 39.946C59.1935 40.0833 59.358 40.2668 59.4693 40.4964C59.5829 40.7261 59.6397 40.9782 59.6397 41.2528V41.6364C59.6397 41.911 59.5829 42.1631 59.4693 42.3928C59.3556 42.62 59.1887 42.8035 58.9686 42.9432C58.7508 43.0805 58.4833 43.1491 58.166 43.1491C57.8464 43.1491 57.5765 43.0805 57.3564 42.9432C57.1362 42.8035 56.9693 42.62 56.8556 42.3928C56.742 42.1631 56.6852 41.911 56.6852 41.6364ZM57.5126 41.2528V41.6364C57.5126 41.84 57.5611 42.0246 57.6582 42.1903C57.7553 42.3561 57.9245 42.4389 58.166 42.4389C58.4051 42.4389 58.572 42.3561 58.6667 42.1903C58.7614 42.0246 58.8088 41.84 58.8088 41.6364V41.2528C58.8088 41.0492 58.7626 40.8646 58.6703 40.6989C58.5803 40.5331 58.4122 40.4503 58.166 40.4503C57.9293 40.4503 57.7612 40.5331 57.6618 40.6989C57.5623 40.8646 57.5126 41.0492 57.5126 41.2528ZM53.0275 37.4744V37.0909C53.0275 36.8163 53.0843 36.5642 53.198 36.3345C53.314 36.1049 53.4821 35.9214 53.7022 35.7841C53.9248 35.6468 54.1935 35.5781 54.5083 35.5781C54.8303 35.5781 55.1002 35.6468 55.318 35.7841C55.5358 35.9214 55.7003 36.1049 55.8116 36.3345C55.9229 36.5642 55.9785 36.8163 55.9785 37.0909V37.4744C55.9785 37.7491 55.9217 38.0012 55.8081 38.2308C55.6968 38.4581 55.5311 38.6416 55.3109 38.7812C55.0931 38.9186 54.8256 38.9872 54.5083 38.9872C54.1864 38.9872 53.9153 38.9186 53.6951 38.7812C53.4773 38.6416 53.3116 38.4581 53.198 38.2308C53.0843 38.0012 53.0275 37.7491 53.0275 37.4744ZM53.8585 37.0909V37.4744C53.8585 37.678 53.9058 37.8627 54.0005 38.0284C54.0976 38.1941 54.2669 38.277 54.5083 38.277C54.7451 38.277 54.9108 38.1941 55.0055 38.0284C55.1026 37.8627 55.1511 37.678 55.1511 37.4744V37.0909C55.1511 36.8873 55.1049 36.7027 55.0126 36.5369C54.9203 36.3712 54.7522 36.2884 54.5083 36.2884C54.2716 36.2884 54.1035 36.3712 54.0041 36.5369C53.907 36.7027 53.8585 36.8873 53.8585 37.0909ZM53.3649 43L58.3649 35.7273H59.2136L54.2136 43H53.3649ZM63.2264 39.3636C63.2264 40.2562 63.1092 41.0765 62.8748 41.8246C62.6404 42.5727 62.2984 43.2628 61.8485 43.8949H60.8755C61.0507 43.6605 61.2141 43.3729 61.3656 43.032C61.5171 42.6911 61.6497 42.3182 61.7633 41.9134C61.877 41.5062 61.9657 41.0848 62.0297 40.6491C62.0936 40.2135 62.1255 39.785 62.1255 39.3636C62.1255 38.8026 62.0699 38.2332 61.9586 37.6555C61.8474 37.0779 61.697 36.5417 61.5076 36.0469C61.3182 35.5521 61.1075 35.1484 60.8755 34.8359H61.8485C62.2984 35.468 62.6404 36.1581 62.8748 36.9062C63.1092 37.6544 63.2264 38.4735 63.2264 39.3636Z" fill="white"></path>
<path d="M231.107 187.181L233.444 204.465" stroke="white" stroke-width="1.0811" stroke-linecap="round"></path>
<path d="M263.443 204.465L258.038 201.344V207.585L263.443 204.465ZM233.337 203.924C233.039 203.924 232.797 204.166 232.797 204.465C232.797 204.763 233.039 205.005 233.337 205.005V203.924ZM258.578 203.924H233.337V205.005H258.578V203.924Z" fill="white"></path>
<path d="M268.623 201.07V200.125H274.252V201.07H271.982V207.398H270.889V201.07H268.623ZM276.97 207.508C276.432 207.508 275.97 207.393 275.581 207.164C275.196 206.932 274.897 206.606 274.687 206.187C274.478 205.766 274.374 205.272 274.374 204.706C274.374 204.148 274.478 203.655 274.687 203.229C274.897 202.803 275.191 202.47 275.567 202.231C275.946 201.992 276.389 201.873 276.895 201.873C277.203 201.873 277.501 201.924 277.79 202.025C278.079 202.127 278.338 202.287 278.568 202.505C278.798 202.723 278.979 203.005 279.111 203.353C279.244 203.699 279.31 204.119 279.31 204.614V204.991H274.974V204.195H278.27C278.27 203.916 278.213 203.668 278.099 203.453C277.986 203.235 277.826 203.063 277.62 202.938C277.416 202.812 277.177 202.75 276.902 202.75C276.604 202.75 276.344 202.823 276.121 202.97C275.901 203.114 275.731 203.304 275.61 203.538C275.491 203.77 275.432 204.022 275.432 204.295V204.916C275.432 205.281 275.496 205.591 275.624 205.846C275.754 206.102 275.935 206.297 276.167 206.432C276.399 206.565 276.67 206.631 276.981 206.631C277.182 206.631 277.365 206.603 277.531 206.546C277.697 206.487 277.84 206.399 277.961 206.283C278.081 206.167 278.174 206.024 278.238 205.853L279.243 206.035C279.162 206.33 279.018 206.59 278.809 206.812C278.603 207.032 278.344 207.204 278.032 207.327C277.722 207.448 277.368 207.508 276.97 207.508ZM282.076 207.519C281.73 207.519 281.417 207.455 281.138 207.327C280.859 207.197 280.637 207.009 280.474 206.763C280.313 206.516 280.233 206.214 280.233 205.857C280.233 205.549 280.292 205.296 280.41 205.097C280.528 204.898 280.688 204.741 280.889 204.625C281.091 204.509 281.316 204.421 281.564 204.362C281.813 204.303 282.066 204.258 282.324 204.227C282.651 204.189 282.916 204.158 283.12 204.135C283.323 204.109 283.471 204.067 283.563 204.01C283.656 203.954 283.702 203.861 283.702 203.733V203.709C283.702 203.398 283.614 203.158 283.439 202.988C283.266 202.817 283.008 202.732 282.665 202.732C282.308 202.732 282.026 202.811 281.82 202.97C281.616 203.126 281.475 203.3 281.397 203.492L280.399 203.265C280.518 202.933 280.691 202.666 280.918 202.462C281.148 202.256 281.411 202.107 281.71 202.015C282.008 201.92 282.322 201.873 282.651 201.873C282.869 201.873 283.099 201.899 283.343 201.951C283.59 202 283.819 202.093 284.032 202.228C284.248 202.363 284.424 202.556 284.561 202.807C284.699 203.055 284.767 203.378 284.767 203.776V207.398H283.73V206.652H283.688C283.619 206.79 283.516 206.925 283.379 207.057C283.242 207.19 283.065 207.3 282.85 207.388C282.634 207.475 282.376 207.519 282.076 207.519ZM282.306 206.667C282.6 206.667 282.851 206.609 283.059 206.493C283.27 206.377 283.43 206.225 283.539 206.038C283.65 205.849 283.706 205.646 283.706 205.431V204.728C283.668 204.766 283.594 204.801 283.485 204.834C283.379 204.865 283.257 204.892 283.12 204.916C282.982 204.937 282.849 204.957 282.718 204.976C282.588 204.993 282.479 205.007 282.392 205.019C282.186 205.045 281.997 205.089 281.827 205.15C281.659 205.212 281.524 205.301 281.422 205.417C281.323 205.53 281.273 205.682 281.273 205.871C281.273 206.134 281.37 206.333 281.564 206.468C281.758 206.6 282.006 206.667 282.306 206.667ZM286.182 207.398V201.944H287.201V202.831H287.268C287.382 202.531 287.568 202.296 287.826 202.128C288.084 201.958 288.393 201.873 288.753 201.873C289.117 201.873 289.423 201.958 289.669 202.128C289.917 202.299 290.101 202.533 290.219 202.831H290.276C290.406 202.54 290.613 202.308 290.897 202.135C291.182 201.96 291.52 201.873 291.913 201.873C292.408 201.873 292.812 202.028 293.124 202.338C293.439 202.648 293.596 203.116 293.596 203.741V207.398H292.535V203.84C292.535 203.471 292.434 203.203 292.233 203.037C292.031 202.872 291.791 202.789 291.512 202.789C291.166 202.789 290.897 202.895 290.706 203.108C290.514 203.319 290.418 203.59 290.418 203.922V207.398H289.36V203.772C289.36 203.477 289.267 203.239 289.083 203.059C288.898 202.879 288.658 202.789 288.362 202.789C288.161 202.789 287.975 202.842 287.804 202.949C287.636 203.053 287.5 203.198 287.396 203.385C287.294 203.572 287.243 203.789 287.243 204.035V207.398H286.182ZM297.975 203.762C297.975 202.872 298.092 202.053 298.326 201.304C298.561 200.556 298.903 199.866 299.353 199.234H300.326C300.151 199.469 299.987 199.756 299.836 200.097C299.684 200.438 299.552 200.812 299.438 201.219C299.324 201.624 299.236 202.044 299.172 202.48C299.108 202.913 299.076 203.34 299.076 203.762C299.076 204.325 299.131 204.896 299.243 205.473C299.354 206.051 299.504 206.587 299.694 207.082C299.883 207.577 300.094 207.981 300.326 208.293H299.353C298.903 207.661 298.561 206.971 298.326 206.223C298.092 205.475 297.975 204.654 297.975 203.762ZM303.963 207.498C303.475 207.498 303.04 207.414 302.656 207.245C302.275 207.077 301.973 206.844 301.751 206.546C301.53 206.245 301.412 205.897 301.396 205.502H302.511C302.525 205.717 302.597 205.904 302.727 206.063C302.86 206.219 303.033 206.34 303.246 206.425C303.459 206.51 303.695 206.553 303.956 206.553C304.242 206.553 304.496 206.503 304.716 206.404C304.938 206.304 305.112 206.166 305.238 205.988C305.363 205.808 305.426 205.601 305.426 205.367C305.426 205.123 305.363 204.909 305.238 204.724C305.115 204.537 304.934 204.39 304.695 204.284C304.458 204.177 304.171 204.124 303.835 204.124H303.221V203.229H303.835C304.105 203.229 304.342 203.181 304.545 203.084C304.751 202.986 304.912 202.852 305.028 202.679C305.144 202.504 305.202 202.299 305.202 202.064C305.202 201.839 305.151 201.644 305.05 201.478C304.95 201.31 304.808 201.179 304.623 201.084C304.441 200.99 304.226 200.942 303.977 200.942C303.74 200.942 303.519 200.986 303.313 201.074C303.11 201.159 302.944 201.282 302.816 201.443C302.688 201.602 302.619 201.792 302.61 202.015H301.548C301.56 201.622 301.676 201.276 301.896 200.978C302.119 200.679 302.412 200.446 302.777 200.278C303.141 200.11 303.546 200.026 303.991 200.026C304.458 200.026 304.86 200.117 305.199 200.299C305.54 200.479 305.802 200.72 305.987 201.02C306.174 201.321 306.266 201.65 306.264 202.008C306.266 202.415 306.153 202.76 305.923 203.044C305.696 203.329 305.393 203.519 305.014 203.616V203.673C305.497 203.746 305.871 203.938 306.136 204.248C306.404 204.558 306.536 204.943 306.534 205.402C306.536 205.803 306.425 206.161 306.2 206.478C305.978 206.796 305.673 207.045 305.288 207.228C304.902 207.408 304.46 207.498 303.963 207.498ZM310.277 207.498C309.832 207.498 309.432 207.412 309.077 207.242C308.724 207.069 308.442 206.832 308.231 206.532C308.021 206.231 307.908 205.888 307.894 205.502H308.959C308.985 205.814 309.124 206.071 309.375 206.272C309.626 206.474 309.927 206.574 310.277 206.574C310.556 206.574 310.804 206.51 311.019 206.383C311.237 206.252 311.407 206.074 311.53 205.846C311.656 205.619 311.719 205.36 311.719 205.069C311.719 204.773 311.655 204.509 311.527 204.277C311.399 204.045 311.223 203.862 310.998 203.73C310.775 203.597 310.52 203.53 310.231 203.527C310.011 203.527 309.789 203.565 309.567 203.641C309.344 203.717 309.164 203.816 309.027 203.939L308.022 203.79L308.43 200.125H312.429V201.067H309.343L309.112 203.101H309.155C309.297 202.964 309.485 202.849 309.719 202.757C309.956 202.665 310.209 202.618 310.479 202.618C310.922 202.618 311.316 202.724 311.662 202.934C312.01 203.145 312.283 203.433 312.482 203.797C312.683 204.16 312.783 204.576 312.78 205.047C312.783 205.518 312.676 205.939 312.461 206.308C312.248 206.677 311.952 206.969 311.573 207.182C311.197 207.392 310.765 207.498 310.277 207.498ZM317.874 206.035V205.651C317.874 205.376 317.93 205.125 318.044 204.898C318.16 204.669 318.328 204.485 318.548 204.348C318.771 204.208 319.04 204.138 319.354 204.138C319.676 204.138 319.946 204.207 320.164 204.344C320.382 204.482 320.546 204.665 320.658 204.895C320.771 205.124 320.828 205.376 320.828 205.651V206.035C320.828 206.309 320.771 206.561 320.658 206.791C320.544 207.018 320.377 207.202 320.157 207.341C319.939 207.479 319.672 207.547 319.354 207.547C319.035 207.547 318.765 207.479 318.545 207.341C318.325 207.202 318.158 207.018 318.044 206.791C317.93 206.561 317.874 206.309 317.874 206.035ZM318.701 205.651V206.035C318.701 206.238 318.75 206.423 318.847 206.589C318.944 206.754 319.113 206.837 319.354 206.837C319.594 206.837 319.761 206.754 319.855 206.589C319.95 206.423 319.997 206.238 319.997 206.035V205.651C319.997 205.447 319.951 205.263 319.859 205.097C319.769 204.931 319.601 204.848 319.354 204.848C319.118 204.848 318.95 204.931 318.85 205.097C318.751 205.263 318.701 205.447 318.701 205.651ZM314.216 201.873V201.489C314.216 201.214 314.273 200.962 314.386 200.733C314.502 200.503 314.671 200.32 314.891 200.182C315.113 200.045 315.382 199.976 315.697 199.976C316.019 199.976 316.289 200.045 316.506 200.182C316.724 200.32 316.889 200.503 317 200.733C317.111 200.962 317.167 201.214 317.167 201.489V201.873C317.167 202.147 317.11 202.399 316.997 202.629C316.885 202.856 316.72 203.04 316.499 203.179C316.282 203.317 316.014 203.385 315.697 203.385C315.375 203.385 315.104 203.317 314.884 203.179C314.666 203.04 314.5 202.856 314.386 202.629C314.273 202.399 314.216 202.147 314.216 201.873ZM315.047 201.489V201.873C315.047 202.076 315.094 202.261 315.189 202.427C315.286 202.592 315.455 202.675 315.697 202.675C315.934 202.675 316.099 202.592 316.194 202.427C316.291 202.261 316.34 202.076 316.34 201.873V201.489C316.34 201.286 316.293 201.101 316.201 200.935C316.109 200.769 315.941 200.687 315.697 200.687C315.46 200.687 315.292 200.769 315.193 200.935C315.095 201.101 315.047 201.286 315.047 201.489ZM314.553 207.398L319.553 200.125H320.402L315.402 207.398H314.553ZM324.415 203.762C324.415 204.654 324.298 205.475 324.063 206.223C323.829 206.971 323.487 207.661 323.037 208.293H322.064C322.239 208.059 322.403 207.771 322.554 207.43C322.706 207.089 322.838 206.716 322.952 206.312C323.065 205.904 323.154 205.483 323.218 205.047C323.282 204.612 323.314 204.183 323.314 203.762C323.314 203.201 323.258 202.631 323.147 202.054C323.036 201.476 322.886 200.94 322.696 200.445C322.507 199.95 322.296 199.547 322.064 199.234H323.037C323.487 199.866 323.829 200.556 324.063 201.304C324.298 202.053 324.415 202.872 324.415 203.762Z" fill="white"></path>
<path d="M275.001 127.69L269.595 124.569V130.811L275.001 127.69ZM247.961 127.15C247.663 127.15 247.421 127.392 247.421 127.69C247.421 127.989 247.663 128.231 247.961 128.231V127.15ZM270.136 127.15H247.961V128.231H270.136V127.15Z" fill="white"></path>
<path d="M279.145 123.351H280.476L282.792 129.004H282.877L285.192 123.351H286.524V130.624H285.48V125.361H285.412L283.268 130.613H282.401L280.256 125.357H280.189V130.624H279.145V123.351ZM289.621 130.745C289.276 130.745 288.963 130.681 288.684 130.553C288.405 130.423 288.183 130.234 288.02 129.988C287.859 129.742 287.778 129.44 287.778 129.083C287.778 128.775 287.838 128.522 287.956 128.323C288.074 128.124 288.234 127.966 288.435 127.85C288.637 127.734 288.862 127.647 289.11 127.588C289.359 127.528 289.612 127.483 289.87 127.453C290.197 127.415 290.462 127.384 290.665 127.36C290.869 127.334 291.017 127.293 291.109 127.236C291.202 127.179 291.248 127.087 291.248 126.959V126.934C291.248 126.624 291.16 126.384 290.985 126.213C290.812 126.043 290.554 125.958 290.211 125.958C289.853 125.958 289.572 126.037 289.366 126.196C289.162 126.352 289.021 126.526 288.943 126.718L287.945 126.49C288.064 126.159 288.237 125.891 288.464 125.688C288.693 125.482 288.957 125.333 289.256 125.24C289.554 125.146 289.868 125.098 290.197 125.098C290.415 125.098 290.645 125.124 290.889 125.176C291.135 125.226 291.365 125.318 291.578 125.453C291.794 125.588 291.97 125.781 292.107 126.032C292.245 126.281 292.313 126.604 292.313 127.002V130.624H291.276V129.878H291.234C291.165 130.015 291.062 130.15 290.925 130.283C290.787 130.415 290.611 130.526 290.396 130.613C290.18 130.701 289.922 130.745 289.621 130.745ZM289.852 129.892C290.146 129.892 290.397 129.834 290.605 129.718C290.816 129.602 290.976 129.451 291.085 129.264C291.196 129.074 291.251 128.872 291.251 128.656V127.953C291.214 127.991 291.14 128.027 291.031 128.06C290.925 128.091 290.803 128.118 290.665 128.142C290.528 128.163 290.394 128.183 290.264 128.202C290.134 128.218 290.025 128.233 289.938 128.245C289.732 128.271 289.543 128.314 289.373 128.376C289.205 128.437 289.07 128.526 288.968 128.642C288.869 128.756 288.819 128.907 288.819 129.097C288.819 129.36 288.916 129.558 289.11 129.693C289.304 129.826 289.552 129.892 289.852 129.892ZM293.727 130.624V125.169H294.754V126.036H294.811C294.91 125.742 295.085 125.511 295.336 125.343C295.589 125.173 295.876 125.088 296.195 125.088C296.262 125.088 296.34 125.09 296.43 125.095C296.522 125.099 296.594 125.105 296.646 125.112V126.128C296.604 126.116 296.528 126.103 296.419 126.089C296.31 126.072 296.201 126.064 296.093 126.064C295.842 126.064 295.618 126.117 295.421 126.224C295.227 126.328 295.073 126.474 294.96 126.661C294.846 126.845 294.789 127.056 294.789 127.293V130.624H293.727ZM298.542 128.774L298.535 127.477H298.719L300.893 125.169H302.164L299.685 127.797H299.518L298.542 128.774ZM297.565 130.624V123.351H298.627V130.624H297.565ZM301.01 130.624L299.057 128.031L299.788 127.289L302.313 130.624H301.01ZM305.258 130.734C304.721 130.734 304.258 130.619 303.869 130.389C303.484 130.157 303.185 129.832 302.975 129.413C302.766 128.991 302.662 128.498 302.662 127.932C302.662 127.373 302.766 126.881 302.975 126.455C303.185 126.029 303.479 125.696 303.855 125.457C304.234 125.218 304.677 125.098 305.183 125.098C305.491 125.098 305.789 125.149 306.078 125.251C306.367 125.353 306.626 125.513 306.856 125.73C307.086 125.948 307.267 126.231 307.399 126.579C307.532 126.925 307.598 127.345 307.598 127.84V128.216H303.262V127.421H306.558C306.558 127.141 306.501 126.894 306.387 126.678C306.274 126.461 306.114 126.289 305.908 126.164C305.704 126.038 305.465 125.975 305.191 125.975C304.892 125.975 304.632 126.049 304.409 126.196C304.189 126.34 304.019 126.529 303.898 126.764C303.78 126.996 303.72 127.248 303.72 127.52V128.142C303.72 128.506 303.784 128.816 303.912 129.072C304.042 129.328 304.223 129.523 304.455 129.658C304.687 129.79 304.959 129.857 305.269 129.857C305.47 129.857 305.653 129.828 305.819 129.772C305.985 129.712 306.128 129.625 306.249 129.509C306.369 129.393 306.462 129.249 306.526 129.079L307.531 129.26C307.45 129.556 307.306 129.815 307.097 130.038C306.892 130.258 306.632 130.43 306.32 130.553C306.01 130.673 305.656 130.734 305.258 130.734ZM311.322 125.169V126.022H308.343V125.169H311.322ZM309.142 123.862H310.204V129.022C310.204 129.228 310.235 129.383 310.296 129.487C310.358 129.589 310.437 129.659 310.534 129.697C310.634 129.732 310.741 129.75 310.857 129.75C310.942 129.75 311.017 129.744 311.081 129.732C311.145 129.721 311.195 129.711 311.23 129.704L311.422 130.581C311.36 130.605 311.273 130.629 311.159 130.652C311.045 130.678 310.903 130.692 310.733 130.695C310.454 130.7 310.193 130.65 309.952 130.546C309.71 130.441 309.515 130.281 309.366 130.063C309.217 129.845 309.142 129.571 309.142 129.242V123.862ZM312.497 130.624V125.169H313.559V130.624H312.497ZM313.033 124.328C312.849 124.328 312.69 124.266 312.557 124.143C312.427 124.017 312.362 123.868 312.362 123.696C312.362 123.52 312.427 123.371 312.557 123.248C312.69 123.123 312.849 123.06 313.033 123.06C313.218 123.06 313.375 123.123 313.506 123.248C313.638 123.371 313.704 123.52 313.704 123.696C313.704 123.868 313.638 124.017 313.506 124.143C313.375 124.266 313.218 124.328 313.033 124.328ZM316.049 127.385V130.624H314.987V125.169H316.006V126.057H316.074C316.199 125.768 316.396 125.536 316.663 125.361C316.933 125.186 317.273 125.098 317.683 125.098C318.054 125.098 318.38 125.176 318.659 125.333C318.938 125.486 319.155 125.716 319.309 126.022C319.463 126.327 319.54 126.705 319.54 127.154V130.624H318.478V127.282C318.478 126.887 318.375 126.578 318.169 126.355C317.963 126.13 317.68 126.018 317.32 126.018C317.074 126.018 316.855 126.071 316.663 126.178C316.474 126.284 316.324 126.441 316.212 126.647C316.103 126.85 316.049 127.096 316.049 127.385ZM323.251 132.783C322.817 132.783 322.445 132.726 322.132 132.612C321.822 132.499 321.569 132.348 321.372 132.161C321.176 131.974 321.029 131.77 320.932 131.547L321.844 131.171C321.908 131.275 321.994 131.385 322.1 131.501C322.209 131.619 322.356 131.72 322.54 131.803C322.728 131.886 322.968 131.927 323.261 131.927C323.664 131.927 323.996 131.829 324.259 131.632C324.522 131.438 324.653 131.128 324.653 130.702V129.629H324.586C324.522 129.745 324.43 129.874 324.309 130.017C324.191 130.159 324.027 130.282 323.819 130.386C323.611 130.49 323.339 130.542 323.006 130.542C322.575 130.542 322.187 130.441 321.841 130.24C321.498 130.037 321.225 129.737 321.024 129.342C320.825 128.944 320.726 128.455 320.726 127.875C320.726 127.295 320.824 126.798 321.021 126.384C321.219 125.969 321.492 125.652 321.837 125.432C322.183 125.209 322.575 125.098 323.013 125.098C323.351 125.098 323.625 125.155 323.833 125.269C324.041 125.38 324.204 125.51 324.32 125.659C324.438 125.808 324.529 125.94 324.593 126.053H324.671V125.169H325.712V130.745C325.712 131.213 325.603 131.598 325.385 131.899C325.167 132.199 324.872 132.422 324.501 132.566C324.131 132.711 323.715 132.783 323.251 132.783ZM323.24 129.661C323.545 129.661 323.804 129.59 324.014 129.448C324.227 129.304 324.388 129.098 324.497 128.83C324.608 128.561 324.664 128.237 324.664 127.861C324.664 127.494 324.61 127.171 324.501 126.892C324.392 126.612 324.232 126.394 324.021 126.238C323.811 126.08 323.55 126 323.24 126C322.92 126 322.654 126.083 322.441 126.249C322.228 126.412 322.067 126.635 321.958 126.916C321.852 127.198 321.798 127.513 321.798 127.861C321.798 128.218 321.853 128.532 321.962 128.802C322.071 129.072 322.232 129.283 322.445 129.434C322.66 129.586 322.925 129.661 323.24 129.661ZM330.091 126.987C330.091 126.097 330.208 125.278 330.443 124.53C330.677 123.782 331.019 123.092 331.469 122.46H332.442C332.267 122.694 332.103 122.982 331.952 123.323C331.8 123.664 331.668 124.038 331.554 124.445C331.441 124.85 331.352 125.27 331.288 125.705C331.224 126.139 331.192 126.566 331.192 126.987C331.192 127.551 331.248 128.121 331.359 128.699C331.47 129.277 331.62 129.813 331.81 130.308C331.999 130.803 332.21 131.206 332.442 131.519H331.469C331.019 130.887 330.677 130.196 330.443 129.448C330.208 128.7 330.091 127.88 330.091 126.987ZM335.948 130.723C335.503 130.723 335.103 130.638 334.748 130.468C334.395 130.295 334.113 130.058 333.902 129.757C333.692 129.457 333.579 129.113 333.565 128.727H334.63C334.656 129.04 334.795 129.297 335.046 129.498C335.297 129.699 335.597 129.8 335.948 129.8C336.227 129.8 336.475 129.736 336.69 129.608C336.908 129.478 337.078 129.299 337.201 129.072C337.327 128.845 337.39 128.585 337.39 128.294C337.39 127.998 337.326 127.734 337.198 127.502C337.07 127.27 336.894 127.088 336.669 126.955C336.446 126.823 336.19 126.755 335.902 126.753C335.681 126.753 335.46 126.791 335.238 126.867C335.015 126.942 334.835 127.042 334.698 127.165L333.693 127.016L334.101 123.351H338.1V124.292H335.014L334.783 126.327H334.826C334.968 126.19 335.156 126.075 335.39 125.982C335.627 125.89 335.88 125.844 336.15 125.844C336.593 125.844 336.987 125.949 337.333 126.16C337.681 126.371 337.954 126.658 338.153 127.023C338.354 127.385 338.454 127.802 338.451 128.273C338.454 128.744 338.347 129.164 338.132 129.534C337.919 129.903 337.623 130.194 337.244 130.407C336.868 130.618 336.435 130.723 335.948 130.723ZM343.545 129.26V128.877C343.545 128.602 343.601 128.351 343.715 128.124C343.831 127.894 343.999 127.711 344.219 127.573C344.442 127.434 344.711 127.364 345.025 127.364C345.347 127.364 345.617 127.432 345.835 127.57C346.053 127.707 346.217 127.891 346.329 128.12C346.442 128.35 346.499 128.602 346.499 128.877V129.26C346.499 129.535 346.442 129.787 346.329 130.017C346.215 130.244 346.048 130.427 345.828 130.567C345.61 130.704 345.343 130.773 345.025 130.773C344.706 130.773 344.436 130.704 344.216 130.567C343.996 130.427 343.829 130.244 343.715 130.017C343.601 129.787 343.545 129.535 343.545 129.26ZM344.372 128.877V129.26C344.372 129.464 344.421 129.648 344.518 129.814C344.615 129.98 344.784 130.063 345.025 130.063C345.265 130.063 345.431 129.98 345.526 129.814C345.621 129.648 345.668 129.464 345.668 129.26V128.877C345.668 128.673 345.622 128.488 345.53 128.323C345.44 128.157 345.272 128.074 345.025 128.074C344.789 128.074 344.621 128.157 344.521 128.323C344.422 128.488 344.372 128.673 344.372 128.877ZM339.887 125.098V124.715C339.887 124.44 339.944 124.188 340.057 123.958C340.173 123.729 340.341 123.545 340.562 123.408C340.784 123.271 341.053 123.202 341.368 123.202C341.69 123.202 341.96 123.271 342.177 123.408C342.395 123.545 342.56 123.729 342.671 123.958C342.782 124.188 342.838 124.44 342.838 124.715V125.098C342.838 125.373 342.781 125.625 342.667 125.855C342.556 126.082 342.39 126.265 342.17 126.405C341.952 126.542 341.685 126.611 341.368 126.611C341.046 126.611 340.775 126.542 340.555 126.405C340.337 126.265 340.171 126.082 340.057 125.855C339.944 125.625 339.887 125.373 339.887 125.098ZM340.718 124.715V125.098C340.718 125.302 340.765 125.486 340.86 125.652C340.957 125.818 341.126 125.901 341.368 125.901C341.604 125.901 341.77 125.818 341.865 125.652C341.962 125.486 342.01 125.302 342.01 125.098V124.715C342.01 124.511 341.964 124.326 341.872 124.161C341.78 123.995 341.612 123.912 341.368 123.912C341.131 123.912 340.963 123.995 340.863 124.161C340.766 124.326 340.718 124.511 340.718 124.715ZM340.224 130.624L345.224 123.351H346.073L341.073 130.624H340.224ZM350.086 126.987C350.086 127.88 349.969 128.7 349.734 129.448C349.5 130.196 349.158 130.887 348.708 131.519H347.735C347.91 131.284 348.073 130.997 348.225 130.656C348.376 130.315 348.509 129.942 348.623 129.537C348.736 129.13 348.825 128.709 348.889 128.273C348.953 127.837 348.985 127.409 348.985 126.987C348.985 126.426 348.929 125.857 348.818 125.279C348.707 124.702 348.556 124.165 348.367 123.671C348.178 123.176 347.967 122.772 347.735 122.46H348.708C349.158 123.092 349.5 123.782 349.734 124.53C349.969 125.278 350.086 126.097 350.086 126.987Z" fill="white"></path>
</svg>