<svg width="152" height="113" viewBox="0 0 152 113" fill="none" xmlns="http://www.w3.org/2000/svg">
<path d="M24.6849 8.35855C19.0921 12.0779 14.6822 16.9092 11.548 22.3624C14.209 18.4754 17.6487 15.0131 21.825 12.2355C38.9671 0.835383 61.9342 5.23107 73.1215 22.0531C84.3084 38.8763 79.4818 61.7555 62.3388 73.1556C45.2096 84.5466 22.2668 80.1659 11.0698 63.3753C11.6554 64.4483 12.29 65.5054 12.9792 66.5421C25.8139 85.8419 51.8645 91.0828 71.164 78.2477C90.4635 65.413 95.7048 39.3624 82.8697 20.063C70.0354 0.764323 43.984 -4.47614 24.6849 8.35855Z" fill="#3F3A36"></path>
<path d="M53.2036 1.66931C80.2616 8.38574 96.4252 33.6823 85.9063 57.9605C79.89 71.7817 72.5921 77.6383 56.7909 84.3343C61.781 83.2579 66.6565 81.2461 71.1638 78.2482C90.4633 65.4135 95.7046 39.3629 82.8695 20.0634C75.8475 9.50431 64.8683 3.15363 53.2036 1.66931Z" fill="#544C47"></path>
<path d="M36.6465 82.8357C43.4428 82.8353 50.489 81.6432 57.4207 79.9641C43.1448 82.8428 28.0257 77.2274 19.5947 64.5503C8.40647 47.7279 13.2352 24.8483 30.377 13.4482C37.7037 8.57595 46.0925 6.59505 54.1716 7.23292C50.8101 5.16674 47.4443 3.07549 43.926 1.34204C36.2131 1.49294 28.4517 3.76644 21.5517 8.35483C2.25267 21.1895 -2.98863 47.2405 9.84606 66.5396C15.6446 75.2595 24.1408 81.1082 33.494 83.7177C34.3927 83.1635 35.4402 82.8357 36.6465 82.8357Z" fill="#68615D"></path>
<path opacity="0.5" d="M72.0891 22.7403C82.9048 39.0042 78.2374 61.1223 61.665 72.1441C45.0929 83.1651 22.8905 78.9149 12.0747 62.6522C1.25896 46.3886 5.92635 24.2702 22.4984 13.2492C39.0708 2.22736 61.2737 6.47716 72.0891 22.7403Z" fill="#B5DBEA"></path>
<path opacity="0.3" d="M21.5522 8.35478C2.25316 21.1895 -2.98814 47.2405 9.84655 66.5395C15.645 75.2594 24.1413 81.1081 33.4945 83.7177C34.3928 83.1634 35.4407 82.8357 36.647 82.8357C43.4433 82.8353 50.4895 81.6431 57.4212 79.964C49.8303 81.4947 42.0012 80.6232 35.0662 77.5664C21.3018 74.543 9.44945 61.3221 8.79277 47.2037C8.19252 39.1551 9.78678 31.2311 14.3062 24.5289C22.7569 12.9365 35.4152 6.26728 49.0809 4.14635C47.3884 3.15486 45.6763 2.20432 43.9269 1.34241C36.2136 1.49289 28.4517 3.76639 21.5522 8.35478Z" fill="#68615D"></path>
<path opacity="0.5" d="M32.1241 8.69629C28.7955 9.71036 25.551 11.2185 22.4984 13.2487C5.92635 24.2697 1.25896 46.3882 12.0747 62.6517C22.8905 78.9149 45.0929 83.1651 61.665 72.1437C65.0558 69.8881 67.9387 67.1628 70.3021 64.1235C51.3019 50.6025 36.3935 31.9304 32.1241 8.69629Z" fill="url(#paint0_radial_1_1404)"></path>
<path d="M62.9471 74.0712C45.3271 85.7886 21.6328 81.2475 10.1269 63.9464C-1.37812 46.6462 3.59566 23.0384 21.216 11.3211C38.8356 -0.396729 62.5303 4.14526 74.0362 21.4454C85.5412 38.7456 80.567 62.353 62.9471 74.0712ZM22.4332 13.1515C5.82318 24.1976 1.12361 46.4381 11.9577 62.7296C22.7915 79.0199 45.1194 83.2873 61.7298 72.2404C78.3403 61.1943 83.0399 38.9538 72.2058 22.6631C61.3716 6.37153 39.0433 2.10458 22.4332 13.1515Z" fill="#908F93"></path>
<path d="M65.3835 77.7349C46.0631 90.5846 19.8913 85.3199 7.04198 65.9995C-5.80692 46.6775 -0.541374 20.5052 18.779 7.65676C38.1006 -5.19256 64.2725 0.0725687 77.1218 19.3938C89.9703 38.7142 84.7051 64.8864 65.3835 77.7349ZM21.2143 11.3176C3.91242 22.8239 -0.803042 46.262 10.7032 63.5638C22.2099 80.8657 45.6476 85.5812 62.9499 74.0749C80.2522 62.5677 84.9672 39.1305 73.4605 21.8286C61.9538 4.52552 38.5165 -0.188682 21.2143 11.3176Z" fill="#AEADB3"></path>
<g opacity="0.4">
<path d="M47.8345 5.47351C57.9338 7.0385 67.3689 12.6677 73.46 21.8282C84.9667 39.13 80.2516 62.5673 62.9494 74.0744C53.8248 80.1425 42.9953 81.6946 33.1079 79.2722C49.2118 84.1495 66.7536 78.5211 75.3527 63.1308C81.8287 51.4314 84.649 37.4116 77.9572 24.9661C71.9363 14.0438 60.0472 6.04993 47.8345 5.47351Z" fill="#F2F2F4"></path>
<path d="M1.71917 47.6828C-0.211992 30.4875 11.148 13.4289 26.1559 5.03254C28.6492 3.64938 31.1949 2.45807 33.7789 1.44568C28.5681 2.48817 23.4715 4.53679 18.779 7.65674C-0.541374 20.5052 -5.80692 46.6775 7.04198 65.9991C14.7888 77.6467 27.3781 84.1829 40.3884 84.7242C21.3781 81.3547 3.58178 67.3555 1.71917 47.6828Z" fill="#F2F2F4"></path>
</g>
<path opacity="0.5" d="M28.2011 29.1473C30.1511 32.0796 29.3548 36.0364 26.423 37.986C23.4915 39.9359 19.5343 39.1396 17.5844 36.2082C15.6344 33.2763 16.4303 29.3196 19.3621 27.3696C22.2944 25.42 26.2516 26.2159 28.2011 29.1473Z" fill="#F2F2F4"></path>
<path opacity="0.3" d="M53.3794 33.905C55.0769 32.9917 56.7284 32.0039 58.3494 30.9656C55.943 26.6807 53.0228 22.7452 49.4702 19.4288C47.8371 20.6435 46.1822 21.8445 44.5044 23.0002C46.0548 24.482 47.4893 26.1469 48.6994 27.6179C50.4103 29.6978 51.9682 31.7949 53.3794 33.905Z" fill="white"></path>
<path opacity="0.3" d="M55.65 37.5395C58.4585 42.3574 60.4925 47.233 61.7231 52.1311C62.2744 51.8807 62.8304 51.6374 63.38 51.3988C63.7997 51.2207 64.2093 51.0426 64.6073 50.8629C64.9897 50.6915 65.3743 50.5176 65.758 50.3441C64.4284 45.0318 62.6561 39.6918 60.2801 34.6971C58.7657 35.692 57.2262 36.6454 55.65 37.5395Z" fill="white"></path>
<path opacity="0.3" d="M61.5364 28.8418C63.3284 27.6054 65.0945 26.3259 66.853 25.0368C65.994 23.904 65.0326 22.7345 63.9533 21.5122L63.0245 20.4564C60.9726 18.1248 59.0009 15.883 56.8239 13.8557C55.9745 14.5003 55.131 15.1457 54.2929 15.7819C53.8419 16.125 53.3854 16.4724 52.9307 16.8177C56.3495 20.3631 59.1844 24.4487 61.5364 28.8418Z" fill="white"></path>
<path opacity="0.3" d="M63.3926 32.582C65.7957 37.8112 67.5956 43.3644 68.9415 48.8932C69.7955 48.5012 70.6457 48.1091 71.483 47.7208C72.469 47.2656 73.4718 46.8049 74.4784 46.3409C73.8079 41.7287 73.0534 36.9978 71.2572 32.5327C70.7126 31.1767 70.02 29.8124 69.1652 28.4083C67.2511 29.8157 65.335 31.221 63.3926 32.582Z" fill="white"></path>
<path d="M146.222 79.7133L147.722 82.7638L153.005 83.2976L156.961 72.5717L157.331 67.5729L155.148 65.1138L151.328 65.4921L148.221 72.3999L146.222 79.7133Z" fill="#9C9CA0"></path>
<path d="M159.84 66.7518C159.122 66.4274 158.365 66.2013 157.569 65.9655C156.925 65.7749 156.261 65.578 155.619 65.3201C155.471 65.2641 155.317 65.1927 155.149 65.1141C154.641 64.8817 154.066 64.62 153.608 64.671C153.269 64.7074 153.113 64.8787 152.897 65.1166C152.828 65.1956 152.751 65.2775 152.664 65.3619L154.687 65.912L154.858 66.5424C154.837 67.2513 154.792 67.9402 154.724 68.6169C158.073 69.0391 161.697 70.7512 162.527 74.3264C163.499 77.3757 162.032 81.5197 158.008 81.0277C154.814 80.0768 156.217 75.5716 153.742 73.6329C153.673 73.8682 153.605 74.1023 153.532 74.3427C152.634 77.2043 151.514 79.4962 150.106 82.0635L150.042 82.1329L149.396 82.5994L149.292 82.5693L147.453 81.9808C147.543 82.8774 147.952 83.2858 148.965 83.626C149.474 83.7949 149.973 83.9746 150.469 84.1565C151.262 84.4432 152.079 84.7442 152.897 84.982C155.695 85.798 158.03 85.9192 160.379 83.8555C161.861 82.5484 163.635 80.7397 164.201 78.3036C165.013 75.9273 164.836 74.9467 164.406 72.577L164.287 71.9066C163.877 69.6063 162.425 67.9159 159.84 66.7518Z" fill="#908F93"></path>
<path d="M153.673 72.1761C153.079 71.4496 152.29 70.8924 151.263 70.7173C151.062 71.7376 150.8 72.7371 150.518 73.7072C150.902 73.645 151.269 73.6466 151.554 73.7043C152.064 73.9965 152.613 74.639 152.715 75.393C152.851 75.0081 152.984 74.6164 153.11 74.2109C153.327 73.5183 153.513 72.8432 153.673 72.1761Z" fill="#A6A5AA"></path>
<path d="M151.553 73.7044C151.268 73.6463 150.901 73.6446 150.518 73.7073C150.152 74.9696 149.747 76.176 149.359 77.2645C149.272 77.5128 149.167 77.7552 149.067 77.9989C149.161 78.1126 149.26 78.22 149.353 78.3358C149.26 78.2204 149.16 78.1126 149.067 77.9989C148.859 78.498 148.641 78.9933 148.421 79.474C148.233 79.8824 148.042 80.2945 147.869 80.7067C147.839 80.7736 147.809 80.84 147.782 80.9178C147.699 81.1201 147.614 81.3404 147.499 81.5327L149.319 82.1174L149.745 81.8077C150.93 79.6466 151.908 77.6762 152.715 75.3931C152.613 74.639 152.064 73.9965 151.553 73.7044Z" fill="#908F93"></path>
<path d="M151.871 65.5994C151.848 65.8418 151.853 66.0868 151.858 66.348C151.863 66.6348 151.867 66.9265 151.836 67.2225C151.742 68.0952 151.587 68.9781 151.428 69.8429C151.395 70.0197 151.362 70.1982 151.329 70.3742L151.304 70.518C151.29 70.584 151.275 70.6509 151.262 70.7178C152.289 70.8929 153.079 71.4501 153.673 72.1766C154.12 70.319 154.357 68.5229 154.42 66.5658L154.336 66.2728L151.871 65.5994Z" fill="#908F93"></path>
<path d="M97.9377 65.6918L146.333 81.1624C146.979 79.7437 147.575 78.3304 148.108 76.9134C136.168 63.7196 116.32 62.6558 99.7326 57.6423C99.0354 60.3004 98.4105 62.9998 97.9377 65.6918Z" fill="#32353A"></path>
<path d="M100.468 54.9441C100.217 55.8382 99.9701 56.7369 99.7322 57.6427C116.32 62.6558 136.168 63.72 148.108 76.9137C149.04 74.4396 149.787 71.9525 150.322 69.4069C134.029 62.9726 117.154 59.4242 100.468 54.9441Z" fill="#4B4F56"></path>
<path d="M150.984 65.3594L101.363 51.8455C101.059 52.8658 100.76 53.9016 100.468 54.9437C117.155 59.4238 134.03 62.9722 150.323 69.4061C150.603 68.0764 150.826 66.7304 150.984 65.3594Z" fill="#32353A"></path>
<path d="M150.984 65.3594C150.826 66.7304 150.603 68.0764 150.323 69.4065C149.788 71.9521 149.041 74.4392 148.109 76.9133C147.576 78.3303 146.979 79.7436 146.333 81.1623L146.999 81.3755C146.995 81.3613 146.997 81.35 146.997 81.3337L147.104 81.3353C147.21 81.1698 147.295 80.9554 147.373 80.7556C147.405 80.6766 147.435 80.6034 147.462 80.5328C147.639 80.1144 147.829 79.703 148.024 79.2884C148.272 78.7442 148.519 78.184 148.744 77.6206C148.811 77.453 148.885 77.2862 148.945 77.1177C149.645 75.1535 150.422 72.8211 150.869 70.4368L150.897 70.293C150.935 70.0886 150.973 69.8817 151.011 69.6748C151.164 68.8472 151.309 68.0041 151.399 67.176C151.428 66.9085 151.423 66.638 151.419 66.3551C151.415 66.0725 151.412 65.7732 151.442 65.4835L150.984 65.3594Z" fill="#1E2123"></path>
<path d="M99.2643 54.6223C99.6647 54.7314 100.067 54.8367 100.468 54.9441C100.76 53.902 101.059 52.8662 101.363 51.8459L99.2592 51.2728C99.2584 51.3109 99.2505 51.3476 99.2434 51.3836C98.993 52.8015 98.5988 54.2264 98.218 55.5983C97.9969 56.4009 97.7674 57.2235 97.5697 58.0302C97.3661 58.8834 97.1793 59.7691 96.9999 60.6268C96.6927 62.0944 96.3817 63.5946 95.9353 65.0526L97.9379 65.6926C98.4107 63.0007 99.0356 60.3012 99.7328 57.6431C99.4946 57.5717 99.2542 57.5014 99.0172 57.4275C99.2538 57.5014 99.4946 57.5713 99.7328 57.6431C99.9703 56.7373 100.217 55.8386 100.468 54.9441C100.066 54.8363 99.6647 54.7314 99.2643 54.6223Z" fill="#1E2123"></path>
<path d="M147.433 81.5131L147.066 81.3985C147.079 81.3789 147.093 81.3592 147.104 81.3358" fill="#908F93"></path>
<path d="M147.433 81.5131L147.499 81.5327C147.478 81.5741 147.456 81.6038 147.437 81.6376C147.433 81.5992 147.431 81.5574 147.433 81.5131Z" fill="#908F93"></path>
<path d="M146.997 81.3337L147.104 81.3354C147.093 81.3592 147.079 81.3785 147.066 81.3981L146.998 81.3751C146.994 81.3609 146.997 81.3496 146.997 81.3337Z" fill="#908F93"></path>
<path d="M146.993 81.4884C146.992 81.4529 146.994 81.4148 146.998 81.3751L146.993 81.4884Z" fill="#908F93"></path>
<path d="M146.993 81.4884C146.991 81.5004 146.993 81.5099 146.995 81.5137L146.982 81.5017C146.985 81.4992 146.99 81.4913 146.993 81.4884Z" fill="#908F93"></path>
<path d="M85.1198 59.514L92.0815 61.5765C92.2638 60.2372 92.4803 58.9385 92.7399 57.6677C90.8029 57.0921 88.9219 56.2892 87.0037 55.4636C86.4945 56.8368 85.8563 58.1848 85.1198 59.514Z" fill="#908F93"></path>
<path d="M94.1639 52.419L88.1936 50.6345C88.1313 51.1875 88.0377 51.7343 87.9265 52.2781C89.8313 52.9168 91.6818 53.65 93.5469 54.3585C93.7342 53.7064 93.9411 53.0602 94.1639 52.419Z" fill="#908F93"></path>
<path d="M87.2783 50.3616C87.2427 50.8602 87.1629 51.4074 87.0492 51.9855C86.8548 52.9695 86.5622 54.0437 86.2128 55.1226C85.7383 56.5935 85.1632 58.0753 84.5993 59.3586L85.1197 59.5141C85.8566 58.1853 86.4945 56.8368 87.0041 55.4637C87.392 54.4174 87.7071 53.3582 87.9266 52.2781C88.0378 51.7347 88.131 51.1875 88.1937 50.6345L87.2783 50.3616Z" fill="#6A696D"></path>
<path d="M93.547 54.3585C91.6819 53.6495 89.831 52.9168 87.9266 52.2781C87.7072 53.3578 87.392 54.4174 87.0041 55.4637C88.9223 56.2892 90.8033 57.0922 92.7403 57.6678C92.9706 56.5446 93.2344 55.4428 93.547 54.3585Z" fill="#A6A5AA"></path>
<path d="M94.1638 52.4189C93.941 53.0606 93.7341 53.7068 93.5468 54.3589C93.2341 55.4432 92.9704 56.545 92.7397 57.6682C92.4801 58.9389 92.2635 60.2376 92.0813 61.5769L92.5227 61.7082L93.7391 57.9432L94.7507 54.8141L95.4044 52.7897L94.1638 52.4189Z" fill="#6A696D"></path>
<path d="M93.4259 57.4578C91.4525 64.0496 92.7203 65.0909 95.8766 65.674L97.781 58.1951C96.5417 57.1714 95.0352 56.4834 93.4259 57.4578Z" fill="#908F93"></path>
<path d="M94.2761 54.7838C94.0458 55.4618 93.7988 56.2342 93.5283 57.115C93.4924 57.232 93.4606 57.344 93.4259 57.4577C95.0356 56.4829 96.5417 57.1714 97.781 58.1951L98.4532 55.5554C97.0613 54.9234 95.6701 53.9741 94.2761 54.7838Z" fill="#A6A5AA"></path>
<path d="M94.2759 54.7838C95.6699 53.9741 97.061 54.9234 98.453 55.5554L99.6526 50.8429C96.7224 50.0219 95.8797 50.0779 94.2759 54.7838Z" fill="#908F93"></path>
<path opacity="0.2" d="M150.636 81.0806C150.465 81.4041 150.287 81.7322 150.105 82.0633L150.04 82.1327L149.395 82.5992L149.291 82.5691L147.452 81.9805C147.542 82.8771 147.951 83.2855 148.964 83.6258C149.472 83.7946 149.971 83.9744 150.468 84.1562C151.261 84.443 152.078 84.7439 152.896 84.9818C155.694 85.7977 158.029 85.9189 160.378 83.8553C161.132 83.1894 161.962 82.3931 162.67 81.4505C159.004 83.133 154.479 82.9248 150.636 81.0806Z" fill="#211915"></path>
<path opacity="0.2" d="M148.42 79.4738C148.232 79.8821 148.041 80.2943 147.867 80.7064C147.837 80.7733 147.808 80.8398 147.78 80.9175C147.698 81.1198 147.613 81.3401 147.498 81.5324L149.317 82.1172L149.744 81.8075C150.158 81.0538 150.542 80.324 150.907 79.5967C150.154 79.3199 149.471 78.9542 148.917 78.3673C148.755 78.7414 148.586 79.1101 148.42 79.4738Z" fill="#211915"></path>
<path opacity="0.1" d="M154.334 66.272L151.87 65.5995C151.847 65.8419 151.851 66.0869 151.856 66.3481C151.862 66.6349 151.865 66.9266 151.835 67.2226C151.737 68.1342 151.571 69.058 151.404 69.9596C152.244 69.596 153.258 69.9383 154.019 70.5076C154.245 69.2223 154.375 67.9328 154.419 66.5651L154.334 66.272Z" fill="#211915"></path>
<path opacity="0.3" d="M96.2271 65.1289L146.875 81.2578C146.871 81.2449 147.42 79.7075 147.614 79.2928C147.904 78.6575 148.341 78.0501 148.592 77.3884C131.15 72.3356 114.553 66.8109 97.0434 61.8777C96.8093 62.9649 96.5556 64.0584 96.2271 65.1289Z" fill="#211915"></path>
<path opacity="0.1" d="M151.71 66.433C151.706 66.1491 151.703 65.8503 151.733 65.5614L99.5512 51.3499C99.5496 51.3879 99.5416 51.4247 99.5341 51.4606C99.489 51.7261 99.4325 51.9919 99.3761 52.2565C116.469 58.8224 134.073 62.8457 151.711 66.6976C151.711 66.6102 151.711 66.5233 151.71 66.433Z" fill="#211915"></path>
<path opacity="0.1" d="M89.0356 50.8859L87.2771 50.3613C87.2549 50.6757 87.2136 51.0117 87.158 51.3603C86.8403 53.383 86.0152 55.904 85.1294 58.0952C84.9526 58.5307 84.7754 58.9554 84.5977 59.3584L86.2183 59.8391L92.5213 61.7071L92.8904 60.5676C90.7979 59.8474 88.7096 59.0561 86.6095 58.4718C87.3001 56.2209 88.1574 54.0468 88.7919 51.8001C90.8911 52.3681 93.0179 52.9559 95.1668 53.5214L95.403 52.7887L89.0356 50.8859Z" fill="#211915"></path>
<path opacity="0.1" d="M97.8929 50.4592C97.1133 50.3865 96.529 50.562 95.9935 51.1639C95.2148 52.0392 94.5405 53.8212 93.5281 57.115C92.5584 60.273 92.2963 62.2079 92.6039 63.4343C92.7899 64.175 93.1833 64.6586 93.7539 64.9968C94.3052 65.3237 95.0212 65.516 95.8765 65.6744L96.1837 64.4664C95.3063 64.4538 94.4519 64.3974 93.6811 64.0952C93.4537 59.8349 94.9473 55.4727 97.1576 51.6705C97.8419 52.035 98.4869 52.4869 99.113 52.9634L99.6527 50.8433C98.9617 50.6498 98.3895 50.5064 97.8929 50.4592Z" fill="#211915"></path>
<g opacity="0.3">
<path d="M24.6849 159.091C19.0921 155.599 14.6822 151.065 11.548 145.947C14.209 149.595 17.6487 152.845 21.825 155.452C38.9671 166.152 61.9342 162.026 73.1215 146.236C84.3084 130.445 79.4818 108.97 62.3388 98.2704C45.2096 87.5779 22.2668 91.6902 11.0698 107.45C11.6554 106.443 12.29 105.451 12.9792 104.478C25.8139 86.362 51.8645 81.4434 71.164 93.4901C90.4635 105.537 95.7048 129.989 82.8697 148.104C70.0354 166.219 43.984 171.138 24.6849 159.091Z" fill="#3F3A36"></path>
<path d="M53.2036 165.37C80.2616 159.066 96.4252 135.322 85.9063 112.533C79.89 99.5608 72.5921 94.0641 56.7909 87.7782C61.781 88.7885 66.6565 90.677 71.1638 93.4902C90.4633 105.537 95.7046 129.99 82.8695 148.104C75.8475 158.016 64.8683 163.977 53.2036 165.37Z" fill="#544C47"></path>
<path d="M36.6465 89.1851C43.4428 89.1855 50.489 90.3041 57.4207 91.88C43.1448 89.178 28.0257 94.4486 19.5947 106.348C8.40647 122.138 13.2352 143.613 30.377 154.314C37.7037 158.887 46.0925 160.746 54.1716 160.148C50.8101 162.087 47.4443 164.05 43.926 165.677C36.2131 165.535 28.4517 163.401 21.5517 159.094C2.25267 147.047 -2.98863 122.595 9.84606 104.481C15.6446 96.2957 24.1408 90.8061 33.494 88.3571C34.3927 88.877 35.4402 89.1851 36.6465 89.1851Z" fill="#68615D"></path>
<path opacity="0.5" d="M22.4984 154.501C5.92635 144.156 1.25896 123.395 12.0747 108.13C22.8905 92.8652 45.0929 88.8762 61.665 99.2205C78.237 109.566 82.9048 130.326 72.0891 145.592C61.2737 160.857 39.0708 164.846 22.4984 154.501Z" fill="#B5DBEA"></path>
<path opacity="0.3" d="M21.5522 159.094C2.25316 147.047 -2.98814 122.595 9.84655 104.481C15.645 96.2957 24.1413 90.8061 33.4945 88.3571C34.3928 88.877 35.4407 89.1851 36.647 89.1851C43.4433 89.1855 50.4895 90.3041 57.4212 91.88C49.8303 90.4433 42.0012 91.2613 35.0662 94.1309C21.3018 96.9691 9.44945 109.379 8.79277 122.631C8.19252 130.185 9.78678 137.623 14.3062 143.914C22.7569 154.794 35.4152 161.054 49.0809 163.045C47.3884 163.976 45.6763 164.867 43.9269 165.677C36.2136 165.535 28.4517 163.401 21.5522 159.094Z" fill="#68615D"></path>
<path opacity="0.5" d="M32.1241 158.774C28.7955 157.822 25.551 156.407 22.4984 154.501C5.92635 144.156 1.25896 123.395 12.0747 108.13C22.8905 92.8652 45.0929 88.8762 61.665 99.2205C65.0558 101.338 67.9387 103.896 70.3021 106.748C51.3019 119.44 36.3935 136.966 32.1241 158.774Z" fill="url(#paint1_radial_1_1404)"></path>
<path d="M74.0364 146.808C62.5309 163.047 38.8362 167.31 21.2162 156.311C3.59585 145.312 -1.37836 123.153 10.1271 106.915C21.6325 90.6757 45.3273 86.413 62.9473 97.4118C80.5672 108.41 85.5414 130.569 74.0364 146.808ZM72.2059 145.665C83.0401 130.374 78.3405 109.498 61.73 99.1298C45.1195 88.7609 22.7917 92.7661 11.9579 108.057C1.12379 123.349 5.82337 144.224 22.4334 154.592C39.0435 164.961 61.3718 160.957 72.2059 145.665Z" fill="#908F93"></path>
<path d="M77.1218 148.734C64.2725 166.868 38.1006 171.81 18.779 159.75C-0.541374 147.69 -5.80692 123.124 7.04198 104.989C19.8913 86.8535 46.0631 81.9119 65.3835 93.9729C84.7051 106.033 89.9703 130.598 77.1218 148.734ZM73.4601 146.447C84.9668 130.208 80.2518 108.209 62.9495 97.408C45.6472 86.6077 22.2095 91.0339 10.7028 107.274C-0.80346 123.515 3.912 145.514 21.2139 156.314C38.5165 167.114 61.9538 162.689 73.4601 146.447Z" fill="#AEADB3"></path>
<g opacity="0.4">
<path d="M47.8345 161.799C57.9338 160.329 67.3689 155.046 73.46 146.447C84.9667 130.208 80.2516 108.209 62.9494 97.408C53.8248 91.7127 42.9953 90.2556 33.1079 92.5291C49.2118 87.9507 66.7536 93.2338 75.3527 107.68C81.8287 118.661 84.649 131.821 77.9572 143.502C71.9363 153.755 60.0472 161.258 47.8345 161.799Z" fill="#F2F2F4"></path>
<path d="M1.71917 122.181C-0.211992 138.321 11.148 154.332 26.1559 162.213C28.6492 163.511 31.1949 164.629 33.7789 165.58C28.5681 164.601 23.4715 162.679 18.779 159.75C-0.541374 147.69 -5.80692 123.124 7.04198 104.989C14.7888 94.0556 27.3781 87.9198 40.3884 87.4124C21.3781 90.5749 3.58178 103.715 1.71917 122.181Z" fill="#F2F2F4"></path>
</g>
<path d="M146.222 92.1161L147.722 89.2524L153.005 88.7512L156.961 98.8187L157.331 103.511L155.148 105.819L151.328 105.464L148.221 98.9805L146.222 92.1161Z" fill="#9C9CA0"></path>
<path d="M159.84 104.282C159.122 104.586 158.365 104.798 157.569 105.02C156.925 105.199 156.261 105.383 155.619 105.626C155.472 105.678 155.317 105.746 155.149 105.819C154.641 106.037 154.066 106.283 153.608 106.235C153.269 106.201 153.113 106.04 152.897 105.817C152.828 105.743 152.751 105.666 152.664 105.587L154.687 105.07L154.858 104.479C154.837 103.813 154.792 103.166 154.724 102.532C158.074 102.135 161.697 100.528 162.527 97.1724C163.499 94.3103 162.032 90.4208 158.008 90.8823C154.814 91.7751 156.217 96.0032 153.742 97.8228C153.673 97.6025 153.606 97.3826 153.532 97.1569C152.635 94.4704 151.514 92.3198 150.106 89.9096L150.042 89.8448L149.396 89.4063L149.292 89.4348L147.453 89.9874C147.543 89.1455 147.953 88.7626 148.965 88.4437C149.474 88.2849 149.973 88.1164 150.469 87.9459C151.262 87.6767 152.079 87.3941 152.897 87.1709C155.695 86.4051 158.03 86.2914 160.379 88.228C161.861 89.4552 163.635 91.1532 164.201 93.4396C165.013 95.6705 164.836 96.5909 164.406 98.8147L164.287 99.4442C163.877 101.603 162.425 103.189 159.84 104.282Z" fill="#908F93"></path>
<path d="M153.673 99.191C153.08 99.8727 152.29 100.396 151.263 100.56C151.062 99.6023 150.8 98.6647 150.518 97.753C150.902 97.812 151.269 97.8107 151.554 97.7564C152.064 97.4817 152.613 96.8786 152.715 96.1709C152.851 96.5316 152.984 96.9003 153.11 97.2807C153.327 97.9311 153.513 98.5644 153.673 99.191Z" fill="#A6A5AA"></path>
<path d="M151.553 97.7564C151.268 97.8107 150.901 97.8119 150.518 97.753C150.152 96.5688 149.747 95.4365 149.359 94.4149C149.272 94.1816 149.168 93.9538 149.067 93.7256C149.161 93.6194 149.26 93.5183 149.354 93.4096C149.26 93.5183 149.16 93.6194 149.067 93.7256C148.859 93.257 148.641 92.7926 148.421 92.3407C148.233 91.9574 148.042 91.5704 147.869 91.1837C147.839 91.121 147.809 91.0583 147.782 90.9852C147.699 90.7958 147.614 90.5889 147.499 90.4087L149.319 89.8595L149.746 90.1504C150.93 92.1786 151.908 94.0282 152.715 96.1709C152.613 96.8786 152.064 97.4817 151.553 97.7564Z" fill="#908F93"></path>
<path d="M151.871 105.364C151.848 105.136 151.853 104.906 151.858 104.66C151.863 104.391 151.867 104.118 151.836 103.84C151.742 103.021 151.587 102.193 151.428 101.38C151.395 101.214 151.362 101.047 151.329 100.882L151.304 100.747C151.29 100.685 151.275 100.623 151.262 100.56C152.289 100.396 153.079 99.8723 153.673 99.1909C154.12 100.934 154.357 102.62 154.42 104.457L154.336 104.732L151.871 105.364Z" fill="#908F93"></path>
<path d="M97.9378 105.277L146.333 90.7561C146.979 92.0874 147.575 93.4146 148.108 94.7442C136.168 107.128 116.32 108.127 99.7327 112.832C99.0355 110.337 98.4106 107.804 97.9378 105.277Z" fill="#32353A"></path>
<path d="M100.468 115.365C100.217 114.526 99.9701 113.683 99.7323 112.833C116.32 108.127 136.168 107.128 148.108 94.7446C149.04 97.0675 149.787 99.4016 150.322 101.79C134.029 107.829 117.155 111.159 100.468 115.365Z" fill="#4B4F56"></path>
<path d="M150.984 105.589L101.363 118.273C101.059 117.315 100.76 116.344 100.468 115.365C117.155 111.16 134.03 107.829 150.323 101.79C150.603 103.039 150.826 104.302 150.984 105.589Z" fill="#32353A"></path>
<path d="M150.984 105.589C150.826 104.302 150.602 103.039 150.323 101.79C149.787 99.4007 149.041 97.0666 148.108 94.7442C147.575 93.4146 146.979 92.0874 146.333 90.7561L146.998 90.5563C146.994 90.5692 146.997 90.5805 146.997 90.5956L147.104 90.5939C147.21 90.749 147.295 90.9509 147.373 91.1381C147.405 91.2121 147.435 91.2811 147.462 91.3471C147.638 91.7396 147.828 92.1263 148.024 92.5154C148.272 93.0262 148.518 93.5517 148.744 94.0809C148.81 94.2384 148.884 94.3952 148.945 94.5532C149.645 96.397 150.422 98.5856 150.869 100.824L150.896 100.959C150.934 101.151 150.973 101.345 151.011 101.54C151.164 102.316 151.308 103.108 151.399 103.885C151.428 104.136 151.422 104.39 151.419 104.655C151.415 104.92 151.412 105.201 151.442 105.473L150.984 105.589Z" fill="#1E2123"></path>
<path d="M99.2643 115.667C99.6648 115.565 100.067 115.466 100.468 115.365C100.76 116.344 101.059 117.315 101.364 118.273L99.2593 118.811C99.2585 118.775 99.2505 118.741 99.2434 118.707C98.993 117.376 98.5989 116.039 98.2181 114.751C97.9969 113.998 97.7675 113.226 97.5697 112.469C97.3662 111.668 97.1793 110.837 97 110.032C96.6928 108.654 96.3818 107.247 95.9354 105.878L97.938 105.277C98.4108 107.804 99.0357 110.337 99.7329 112.832C99.9703 113.682 100.217 114.526 100.468 115.365C100.066 115.466 99.6648 115.565 99.2643 115.667Z" fill="#1E2123"></path>
<path d="M147.433 90.4268L147.066 90.5346C147.08 90.5534 147.093 90.5714 147.104 90.594" fill="#908F93"></path>
<path d="M147.433 90.4267L147.499 90.4088C147.478 90.3699 147.456 90.3423 147.437 90.3105C147.433 90.3461 147.431 90.3849 147.433 90.4267Z" fill="#908F93"></path>
<path d="M146.997 90.5952L147.104 90.5935C147.093 90.571 147.08 90.553 147.066 90.5342L146.998 90.5559C146.994 90.5693 146.997 90.5802 146.997 90.5952Z" fill="#908F93"></path>
<path d="M146.993 90.4502C146.992 90.4836 146.994 90.5187 146.998 90.5564L146.993 90.4502Z" fill="#908F93"></path>
<path d="M146.993 90.4499C146.991 90.4387 146.993 90.4296 146.995 90.4263L146.982 90.4375C146.985 90.4395 146.99 90.447 146.993 90.4499Z" fill="#908F93"></path>
<path d="M85.1198 111.075L92.0816 109.139C92.2638 110.397 92.4804 111.616 92.74 112.808C90.8029 113.349 88.9219 114.102 87.0037 114.877C86.4946 113.588 85.8563 112.323 85.1198 111.075Z" fill="#908F93"></path>
<path d="M87.2784 119.667C87.2429 119.198 87.163 118.685 87.0493 118.143C86.855 117.219 86.5623 116.211 86.2129 115.198C85.7385 113.817 85.1633 112.426 84.5994 111.222L85.1198 111.076C85.8568 112.323 86.4946 113.589 87.0042 114.878C87.3921 115.86 87.7073 116.854 87.9267 117.867C88.0379 118.378 88.1311 118.891 88.1938 119.41L87.2784 119.667Z" fill="#6A696D"></path>
<path d="M93.5471 115.914C91.682 116.58 89.8311 117.267 87.9267 117.867C87.7072 116.854 87.3921 115.86 87.0042 114.878C88.9224 114.103 90.8033 113.349 92.7404 112.809C92.9707 113.863 93.2344 114.897 93.5471 115.914Z" fill="#A6A5AA"></path>
<path d="M94.1638 117.735C93.941 117.134 93.7341 116.527 93.5469 115.915C93.2342 114.897 92.9705 113.863 92.7397 112.809C92.4801 111.616 92.2636 110.397 92.0814 109.14L92.5228 109.017L93.7391 112.551L94.7507 115.488L95.4045 117.388L94.1638 117.735Z" fill="#6A696D"></path>
<path d="M93.4259 113.005C91.4525 106.818 92.7203 105.84 95.8766 105.293L97.781 112.313C96.5417 113.274 95.0352 113.92 93.4259 113.005Z" fill="#908F93"></path>
<path d="M94.2761 115.515C94.0457 114.879 93.7987 114.154 93.5283 113.327C93.4923 113.217 93.4605 113.112 93.4258 113.005C95.0356 113.92 96.5416 113.274 97.781 112.313L98.4531 114.791C97.0612 115.384 95.6701 116.275 94.2761 115.515Z" fill="#A6A5AA"></path>
<path opacity="0.2" d="M150.635 90.832C150.464 90.5281 150.287 90.2205 150.105 89.9095L150.04 89.8447L149.395 89.4062L149.29 89.4347L147.452 89.9872C147.541 89.1454 147.951 88.7625 148.963 88.4436C149.472 88.2847 149.971 88.1163 150.468 87.9457C151.26 87.6765 152.078 87.394 152.895 87.1708C155.693 86.405 158.028 86.2913 160.377 88.2279C161.132 88.8528 161.961 89.6002 162.67 90.4855C159.004 88.9063 154.478 89.1011 150.635 90.832Z" fill="#211915"></path>
<path opacity="0.2" d="M148.42 92.3406C148.232 91.9573 148.041 91.5702 147.868 91.1836C147.837 91.1209 147.808 91.0582 147.781 90.985C147.698 90.7957 147.613 90.5888 147.498 90.4086L149.318 89.8594L149.744 90.1503C150.158 90.8576 150.542 91.5427 150.907 92.2257C150.154 92.4853 149.471 92.828 148.917 93.3798C148.755 93.0278 148.586 92.6821 148.42 92.3406Z" fill="#211915"></path>
<path opacity="0.1" d="M154.334 104.732L151.87 105.363C151.847 105.136 151.851 104.906 151.856 104.66C151.862 104.391 151.865 104.118 151.835 103.84C151.737 102.984 151.571 102.117 151.404 101.271C152.244 101.612 153.258 101.291 154.019 100.756C154.245 101.963 154.375 103.173 154.419 104.457L154.334 104.732Z" fill="#211915"></path>
<path opacity="0.3" d="M96.2271 105.805L146.875 90.6653C146.871 90.6782 147.42 92.1203 147.614 92.5099C147.904 93.1064 148.341 93.6761 148.592 94.2977C131.15 99.0403 114.553 104.226 97.0434 108.857C96.8093 107.836 96.5556 106.81 96.2271 105.805Z" fill="#211915"></path>
<path opacity="0.1" d="M151.71 104.58C151.706 104.847 151.703 105.128 151.733 105.399L99.5512 118.738C99.5496 118.703 99.5416 118.668 99.5341 118.634C99.489 118.385 99.4325 118.135 99.3761 117.887C116.469 111.724 134.073 107.948 151.711 104.332C151.711 104.415 151.711 104.496 151.71 104.58Z" fill="#211915"></path>
<path opacity="0.1" d="M89.0356 119.174L87.2771 119.667C87.2549 119.371 87.2136 119.056 87.158 118.729C86.8403 116.83 86.0152 114.464 85.1294 112.407C84.9526 111.998 84.7754 111.6 84.5977 111.222L86.2183 110.77L92.5213 109.017L92.8904 110.086C90.7979 110.763 88.7096 111.505 86.6095 112.054C87.3001 114.166 88.1574 116.207 88.7919 118.316C90.8911 117.783 93.0179 117.231 95.1668 116.7L95.403 117.388L89.0356 119.174Z" fill="#211915"></path>
<path opacity="0.1" d="M97.8929 119.574C97.1133 119.643 96.529 119.478 95.9935 118.913C95.2148 118.091 94.5405 116.418 93.5281 113.327C92.5584 110.363 92.2963 108.547 92.6039 107.396C92.7899 106.701 93.1833 106.247 93.7539 105.929C94.3052 105.623 95.0212 105.442 95.8765 105.293L96.1837 106.428C95.3063 106.439 94.4519 106.492 93.6811 106.775C93.4537 110.774 94.9473 114.869 97.1576 118.437C97.8419 118.096 98.4869 117.671 99.113 117.224L99.6527 119.214C98.9617 119.396 98.3895 119.53 97.8929 119.574Z" fill="#211915"></path>
</g>
<defs>
<radialGradient id="paint0_radial_1_1404" cx="0" cy="0" r="1" gradientUnits="userSpaceOnUse" gradientTransform="translate(42.6482 39.9233) rotate(144.988) scale(46.4859 77.6071)">
<stop offset="0.1452" stop-color="white"></stop>
<stop offset="1" stop-color="#5982BD" stop-opacity="0"></stop>
</radialGradient>
<radialGradient id="paint1_radial_1_1404" cx="0" cy="0" r="1" gradientUnits="userSpaceOnUse" gradientTransform="translate(42.6458 129.472) rotate(-146.678) scale(45.5644 74.3148)">
<stop offset="0.1452" stop-color="white"></stop>
<stop offset="1" stop-color="#5982BD" stop-opacity="0"></stop>
</radialGradient>
</defs>
</svg>