<svg width="350" height="113" viewBox="0 0 350 113" fill="none" xmlns="http://www.w3.org/2000/svg">
<g filter="url(#filter0_b_1_1620)">
<rect x="0.325989" y="0.183273" width="349.348" height="112.811" rx="12.8773" fill="#0C2B2F" fill-opacity="0.7"></rect>
<path d="M39.4064 28.636V21.148H36.7064V20.236H43.1144V21.148H40.4144V28.636H39.4064ZM45.8614 28.804C45.2694 28.804 44.7494 28.68 44.3014 28.432C43.8534 28.176 43.5054 27.82 43.2574 27.364C43.0094 26.908 42.8854 26.38 42.8854 25.78V25.636C42.8854 25.028 43.0094 24.496 43.2574 24.04C43.5054 23.584 43.8494 23.232 44.2894 22.984C44.7294 22.728 45.2334 22.6 45.8014 22.6C46.3534 22.6 46.8414 22.72 47.2654 22.96C47.6894 23.192 48.0214 23.528 48.2614 23.968C48.5014 24.408 48.6214 24.924 48.6214 25.516V25.948H43.8334C43.8574 26.58 44.0614 27.076 44.4454 27.436C44.8294 27.788 45.3094 27.964 45.8854 27.964C46.3894 27.964 46.7774 27.848 47.0494 27.616C47.3214 27.384 47.5294 27.108 47.6734 26.788L48.4894 27.184C48.3694 27.432 48.2014 27.68 47.9854 27.928C47.7774 28.176 47.5014 28.384 47.1574 28.552C46.8214 28.72 46.3894 28.804 45.8614 28.804ZM43.8454 25.168H47.6614C47.6294 24.624 47.4414 24.2 47.0974 23.896C46.7614 23.592 46.3294 23.44 45.8014 23.44C45.2654 23.44 44.8254 23.592 44.4814 23.896C44.1374 24.2 43.9254 24.624 43.8454 25.168ZM52.0106 28.804C51.6026 28.804 51.2306 28.732 50.8946 28.588C50.5586 28.444 50.2946 28.236 50.1026 27.964C49.9106 27.692 49.8146 27.36 49.8146 26.968C49.8146 26.568 49.9106 26.24 50.1026 25.984C50.2946 25.72 50.5586 25.524 50.8946 25.396C51.2306 25.26 51.6066 25.192 52.0226 25.192H54.0026V24.76C54.0026 24.344 53.8786 24.016 53.6306 23.776C53.3906 23.536 53.0306 23.416 52.5506 23.416C52.0786 23.416 51.7106 23.532 51.4466 23.764C51.1826 23.988 51.0026 24.292 50.9066 24.676L50.0186 24.388C50.1146 24.06 50.2666 23.764 50.4746 23.5C50.6826 23.228 50.9586 23.012 51.3026 22.852C51.6546 22.684 52.0746 22.6 52.5626 22.6C53.3146 22.6 53.8986 22.796 54.3146 23.188C54.7306 23.572 54.9386 24.116 54.9386 24.82V27.472C54.9386 27.712 55.0506 27.832 55.2745 27.832H55.8146V28.636H54.9866C54.7226 28.636 54.5106 28.564 54.3506 28.42C54.1906 28.268 54.1106 28.068 54.1106 27.82V27.76H53.9666C53.8786 27.912 53.7586 28.072 53.6066 28.24C53.4626 28.4 53.2626 28.532 53.0066 28.636C52.7506 28.748 52.4186 28.804 52.0106 28.804ZM52.1186 27.988C52.6786 27.988 53.1306 27.824 53.4746 27.496C53.8266 27.16 54.0026 26.692 54.0026 26.092V25.96H52.0586C51.6826 25.96 51.3706 26.044 51.1226 26.212C50.8826 26.372 50.7626 26.616 50.7626 26.944C50.7626 27.272 50.8866 27.528 51.1346 27.712C51.3906 27.896 51.7186 27.988 52.1186 27.988ZM57.0485 28.636V22.768H57.9725V23.5H58.1405C58.2525 23.292 58.4365 23.1 58.6925 22.924C58.9485 22.748 59.3085 22.66 59.7725 22.66C60.2285 22.66 60.5965 22.76 60.8765 22.96C61.1645 23.16 61.3725 23.404 61.5005 23.692H61.6685C61.8045 23.404 62.0085 23.16 62.2805 22.96C62.5605 22.76 62.9485 22.66 63.4445 22.66C63.8365 22.66 64.1805 22.74 64.4765 22.9C64.7725 23.06 65.0045 23.292 65.1725 23.596C65.3485 23.892 65.4365 24.248 65.4365 24.664V28.636H64.4885V24.748C64.4885 24.356 64.3725 24.048 64.1405 23.824C63.9165 23.592 63.6005 23.476 63.1925 23.476C62.7605 23.476 62.4045 23.616 62.1245 23.896C61.8525 24.176 61.7165 24.58 61.7165 25.108V28.636H60.7685V24.748C60.7685 24.356 60.6525 24.048 60.4205 23.824C60.1965 23.592 59.8805 23.476 59.4725 23.476C59.0405 23.476 58.6845 23.616 58.4045 23.896C58.1325 24.176 57.9965 24.58 57.9965 25.108V28.636H57.0485Z" fill="white"></path>
<path d="M173.694 28.8163C173.445 28.8163 173.235 28.7347 173.063 28.5716C172.9 28.4085 172.818 28.1982 172.818 27.9406C172.818 27.6831 172.9 27.4728 173.063 27.3097C173.235 27.1465 173.445 27.065 173.694 27.065C173.952 27.065 174.162 27.1465 174.325 27.3097C174.488 27.4728 174.57 27.6831 174.57 27.9406C174.57 28.1982 174.488 28.4085 174.325 28.5716C174.162 28.7347 173.952 28.8163 173.694 28.8163ZM173.694 23.9101C173.445 23.9101 173.235 23.8285 173.063 23.6654C172.9 23.5023 172.818 23.2919 172.818 23.0344C172.818 22.7769 172.9 22.5665 173.063 22.4034C173.235 22.2403 173.445 22.1587 173.694 22.1587C173.952 22.1587 174.162 22.2403 174.325 22.4034C174.488 22.5665 174.57 22.7769 174.57 23.0344C174.57 23.2919 174.488 23.5023 174.325 23.6654C174.162 23.8285 173.952 23.9101 173.694 23.9101Z" fill="white"></path>
<path d="M191.866 28.804C191.274 28.804 190.742 28.692 190.27 28.468C189.806 28.244 189.438 27.92 189.166 27.496C188.902 27.072 188.77 26.56 188.77 25.96V25.732H189.742V25.948C189.742 26.564 189.938 27.048 190.33 27.4C190.722 27.752 191.234 27.928 191.866 27.928C192.506 27.928 193.002 27.764 193.354 27.436C193.714 27.1 193.894 26.68 193.894 26.176V26.08C193.894 25.712 193.806 25.416 193.63 25.192C193.454 24.96 193.214 24.792 192.91 24.688C192.614 24.576 192.286 24.52 191.926 24.52H190.558V23.308L193.762 21.256V21.112H188.974V20.236H194.794V21.592L191.662 23.608V23.752H192.262C192.734 23.752 193.166 23.84 193.558 24.016C193.958 24.184 194.274 24.44 194.506 24.784C194.746 25.12 194.866 25.544 194.866 26.056V26.188C194.866 26.716 194.742 27.176 194.494 27.568C194.246 27.96 193.898 28.264 193.45 28.48C193.002 28.696 192.474 28.804 191.866 28.804ZM199.032 28.804C198.416 28.804 197.884 28.688 197.436 28.456C196.988 28.216 196.64 27.888 196.392 27.472C196.144 27.048 196.02 26.56 196.02 26.008V25.864H196.992V25.972C196.992 26.604 197.176 27.088 197.544 27.424C197.912 27.76 198.4 27.928 199.008 27.928C199.648 27.928 200.148 27.748 200.508 27.388C200.868 27.028 201.048 26.536 201.048 25.912V25.804C201.048 25.204 200.872 24.728 200.52 24.376C200.176 24.016 199.728 23.836 199.176 23.836C198.856 23.836 198.592 23.888 198.384 23.992C198.176 24.088 198.012 24.212 197.892 24.364C197.772 24.508 197.672 24.648 197.592 24.784H196.272V20.236H201.792V21.112H197.244V24.016H197.412C197.5 23.856 197.62 23.7 197.772 23.548C197.932 23.396 198.144 23.268 198.408 23.164C198.672 23.06 199 23.008 199.392 23.008C199.88 23.008 200.32 23.12 200.712 23.344C201.112 23.568 201.428 23.888 201.66 24.304C201.9 24.72 202.02 25.216 202.02 25.792V25.924C202.02 26.492 201.9 26.992 201.66 27.424C201.42 27.856 201.076 28.196 200.628 28.444C200.18 28.684 199.648 28.804 199.032 28.804ZM204.147 28.804L203.499 28.288L210.183 20.068L210.819 20.584L204.147 28.804ZM209.475 28.792C208.891 28.792 208.423 28.624 208.071 28.288C207.727 27.944 207.555 27.48 207.555 26.896V26.824C207.555 26.24 207.727 25.78 208.071 25.444C208.423 25.1 208.891 24.928 209.475 24.928C210.043 24.928 210.503 25.1 210.855 25.444C211.207 25.78 211.383 26.24 211.383 26.824V26.896C211.383 27.48 211.207 27.944 210.855 28.288C210.511 28.624 210.051 28.792 209.475 28.792ZM209.475 28.096C209.811 28.096 210.075 27.988 210.267 27.772C210.467 27.556 210.567 27.276 210.567 26.932V26.788C210.567 26.436 210.467 26.156 210.267 25.948C210.075 25.732 209.811 25.624 209.475 25.624C209.131 25.624 208.859 25.732 208.659 25.948C208.467 26.156 208.371 26.436 208.371 26.788V26.932C208.371 27.276 208.467 27.556 208.659 27.772C208.859 27.988 209.131 28.096 209.475 28.096ZM204.855 23.944C204.271 23.944 203.807 23.772 203.463 23.428C203.119 23.084 202.947 22.624 202.947 22.048V21.976C202.947 21.392 203.119 20.932 203.463 20.596C203.807 20.252 204.271 20.08 204.855 20.08C205.431 20.08 205.891 20.252 206.235 20.596C206.587 20.932 206.763 21.392 206.763 21.976V22.048C206.763 22.624 206.587 23.084 206.235 23.428C205.891 23.772 205.431 23.944 204.855 23.944ZM204.855 23.248C205.191 23.248 205.459 23.14 205.659 22.924C205.859 22.708 205.959 22.428 205.959 22.084V21.94C205.959 21.588 205.859 21.308 205.659 21.1C205.459 20.884 205.191 20.776 204.855 20.776C204.511 20.776 204.239 20.884 204.039 21.1C203.847 21.308 203.751 21.588 203.751 21.94V22.084C203.751 22.428 203.847 22.708 204.039 22.924C204.239 23.14 204.511 23.248 204.855 23.248Z" fill="white"></path>
<path d="M37.3424 61.0887V52.6887H39.2624L41.4944 60.4527H41.6504L43.8824 52.6887H45.8024V61.0887H44.8304V53.3487H44.6624L42.4424 61.0887H40.7024L38.4824 53.3487H38.3144V61.0887H37.3424ZM49.4968 61.2567C49.0888 61.2567 48.7168 61.1847 48.3808 61.0407C48.0448 60.8967 47.7808 60.6887 47.5888 60.4167C47.3968 60.1447 47.3008 59.8127 47.3008 59.4207C47.3008 59.0207 47.3968 58.6927 47.5888 58.4367C47.7808 58.1727 48.0448 57.9767 48.3808 57.8487C48.7168 57.7127 49.0928 57.6447 49.5088 57.6447H51.4888V57.2127C51.4888 56.7967 51.3648 56.4687 51.1168 56.2287C50.8768 55.9887 50.5168 55.8687 50.0368 55.8687C49.5648 55.8687 49.1968 55.9847 48.9328 56.2167C48.6688 56.4407 48.4888 56.7447 48.3928 57.1287L47.5048 56.8407C47.6008 56.5127 47.7528 56.2167 47.9608 55.9527C48.1688 55.6807 48.4448 55.4647 48.7888 55.3047C49.1408 55.1367 49.5608 55.0527 50.0488 55.0527C50.8008 55.0527 51.3848 55.2487 51.8008 55.6407C52.2168 56.0247 52.4248 56.5687 52.4248 57.2727V59.9247C52.4248 60.1647 52.5368 60.2847 52.7608 60.2847H53.3008V61.0887H52.4728C52.2088 61.0887 51.9968 61.0167 51.8368 60.8727C51.6768 60.7207 51.5968 60.5207 51.5968 60.2727V60.2127H51.4528C51.3648 60.3647 51.2448 60.5247 51.0928 60.6927C50.9488 60.8527 50.7488 60.9847 50.4928 61.0887C50.2368 61.2007 49.9048 61.2567 49.4968 61.2567ZM49.6048 60.4407C50.1648 60.4407 50.6168 60.2767 50.9608 59.9487C51.3128 59.6127 51.4888 59.1447 51.4888 58.5447V58.4127H49.5448C49.1688 58.4127 48.8568 58.4967 48.6088 58.6647C48.3688 58.8247 48.2488 59.0687 48.2488 59.3967C48.2488 59.7247 48.3728 59.9807 48.6208 60.1647C48.8768 60.3487 49.2048 60.4407 49.6048 60.4407ZM54.5348 61.0887V55.2207H55.4588V55.9407H55.6268C55.7308 55.6847 55.8908 55.4967 56.1068 55.3767C56.3228 55.2567 56.6068 55.1967 56.9588 55.1967H57.6548V56.0607H56.8988C56.4748 56.0607 56.1308 56.1807 55.8668 56.4207C55.6108 56.6527 55.4828 57.0167 55.4828 57.5127V61.0887H54.5348ZM58.9938 61.0887V52.6887H59.9418V57.6327H60.1098L62.7978 55.2207H64.1178L60.8658 58.0767L64.2138 61.0887H62.9058L60.1098 58.5327H59.9418V61.0887H58.9938ZM67.7581 61.2567C67.1661 61.2567 66.6461 61.1327 66.1981 60.8847C65.7501 60.6287 65.4021 60.2727 65.1541 59.8167C64.9061 59.3607 64.7821 58.8327 64.7821 58.2327V58.0887C64.7821 57.4807 64.9061 56.9487 65.1541 56.4927C65.4021 56.0367 65.7461 55.6847 66.1861 55.4367C66.6261 55.1807 67.1301 55.0527 67.6981 55.0527C68.2501 55.0527 68.7381 55.1727 69.1621 55.4127C69.5861 55.6447 69.9181 55.9807 70.1581 56.4207C70.3981 56.8607 70.5181 57.3767 70.5181 57.9687V58.4007H65.7301C65.7541 59.0327 65.9581 59.5287 66.3421 59.8887C66.7261 60.2407 67.2061 60.4167 67.7821 60.4167C68.2861 60.4167 68.6741 60.3007 68.9461 60.0687C69.2181 59.8367 69.4261 59.5607 69.5701 59.2407L70.3861 59.6367C70.2661 59.8847 70.0981 60.1327 69.8821 60.3807C69.6741 60.6287 69.3981 60.8367 69.0541 61.0047C68.7181 61.1727 68.2861 61.2567 67.7581 61.2567ZM65.7421 57.6207H69.5581C69.5261 57.0767 69.3381 56.6527 68.9941 56.3487C68.6581 56.0447 68.2261 55.8927 67.6981 55.8927C67.1621 55.8927 66.7221 56.0447 66.3781 56.3487C66.0341 56.6527 65.8221 57.0767 65.7421 57.6207ZM74.0211 61.0887C73.6851 61.0887 73.4251 60.9967 73.2411 60.8127C73.0651 60.6287 72.9771 60.3767 72.9771 60.0567V56.0487H71.2131V55.2207H72.9771V53.1327H73.9251V55.2207H75.8451V56.0487H73.9251V59.9127C73.9251 60.1527 74.0411 60.2727 74.2731 60.2727H75.5811V61.0887H74.0211ZM77.3163 61.0887V55.2207H78.2643V61.0887H77.3163ZM77.7963 54.3087C77.5883 54.3087 77.4123 54.2407 77.2683 54.1047C77.1323 53.9687 77.0643 53.7967 77.0643 53.5887C77.0643 53.3727 77.1323 53.1967 77.2683 53.0607C77.4123 52.9247 77.5883 52.8567 77.7963 52.8567C78.0043 52.8567 78.1763 52.9247 78.3123 53.0607C78.4483 53.1967 78.5163 53.3727 78.5163 53.5887C78.5163 53.7967 78.4483 53.9687 78.3123 54.1047C78.1763 54.2407 78.0043 54.3087 77.7963 54.3087ZM80.1933 61.0887V55.2207H81.1173V56.2167H81.2853C81.4133 55.9367 81.6293 55.6847 81.9333 55.4607C82.2453 55.2287 82.7013 55.1127 83.3013 55.1127C83.7413 55.1127 84.1333 55.2047 84.4773 55.3887C84.8293 55.5727 85.1093 55.8447 85.3173 56.2047C85.5253 56.5647 85.6293 57.0087 85.6293 57.5367V61.0887H84.6813V57.6087C84.6813 57.0247 84.5333 56.6007 84.2373 56.3367C83.9493 56.0727 83.5573 55.9407 83.0613 55.9407C82.4933 55.9407 82.0293 56.1247 81.6693 56.4927C81.3173 56.8607 81.1413 57.4087 81.1413 58.1367V61.0887H80.1933ZM87.2003 58.1847V58.0167C87.2003 57.4007 87.3243 56.8727 87.5723 56.4327C87.8203 55.9927 88.1563 55.6527 88.5803 55.4127C89.0043 55.1727 89.4683 55.0527 89.9723 55.0527C90.5883 55.0527 91.0603 55.1727 91.3883 55.4127C91.7243 55.6447 91.9723 55.9047 92.1323 56.1927H92.3003V55.2207H93.2003V62.4567C93.2003 62.7767 93.1123 63.0287 92.9363 63.2127C92.7603 63.3967 92.5043 63.4887 92.1683 63.4887H88.1843V62.6487H91.9163C92.1563 62.6487 92.2763 62.5287 92.2763 62.2887V60.0567H92.1083C92.0123 60.2327 91.8763 60.4047 91.7003 60.5727C91.5243 60.7407 91.2963 60.8807 91.0163 60.9927C90.7363 61.0967 90.3883 61.1487 89.9723 61.1487C89.4683 61.1487 89.0043 61.0287 88.5803 60.7887C88.1563 60.5487 87.8203 60.2087 87.5723 59.7687C87.3243 59.3207 87.2003 58.7927 87.2003 58.1847ZM90.2243 60.3087C90.8323 60.3087 91.3243 60.1167 91.7003 59.7327C92.0843 59.3487 92.2763 58.8207 92.2763 58.1487V58.0527C92.2763 57.3727 92.0843 56.8447 91.7003 56.4687C91.3243 56.0847 90.8323 55.8927 90.2243 55.8927C89.6243 55.8927 89.1283 56.0847 88.7363 56.4687C88.3523 56.8447 88.1603 57.3727 88.1603 58.0527V58.1487C88.1603 58.8207 88.3523 59.3487 88.7363 59.7327C89.1283 60.1167 89.6243 60.3087 90.2243 60.3087Z" fill="white"></path>
<path d="M173.694 61.269C173.445 61.269 173.235 61.1875 173.063 61.0244C172.9 60.8612 172.818 60.6509 172.818 60.3934C172.818 60.1358 172.9 59.9255 173.063 59.7624C173.235 59.5993 173.445 59.5177 173.694 59.5177C173.952 59.5177 174.162 59.5993 174.325 59.7624C174.488 59.9255 174.57 60.1358 174.57 60.3934C174.57 60.6509 174.488 60.8612 174.325 61.0244C174.162 61.1875 173.952 61.269 173.694 61.269ZM173.694 56.3628C173.445 56.3628 173.235 56.2812 173.063 56.1181C172.9 55.955 172.818 55.7447 172.818 55.4871C172.818 55.2296 172.9 55.0193 173.063 54.8561C173.235 54.693 173.445 54.6115 173.694 54.6115C173.952 54.6115 174.162 54.693 174.325 54.8561C174.488 55.0193 174.57 55.2296 174.57 55.4871C174.57 55.7447 174.488 55.955 174.325 56.1181C174.162 56.2812 173.952 56.3628 173.694 56.3628Z" fill="white"></path>
<path d="M191.854 61.2567C191.238 61.2567 190.706 61.1407 190.258 60.9087C189.81 60.6687 189.462 60.3407 189.214 59.9247C188.966 59.5007 188.842 59.0127 188.842 58.4607V58.3167H189.814V58.4247C189.814 59.0567 189.998 59.5407 190.366 59.8767C190.734 60.2127 191.222 60.3807 191.83 60.3807C192.47 60.3807 192.97 60.2007 193.33 59.8407C193.69 59.4807 193.87 58.9887 193.87 58.3647V58.2567C193.87 57.6567 193.694 57.1807 193.342 56.8287C192.998 56.4687 192.55 56.2887 191.998 56.2887C191.678 56.2887 191.414 56.3407 191.206 56.4447C190.998 56.5407 190.834 56.6647 190.714 56.8167C190.594 56.9607 190.494 57.1007 190.414 57.2367H189.094V52.6887H194.614V53.5647H190.066V56.4687H190.234C190.322 56.3087 190.442 56.1527 190.594 56.0007C190.754 55.8487 190.966 55.7207 191.23 55.6167C191.494 55.5127 191.822 55.4607 192.214 55.4607C192.702 55.4607 193.142 55.5727 193.534 55.7967C193.934 56.0207 194.25 56.3407 194.482 56.7567C194.722 57.1727 194.842 57.6687 194.842 58.2447V58.3767C194.842 58.9447 194.722 59.4447 194.482 59.8767C194.242 60.3087 193.898 60.6487 193.45 60.8967C193.002 61.1367 192.47 61.2567 191.854 61.2567ZM196.97 61.2567L196.322 60.7407L203.006 52.5207L203.642 53.0367L196.97 61.2567ZM202.298 61.2447C201.714 61.2447 201.246 61.0767 200.894 60.7407C200.55 60.3967 200.378 59.9327 200.378 59.3487V59.2767C200.378 58.6927 200.55 58.2327 200.894 57.8967C201.246 57.5527 201.714 57.3807 202.298 57.3807C202.866 57.3807 203.326 57.5527 203.678 57.8967C204.03 58.2327 204.206 58.6927 204.206 59.2767V59.3487C204.206 59.9327 204.03 60.3967 203.678 60.7407C203.334 61.0767 202.874 61.2447 202.298 61.2447ZM202.298 60.5487C202.634 60.5487 202.898 60.4407 203.09 60.2247C203.29 60.0087 203.39 59.7287 203.39 59.3847V59.2407C203.39 58.8887 203.29 58.6087 203.09 58.4007C202.898 58.1847 202.634 58.0767 202.298 58.0767C201.954 58.0767 201.682 58.1847 201.482 58.4007C201.29 58.6087 201.194 58.8887 201.194 59.2407V59.3847C201.194 59.7287 201.29 60.0087 201.482 60.2247C201.682 60.4407 201.954 60.5487 202.298 60.5487ZM197.678 56.3967C197.094 56.3967 196.63 56.2247 196.286 55.8807C195.942 55.5367 195.77 55.0767 195.77 54.5007V54.4287C195.77 53.8447 195.942 53.3847 196.286 53.0487C196.63 52.7047 197.094 52.5327 197.678 52.5327C198.254 52.5327 198.714 52.7047 199.058 53.0487C199.41 53.3847 199.586 53.8447 199.586 54.4287V54.5007C199.586 55.0767 199.41 55.5367 199.058 55.8807C198.714 56.2247 198.254 56.3967 197.678 56.3967ZM197.678 55.7007C198.014 55.7007 198.282 55.5927 198.482 55.3767C198.682 55.1607 198.782 54.8807 198.782 54.5367V54.3927C198.782 54.0407 198.682 53.7607 198.482 53.5527C198.282 53.3367 198.014 53.2287 197.678 53.2287C197.334 53.2287 197.062 53.3367 196.862 53.5527C196.67 53.7607 196.574 54.0407 196.574 54.3927V54.5367C196.574 54.8807 196.67 55.1607 196.862 55.3767C197.062 55.5927 197.334 55.7007 197.678 55.7007Z" fill="white"></path>
<path d="M37.3424 93.5415V85.1415H38.3504V92.6295H42.5984V93.5415H37.3424ZM43.8648 93.5415V87.6735H44.8128V93.5415H43.8648ZM44.3448 86.7615C44.1368 86.7615 43.9608 86.6935 43.8168 86.5575C43.6808 86.4215 43.6128 86.2495 43.6128 86.0415C43.6128 85.8255 43.6808 85.6495 43.8168 85.5135C43.9608 85.3775 44.1368 85.3095 44.3448 85.3095C44.5528 85.3095 44.7248 85.3775 44.8608 85.5135C44.9968 85.6495 45.0648 85.8255 45.0648 86.0415C45.0648 86.2495 44.9968 86.4215 44.8608 86.5575C44.7248 86.6935 44.5528 86.7615 44.3448 86.7615ZM51.5298 95.9415V92.6175H51.3618C51.2658 92.7935 51.1298 92.9655 50.9538 93.1335C50.7778 93.3015 50.5458 93.4375 50.2578 93.5415C49.9778 93.6535 49.6338 93.7095 49.2258 93.7095C48.7138 93.7095 48.2458 93.5895 47.8218 93.3495C47.4058 93.1095 47.0738 92.7615 46.8258 92.3055C46.5778 91.8495 46.4538 91.3095 46.4538 90.6855V90.5295C46.4538 89.8975 46.5778 89.3575 46.8258 88.9095C47.0738 88.4615 47.4098 88.1175 47.8338 87.8775C48.2578 87.6295 48.7218 87.5055 49.2258 87.5055C49.8338 87.5055 50.3058 87.6215 50.6418 87.8535C50.9778 88.0855 51.2258 88.3495 51.3858 88.6455H51.5538V87.6735H52.4778V95.9415H51.5298ZM49.4778 92.8695C50.0858 92.8695 50.5778 92.6775 50.9538 92.2935C51.3378 91.9015 51.5298 91.3575 51.5298 90.6615V90.5535C51.5298 89.8575 51.3378 89.3175 50.9538 88.9335C50.5778 88.5415 50.0858 88.3455 49.4778 88.3455C48.8778 88.3455 48.3818 88.5415 47.9898 88.9335C47.6058 89.3175 47.4138 89.8575 47.4138 90.5535V90.6615C47.4138 91.3575 47.6058 91.9015 47.9898 92.2935C48.3818 92.6775 48.8778 92.8695 49.4778 92.8695ZM56.6441 93.6495C56.2201 93.6495 55.8281 93.5575 55.4681 93.3735C55.1161 93.1895 54.8361 92.9175 54.6281 92.5575C54.4281 92.1895 54.3281 91.7455 54.3281 91.2255V87.6735H55.2761V91.1535C55.2761 91.7375 55.4201 92.1615 55.7081 92.4255C56.0041 92.6895 56.4001 92.8215 56.8961 92.8215C57.4561 92.8215 57.9161 92.6375 58.2761 92.2695C58.6361 91.9015 58.8161 91.3535 58.8161 90.6255V87.6735H59.7641V93.5415H58.8401V92.5455H58.6721C58.5441 92.8255 58.3241 93.0815 58.0121 93.3135C57.7001 93.5375 57.2441 93.6495 56.6441 93.6495ZM61.6833 93.5415V87.6735H62.6313V93.5415H61.6833ZM62.1633 86.7615C61.9553 86.7615 61.7793 86.6935 61.6353 86.5575C61.4993 86.4215 61.4313 86.2495 61.4313 86.0415C61.4313 85.8255 61.4993 85.6495 61.6353 85.5135C61.7793 85.3775 61.9553 85.3095 62.1633 85.3095C62.3713 85.3095 62.5433 85.3775 62.6793 85.5135C62.8153 85.6495 62.8833 85.8255 62.8833 86.0415C62.8833 86.2495 62.8153 86.4215 62.6793 86.5575C62.5433 86.6935 62.3713 86.7615 62.1633 86.7615ZM67.0444 93.7095C66.5404 93.7095 66.0764 93.5895 65.6524 93.3495C65.2284 93.1095 64.8924 92.7615 64.6444 92.3055C64.3964 91.8495 64.2724 91.3095 64.2724 90.6855V90.5295C64.2724 89.9055 64.3964 89.3695 64.6444 88.9215C64.8924 88.4655 65.2244 88.1175 65.6404 87.8775C66.0644 87.6295 66.5324 87.5055 67.0444 87.5055C67.4524 87.5055 67.7964 87.5615 68.0764 87.6735C68.3644 87.7775 68.5964 87.9135 68.7724 88.0815C68.9484 88.2415 69.0844 88.4135 69.1804 88.5975H69.3484V85.1415H70.2964V93.5415H69.3724V92.5695H69.2044C69.0444 92.8655 68.7964 93.1295 68.4604 93.3615C68.1244 93.5935 67.6524 93.7095 67.0444 93.7095ZM67.2964 92.8695C67.9044 92.8695 68.3964 92.6775 68.7724 92.2935C69.1564 91.9015 69.3484 91.3575 69.3484 90.6615V90.5535C69.3484 89.8575 69.1564 89.3175 68.7724 88.9335C68.3964 88.5415 67.9044 88.3455 67.2964 88.3455C66.6964 88.3455 66.2004 88.5415 65.8084 88.9335C65.4244 89.3175 65.2324 89.8575 65.2324 90.5535V90.6615C65.2324 91.3575 65.4244 91.9015 65.8084 92.2935C66.2004 92.6775 66.6964 92.8695 67.2964 92.8695ZM72.2186 93.5415V87.6735H73.1666V93.5415H72.2186ZM72.6986 86.7615C72.4906 86.7615 72.3146 86.6935 72.1706 86.5575C72.0346 86.4215 71.9666 86.2495 71.9666 86.0415C71.9666 85.8255 72.0346 85.6495 72.1706 85.5135C72.3146 85.3775 72.4906 85.3095 72.6986 85.3095C72.9066 85.3095 73.0786 85.3775 73.2146 85.5135C73.3506 85.6495 73.4186 85.8255 73.4186 86.0415C73.4186 86.2495 73.3506 86.4215 73.2146 86.5575C73.0786 86.6935 72.9066 86.7615 72.6986 86.7615ZM77.2556 93.5415C76.9196 93.5415 76.6596 93.4495 76.4756 93.2655C76.2996 93.0815 76.2116 92.8295 76.2116 92.5095V88.5015H74.4476V87.6735H76.2116V85.5855H77.1596V87.6735H79.0796V88.5015H77.1596V92.3655C77.1596 92.6055 77.2756 92.7255 77.5076 92.7255H78.8156V93.5415H77.2556ZM81.2588 95.9415V95.1015H84.6188C84.8508 95.1015 84.9668 94.9815 84.9668 94.7415V92.6055H84.7988C84.7188 92.7735 84.5948 92.9415 84.4268 93.1095C84.2668 93.2695 84.0548 93.4015 83.7908 93.5055C83.5268 93.6015 83.1948 93.6495 82.7948 93.6495C82.3708 93.6495 81.9788 93.5575 81.6188 93.3735C81.2668 93.1895 80.9868 92.9175 80.7788 92.5575C80.5788 92.1975 80.4788 91.7575 80.4788 91.2375V87.6735H81.4268V91.1655C81.4268 91.7415 81.5708 92.1615 81.8588 92.4255C82.1548 92.6895 82.5508 92.8215 83.0468 92.8215C83.6068 92.8215 84.0668 92.6375 84.4268 92.2695C84.7868 91.9015 84.9668 91.3535 84.9668 90.6255V87.6735H85.9148V94.9095C85.9148 95.2295 85.8228 95.4815 85.6388 95.6655C85.4628 95.8495 85.2028 95.9415 84.8588 95.9415H81.2588ZM90.8157 93.5415V85.1415H94.0317C94.5357 85.1415 94.9837 85.2415 95.3757 85.4415C95.7757 85.6335 96.0917 85.9095 96.3237 86.2695C96.5557 86.6295 96.6717 87.0655 96.6717 87.5775V87.7335C96.6717 88.2375 96.5517 88.6735 96.3117 89.0415C96.0797 89.4015 95.7637 89.6775 95.3637 89.8695C94.9637 90.0615 94.5197 90.1575 94.0317 90.1575H91.8237V93.5415H90.8157ZM91.8237 89.2455H93.9237C94.4597 89.2455 94.8837 89.1135 95.1957 88.8495C95.5077 88.5775 95.6637 88.1975 95.6637 87.7095V87.5895C95.6637 87.1015 95.5077 86.7255 95.1957 86.4615C94.8917 86.1895 94.4677 86.0535 93.9237 86.0535H91.8237V89.2455ZM100.519 93.7095C99.9269 93.7095 99.4029 93.5855 98.9469 93.3375C98.4989 93.0895 98.1469 92.7415 97.8909 92.2935C97.6429 91.8375 97.5189 91.3015 97.5189 90.6855V90.5295C97.5189 89.9215 97.6429 89.3895 97.8909 88.9335C98.1469 88.4775 98.4989 88.1255 98.9469 87.8775C99.4029 87.6295 99.9269 87.5055 100.519 87.5055C101.111 87.5055 101.631 87.6295 102.079 87.8775C102.535 88.1255 102.887 88.4775 103.135 88.9335C103.391 89.3895 103.519 89.9215 103.519 90.5295V90.6855C103.519 91.3015 103.391 91.8375 103.135 92.2935C102.887 92.7415 102.535 93.0895 102.079 93.3375C101.631 93.5855 101.111 93.7095 100.519 93.7095ZM100.519 92.8575C101.143 92.8575 101.639 92.6615 102.007 92.2695C102.383 91.8695 102.571 91.3335 102.571 90.6615V90.5535C102.571 89.8815 102.383 89.3495 102.007 88.9575C101.639 88.5575 101.143 88.3575 100.519 88.3575C99.9029 88.3575 99.4069 88.5575 99.0309 88.9575C98.6549 89.3495 98.4669 89.8815 98.4669 90.5535V90.6615C98.4669 91.3335 98.6549 91.8695 99.0309 92.2695C99.4069 92.6615 99.9029 92.8575 100.519 92.8575ZM107.872 93.7095C107.28 93.7095 106.756 93.5855 106.3 93.3375C105.852 93.0895 105.5 92.7415 105.244 92.2935C104.996 91.8375 104.872 91.3015 104.872 90.6855V90.5295C104.872 89.9215 104.996 89.3895 105.244 88.9335C105.5 88.4775 105.852 88.1255 106.3 87.8775C106.756 87.6295 107.28 87.5055 107.872 87.5055C108.464 87.5055 108.984 87.6295 109.432 87.8775C109.888 88.1255 110.24 88.4775 110.488 88.9335C110.744 89.3895 110.872 89.9215 110.872 90.5295V90.6855C110.872 91.3015 110.744 91.8375 110.488 92.2935C110.24 92.7415 109.888 93.0895 109.432 93.3375C108.984 93.5855 108.464 93.7095 107.872 93.7095ZM107.872 92.8575C108.496 92.8575 108.992 92.6615 109.36 92.2695C109.736 91.8695 109.924 91.3335 109.924 90.6615V90.5535C109.924 89.8815 109.736 89.3495 109.36 88.9575C108.992 88.5575 108.496 88.3575 107.872 88.3575C107.256 88.3575 106.76 88.5575 106.384 88.9575C106.008 89.3495 105.82 89.8815 105.82 90.5535V90.6615C105.82 91.3335 106.008 91.8695 106.384 92.2695C106.76 92.6615 107.256 92.8575 107.872 92.8575ZM112.514 93.5415V85.1415H113.462V93.5415H112.514Z" fill="white"></path>
<path d="M173.694 93.7218C173.445 93.7218 173.235 93.6402 173.063 93.4771C172.9 93.314 172.818 93.1037 172.818 92.8461C172.818 92.5886 172.9 92.3782 173.063 92.2151C173.235 92.052 173.445 91.9705 173.694 91.9705C173.952 91.9705 174.162 92.052 174.325 92.2151C174.488 92.3782 174.57 92.5886 174.57 92.8461C174.57 93.1037 174.488 93.314 174.325 93.4771C174.162 93.6402 173.952 93.7218 173.694 93.7218ZM173.694 88.8155C173.445 88.8155 173.235 88.734 173.063 88.5709C172.9 88.4077 172.818 88.1974 172.818 87.9399C172.818 87.6823 172.9 87.472 173.063 87.3089C173.235 87.1458 173.445 87.0642 173.694 87.0642C173.952 87.0642 174.162 87.1458 174.325 87.3089C174.488 87.472 174.57 87.6823 174.57 87.9399C174.57 88.1974 174.488 88.4077 174.325 88.5709C174.162 88.734 173.952 88.8155 173.694 88.8155Z" fill="white"></path>
<path d="M191.818 93.7095C191.202 93.7095 190.674 93.6015 190.234 93.3855C189.802 93.1615 189.474 92.8575 189.25 92.4735C189.026 92.0895 188.914 91.6535 188.914 91.1655H189.886C189.886 91.6615 190.05 92.0655 190.378 92.3775C190.706 92.6815 191.186 92.8335 191.818 92.8335C192.482 92.8335 192.99 92.6575 193.342 92.3055C193.702 91.9455 193.882 91.4535 193.882 90.8295V89.6655H193.726C193.574 89.9055 193.33 90.1295 192.994 90.3375C192.666 90.5375 192.202 90.6375 191.602 90.6375C191.098 90.6375 190.634 90.5255 190.21 90.3015C189.794 90.0775 189.462 89.7615 189.214 89.3535C188.966 88.9455 188.842 88.4615 188.842 87.9015V87.7575C188.842 87.1815 188.974 86.6895 189.238 86.2815C189.502 85.8655 189.858 85.5455 190.306 85.3215C190.762 85.0895 191.278 84.9735 191.854 84.9735C192.438 84.9735 192.954 85.0895 193.402 85.3215C193.858 85.5455 194.214 85.8695 194.47 86.2935C194.726 86.7095 194.854 87.2135 194.854 87.8055V90.7335C194.854 91.3575 194.73 91.8935 194.482 92.3415C194.242 92.7815 193.894 93.1215 193.438 93.3615C192.982 93.5935 192.442 93.7095 191.818 93.7095ZM191.854 89.8215C192.254 89.8215 192.606 89.7415 192.91 89.5815C193.214 89.4135 193.45 89.1855 193.618 88.8975C193.794 88.6015 193.882 88.2575 193.882 87.8655V87.7695C193.882 87.1695 193.694 86.7015 193.318 86.3655C192.95 86.0215 192.462 85.8495 191.854 85.8495C191.246 85.8495 190.754 86.0215 190.378 86.3655C190.002 86.7015 189.814 87.1695 189.814 87.7695V87.8655C189.814 88.2575 189.898 88.6015 190.066 88.8975C190.242 89.1855 190.482 89.4135 190.786 89.5815C191.098 89.7415 191.454 89.8215 191.854 89.8215ZM199.354 93.7095C198.402 93.7095 197.642 93.4295 197.074 92.8695C196.514 92.3015 196.234 91.4535 196.234 90.3255V88.3575C196.234 87.2375 196.514 86.3935 197.074 85.8255C197.642 85.2575 198.402 84.9735 199.354 84.9735C200.314 84.9735 201.074 85.2575 201.634 85.8255C202.202 86.3935 202.486 87.2375 202.486 88.3575V90.3255C202.486 91.4535 202.202 92.3015 201.634 92.8695C201.074 93.4295 200.314 93.7095 199.354 93.7095ZM199.354 92.8335C200.074 92.8335 200.614 92.6175 200.974 92.1855C201.334 91.7535 201.514 91.1495 201.514 90.3735V88.2975C201.514 87.5215 201.33 86.9215 200.962 86.4975C200.594 86.0655 200.058 85.8495 199.354 85.8495C198.65 85.8495 198.114 86.0655 197.746 86.4975C197.386 86.9295 197.206 87.5295 197.206 88.2975V90.3735C197.206 91.1575 197.386 91.7655 197.746 92.1975C198.106 92.6215 198.642 92.8335 199.354 92.8335ZM204.757 93.7095L204.109 93.1935L210.793 84.9735L211.429 85.4895L204.757 93.7095ZM210.085 93.6975C209.501 93.6975 209.033 93.5295 208.681 93.1935C208.337 92.8495 208.165 92.3855 208.165 91.8015V91.7295C208.165 91.1455 208.337 90.6855 208.681 90.3495C209.033 90.0055 209.501 89.8335 210.085 89.8335C210.653 89.8335 211.113 90.0055 211.465 90.3495C211.817 90.6855 211.993 91.1455 211.993 91.7295V91.8015C211.993 92.3855 211.817 92.8495 211.465 93.1935C211.121 93.5295 210.661 93.6975 210.085 93.6975ZM210.085 93.0015C210.421 93.0015 210.685 92.8935 210.877 92.6775C211.077 92.4615 211.177 92.1815 211.177 91.8375V91.6935C211.177 91.3415 211.077 91.0615 210.877 90.8535C210.685 90.6375 210.421 90.5295 210.085 90.5295C209.741 90.5295 209.469 90.6375 209.269 90.8535C209.077 91.0615 208.981 91.3415 208.981 91.6935V91.8375C208.981 92.1815 209.077 92.4615 209.269 92.6775C209.469 92.8935 209.741 93.0015 210.085 93.0015ZM205.465 88.8495C204.881 88.8495 204.417 88.6775 204.073 88.3335C203.729 87.9895 203.557 87.5295 203.557 86.9535V86.8815C203.557 86.2975 203.729 85.8375 204.073 85.5015C204.417 85.1575 204.881 84.9855 205.465 84.9855C206.041 84.9855 206.501 85.1575 206.845 85.5015C207.197 85.8375 207.373 86.2975 207.373 86.8815V86.9535C207.373 87.5295 207.197 87.9895 206.845 88.3335C206.501 88.6775 206.041 88.8495 205.465 88.8495ZM205.465 88.1535C205.801 88.1535 206.069 88.0455 206.269 87.8295C206.469 87.6135 206.569 87.3335 206.569 86.9895V86.8455C206.569 86.4935 206.469 86.2135 206.269 86.0055C206.069 85.7895 205.801 85.6815 205.465 85.6815C205.121 85.6815 204.849 85.7895 204.649 86.0055C204.457 86.2135 204.361 86.4935 204.361 86.8455V86.9895C204.361 87.3335 204.457 87.6135 204.649 87.8295C204.849 88.0455 205.121 88.1535 205.465 88.1535Z" fill="white"></path>
</g>
<defs>
<filter id="filter0_b_1_1620" x="-9.78268" y="-9.92539" width="369.565" height="133.028" filterUnits="userSpaceOnUse" color-interpolation-filters="sRGB">
<feFlood flood-opacity="0" result="BackgroundImageFix"></feFlood>
<feGaussianBlur in="BackgroundImageFix" stdDeviation="5.05433"></feGaussianBlur>
<feComposite in2="SourceAlpha" operator="in" result="effect1_backgroundBlur_1_1620"></feComposite>
<feBlend mode="normal" in="SourceGraphic" in2="effect1_backgroundBlur_1_1620" result="shape"></feBlend>
</filter>
</defs>
</svg>