<svg width="350" height="211" viewBox="0 0 350 211" fill="none" xmlns="http://www.w3.org/2000/svg">
<g filter="url(#filter0_b_1_1595)">
<rect x="0.325989" width="349.348" height="210.169" rx="12.8773" fill="#0C2B2F" fill-opacity="0.7"></rect>
<path d="M37.3424 28.4527V20.0527H39.2984L42.2264 27.8167H42.3824V20.0527H43.3784V28.4527H41.4224L38.5064 20.6767H38.3384V28.4527H37.3424ZM47.0827 28.6207C46.6747 28.6207 46.3027 28.5487 45.9667 28.4047C45.6307 28.2607 45.3667 28.0527 45.1747 27.7807C44.9827 27.5087 44.8867 27.1767 44.8867 26.7847C44.8867 26.3847 44.9827 26.0567 45.1747 25.8007C45.3667 25.5367 45.6307 25.3407 45.9667 25.2127C46.3027 25.0767 46.6787 25.0087 47.0947 25.0087H49.0747V24.5767C49.0747 24.1607 48.9507 23.8327 48.7027 23.5927C48.4627 23.3527 48.1027 23.2327 47.6227 23.2327C47.1507 23.2327 46.7827 23.3487 46.5187 23.5807C46.2547 23.8047 46.0747 24.1087 45.9787 24.4927L45.0907 24.2047C45.1867 23.8767 45.3387 23.5807 45.5467 23.3167C45.7547 23.0447 46.0307 22.8287 46.3747 22.6687C46.7267 22.5007 47.1467 22.4167 47.6347 22.4167C48.3867 22.4167 48.9707 22.6127 49.3867 23.0047C49.8027 23.3887 50.0107 23.9327 50.0107 24.6367V27.2887C50.0107 27.5287 50.1227 27.6487 50.3467 27.6487H50.8867V28.4527H50.0587C49.7947 28.4527 49.5827 28.3807 49.4227 28.2367C49.2627 28.0847 49.1827 27.8847 49.1827 27.6367V27.5767H49.0387C48.9507 27.7287 48.8307 27.8887 48.6787 28.0567C48.5347 28.2167 48.3347 28.3487 48.0787 28.4527C47.8227 28.5647 47.4907 28.6207 47.0827 28.6207ZM47.1907 27.8047C47.7507 27.8047 48.2027 27.6407 48.5467 27.3127C48.8987 26.9767 49.0747 26.5087 49.0747 25.9087V25.7767H47.1307C46.7547 25.7767 46.4427 25.8607 46.1947 26.0287C45.9547 26.1887 45.8347 26.4327 45.8347 26.7607C45.8347 27.0887 45.9587 27.3447 46.2067 27.5287C46.4627 27.7127 46.7907 27.8047 47.1907 27.8047ZM52.1207 28.4527V22.5847H53.0447V23.3167H53.2127C53.3247 23.1087 53.5087 22.9167 53.7647 22.7407C54.0207 22.5647 54.3807 22.4767 54.8447 22.4767C55.3007 22.4767 55.6687 22.5767 55.9487 22.7767C56.2367 22.9767 56.4447 23.2207 56.5727 23.5087H56.7407C56.8767 23.2207 57.0807 22.9767 57.3527 22.7767C57.6327 22.5767 58.0207 22.4767 58.5167 22.4767C58.9087 22.4767 59.2527 22.5567 59.5487 22.7167C59.8447 22.8767 60.0767 23.1087 60.2447 23.4127C60.4207 23.7087 60.5087 24.0647 60.5087 24.4807V28.4527H59.5607V24.5647C59.5607 24.1727 59.4447 23.8647 59.2127 23.6407C58.9887 23.4087 58.6727 23.2927 58.2647 23.2927C57.8327 23.2927 57.4767 23.4327 57.1967 23.7127C56.9247 23.9927 56.7887 24.3967 56.7887 24.9247V28.4527H55.8407V24.5647C55.8407 24.1727 55.7247 23.8647 55.4927 23.6407C55.2687 23.4087 54.9527 23.2927 54.5447 23.2927C54.1127 23.2927 53.7567 23.4327 53.4767 23.7127C53.2047 23.9927 53.0687 24.3967 53.0687 24.9247V28.4527H52.1207ZM65.0685 28.6207C64.4765 28.6207 63.9565 28.4967 63.5085 28.2487C63.0605 27.9927 62.7125 27.6367 62.4645 27.1807C62.2165 26.7247 62.0925 26.1967 62.0925 25.5967V25.4527C62.0925 24.8447 62.2165 24.3127 62.4645 23.8567C62.7125 23.4007 63.0565 23.0487 63.4965 22.8007C63.9365 22.5447 64.4405 22.4167 65.0085 22.4167C65.5605 22.4167 66.0485 22.5367 66.4725 22.7767C66.8965 23.0087 67.2285 23.3447 67.4685 23.7847C67.7085 24.2247 67.8285 24.7407 67.8285 25.3327V25.7647H63.0405C63.0645 26.3967 63.2685 26.8927 63.6525 27.2527C64.0365 27.6047 64.5165 27.7807 65.0925 27.7807C65.5965 27.7807 65.9845 27.6647 66.2565 27.4327C66.5285 27.2007 66.7365 26.9247 66.8805 26.6047L67.6965 27.0007C67.5765 27.2487 67.4085 27.4967 67.1925 27.7447C66.9845 27.9927 66.7085 28.2007 66.3645 28.3687C66.0285 28.5367 65.5965 28.6207 65.0685 28.6207ZM63.0525 24.9847H66.8685C66.8365 24.4407 66.6485 24.0167 66.3045 23.7127C65.9685 23.4087 65.5365 23.2567 65.0085 23.2567C64.4725 23.2567 64.0325 23.4087 63.6885 23.7127C63.3445 24.0167 63.1325 24.4407 63.0525 24.9847Z" fill="white"></path>
<path d="M173.694 28.633C173.445 28.633 173.235 28.5515 173.063 28.3884C172.9 28.2252 172.818 28.0149 172.818 27.7574C172.818 27.4998 172.9 27.2895 173.063 27.1264C173.235 26.9633 173.445 26.8817 173.694 26.8817C173.952 26.8817 174.162 26.9633 174.325 27.1264C174.488 27.2895 174.57 27.4998 174.57 27.7574C174.57 28.0149 174.488 28.2252 174.325 28.3884C174.162 28.5515 173.952 28.633 173.694 28.633ZM173.694 23.7268C173.445 23.7268 173.235 23.6452 173.063 23.4821C172.9 23.319 172.818 23.1087 172.818 22.8511C172.818 22.5936 172.9 22.3833 173.063 22.2201C173.235 22.057 173.445 21.9755 173.694 21.9755C173.952 21.9755 174.162 22.057 174.325 22.2201C174.488 22.3833 174.57 22.5936 174.57 22.8511C174.57 23.1087 174.488 23.319 174.325 23.4821C174.162 23.6452 173.952 23.7268 173.694 23.7268Z" fill="white"></path>
<path d="M189.19 28.4527V20.0527H194.362V20.9647H190.198V23.7727H194.026V24.6847H190.198V27.5407H194.422V28.4527H189.19ZM198.084 28.4527C197.748 28.4527 197.488 28.3607 197.304 28.1767C197.128 27.9927 197.04 27.7407 197.04 27.4207V23.4127H195.276V22.5847H197.04V20.4967H197.988V22.5847H199.908V23.4127H197.988V27.2767C197.988 27.5167 198.104 27.6367 198.336 27.6367H199.644V28.4527H198.084ZM201.379 28.4527V20.0527H202.327V23.5207H202.495C202.575 23.3447 202.695 23.1807 202.855 23.0287C203.023 22.8687 203.235 22.7367 203.491 22.6327C203.755 22.5287 204.087 22.4767 204.487 22.4767C204.927 22.4767 205.319 22.5727 205.663 22.7647C206.015 22.9487 206.295 23.2207 206.503 23.5807C206.711 23.9327 206.815 24.3727 206.815 24.9007V28.4527H205.867V24.9727C205.867 24.3887 205.719 23.9647 205.423 23.7007C205.135 23.4367 204.743 23.3047 204.247 23.3047C203.679 23.3047 203.215 23.4887 202.855 23.8567C202.503 24.2247 202.327 24.7727 202.327 25.5007V28.4527H201.379ZM207.978 28.4527L210.57 20.0527H212.346L214.938 28.4527H213.894L213.246 26.3287H209.67L209.022 28.4527H207.978ZM209.922 25.4167H212.982L211.542 20.6647H211.374L209.922 25.4167ZM216.168 28.4527V22.5847H217.116V28.4527H216.168ZM216.648 21.6727C216.44 21.6727 216.264 21.6047 216.12 21.4687C215.984 21.3327 215.916 21.1607 215.916 20.9527C215.916 20.7367 215.984 20.5607 216.12 20.4247C216.264 20.2887 216.44 20.2207 216.648 20.2207C216.856 20.2207 217.028 20.2887 217.164 20.4247C217.3 20.5607 217.368 20.7367 217.368 20.9527C217.368 21.1607 217.3 21.3327 217.164 21.4687C217.028 21.6047 216.856 21.6727 216.648 21.6727Z" fill="white"></path>
<path d="M39.4064 60.9055V53.4175H36.7064V52.5055H43.1144V53.4175H40.4144V60.9055H39.4064ZM45.8854 61.0735C45.2934 61.0735 44.7694 60.9495 44.3134 60.7015C43.8654 60.4535 43.5134 60.1055 43.2574 59.6575C43.0094 59.2015 42.8854 58.6655 42.8854 58.0495V57.8935C42.8854 57.2855 43.0094 56.7535 43.2574 56.2975C43.5134 55.8415 43.8654 55.4895 44.3134 55.2415C44.7694 54.9935 45.2934 54.8695 45.8854 54.8695C46.4774 54.8695 46.9974 54.9935 47.4454 55.2415C47.9014 55.4895 48.2534 55.8415 48.5014 56.2975C48.7574 56.7535 48.8854 57.2855 48.8854 57.8935V58.0495C48.8854 58.6655 48.7574 59.2015 48.5014 59.6575C48.2534 60.1055 47.9014 60.4535 47.4454 60.7015C46.9974 60.9495 46.4774 61.0735 45.8854 61.0735ZM45.8854 60.2215C46.5094 60.2215 47.0054 60.0255 47.3734 59.6335C47.7494 59.2335 47.9374 58.6975 47.9374 58.0255V57.9175C47.9374 57.2455 47.7494 56.7135 47.3734 56.3215C47.0054 55.9215 46.5094 55.7215 45.8854 55.7215C45.2694 55.7215 44.7734 55.9215 44.3974 56.3215C44.0214 56.7135 43.8334 57.2455 43.8334 57.9175V58.0255C43.8334 58.6975 44.0214 59.2335 44.3974 59.6335C44.7734 60.0255 45.2694 60.2215 45.8854 60.2215ZM50.527 60.9055V52.5055H51.475V57.4495H51.643L54.331 55.0375H55.651L52.399 57.8935L55.747 60.9055H54.439L51.643 58.3495H51.475V60.9055H50.527ZM59.2912 61.0735C58.6992 61.0735 58.1792 60.9495 57.7312 60.7015C57.2832 60.4455 56.9352 60.0895 56.6872 59.6335C56.4392 59.1775 56.3152 58.6495 56.3152 58.0495V57.9055C56.3152 57.2975 56.4392 56.7655 56.6872 56.3095C56.9352 55.8535 57.2792 55.5015 57.7192 55.2535C58.1592 54.9975 58.6632 54.8695 59.2312 54.8695C59.7832 54.8695 60.2712 54.9895 60.6952 55.2295C61.1192 55.4615 61.4512 55.7975 61.6912 56.2375C61.9312 56.6775 62.0512 57.1935 62.0512 57.7855V58.2175H57.2632C57.2872 58.8495 57.4912 59.3455 57.8752 59.7055C58.2592 60.0575 58.7392 60.2335 59.3152 60.2335C59.8192 60.2335 60.2072 60.1175 60.4792 59.8855C60.7512 59.6535 60.9592 59.3775 61.1032 59.0575L61.9192 59.4535C61.7992 59.7015 61.6312 59.9495 61.4152 60.1975C61.2072 60.4455 60.9312 60.6535 60.5872 60.8215C60.2512 60.9895 59.8192 61.0735 59.2912 61.0735ZM57.2752 57.4375H61.0912C61.0592 56.8935 60.8712 56.4695 60.5272 56.1655C60.1912 55.8615 59.7592 55.7095 59.2312 55.7095C58.6952 55.7095 58.2552 55.8615 57.9112 56.1655C57.5672 56.4695 57.3552 56.8935 57.2752 57.4375ZM63.6404 60.9055V55.0375H64.5644V56.0335H64.7324C64.8604 55.7535 65.0764 55.5015 65.3804 55.2775C65.6924 55.0455 66.1484 54.9295 66.7484 54.9295C67.1884 54.9295 67.5804 55.0215 67.9244 55.2055C68.2764 55.3895 68.5564 55.6615 68.7644 56.0215C68.9724 56.3815 69.0764 56.8255 69.0764 57.3535V60.9055H68.1284V57.4255C68.1284 56.8415 67.9804 56.4175 67.6844 56.1535C67.3964 55.8895 67.0044 55.7575 66.5084 55.7575C65.9404 55.7575 65.4764 55.9415 65.1164 56.3095C64.7644 56.6775 64.5884 57.2255 64.5884 57.9535V60.9055H63.6404ZM73.917 60.9055V52.5055H75.873L78.801 60.2695H78.957V52.5055H79.953V60.9055H77.997L75.081 53.1295H74.913V60.9055H73.917ZM83.6574 61.0735C83.2494 61.0735 82.8774 61.0015 82.5414 60.8575C82.2054 60.7135 81.9414 60.5055 81.7494 60.2335C81.5574 59.9615 81.4614 59.6295 81.4614 59.2375C81.4614 58.8375 81.5574 58.5095 81.7494 58.2535C81.9414 57.9895 82.2054 57.7935 82.5414 57.6655C82.8774 57.5295 83.2534 57.4615 83.6694 57.4615H85.6494V57.0295C85.6494 56.6135 85.5254 56.2855 85.2774 56.0455C85.0374 55.8055 84.6774 55.6855 84.1974 55.6855C83.7254 55.6855 83.3574 55.8015 83.0934 56.0335C82.8294 56.2575 82.6494 56.5615 82.5534 56.9455L81.6654 56.6575C81.7614 56.3295 81.9134 56.0335 82.1214 55.7695C82.3294 55.4975 82.6054 55.2815 82.9494 55.1215C83.3014 54.9535 83.7214 54.8695 84.2094 54.8695C84.9614 54.8695 85.5454 55.0655 85.9614 55.4575C86.3774 55.8415 86.5854 56.3855 86.5854 57.0895V59.7415C86.5854 59.9815 86.6974 60.1015 86.9214 60.1015H87.4614V60.9055H86.6334C86.3694 60.9055 86.1574 60.8335 85.9974 60.6895C85.8374 60.5375 85.7574 60.3375 85.7574 60.0895V60.0295H85.6134C85.5254 60.1815 85.4054 60.3415 85.2534 60.5095C85.1094 60.6695 84.9094 60.8015 84.6534 60.9055C84.3974 61.0175 84.0654 61.0735 83.6574 61.0735ZM83.7654 60.2575C84.3254 60.2575 84.7774 60.0935 85.1214 59.7655C85.4734 59.4295 85.6494 58.9615 85.6494 58.3615V58.2295H83.7054C83.3294 58.2295 83.0174 58.3135 82.7694 58.4815C82.5294 58.6415 82.4094 58.8855 82.4094 59.2135C82.4094 59.5415 82.5334 59.7975 82.7814 59.9815C83.0374 60.1655 83.3654 60.2575 83.7654 60.2575ZM88.6953 60.9055V55.0375H89.6193V55.7695H89.7873C89.8993 55.5615 90.0833 55.3695 90.3393 55.1935C90.5953 55.0175 90.9553 54.9295 91.4193 54.9295C91.8753 54.9295 92.2433 55.0295 92.5233 55.2295C92.8113 55.4295 93.0193 55.6735 93.1473 55.9615H93.3153C93.4513 55.6735 93.6553 55.4295 93.9273 55.2295C94.2073 55.0295 94.5953 54.9295 95.0913 54.9295C95.4833 54.9295 95.8273 55.0095 96.1233 55.1695C96.4193 55.3295 96.6513 55.5615 96.8193 55.8655C96.9953 56.1615 97.0833 56.5175 97.0833 56.9335V60.9055H96.1353V57.0175C96.1353 56.6255 96.0193 56.3175 95.7873 56.0935C95.5633 55.8615 95.2473 55.7455 94.8393 55.7455C94.4073 55.7455 94.0513 55.8855 93.7713 56.1655C93.4993 56.4455 93.3633 56.8495 93.3633 57.3775V60.9055H92.4153V57.0175C92.4153 56.6255 92.2993 56.3175 92.0673 56.0935C91.8433 55.8615 91.5273 55.7455 91.1193 55.7455C90.6873 55.7455 90.3313 55.8855 90.0513 56.1655C89.7793 56.4455 89.6433 56.8495 89.6433 57.3775V60.9055H88.6953ZM101.643 61.0735C101.051 61.0735 100.531 60.9495 100.083 60.7015C99.6352 60.4455 99.2872 60.0895 99.0392 59.6335C98.7912 59.1775 98.6672 58.6495 98.6672 58.0495V57.9055C98.6672 57.2975 98.7912 56.7655 99.0392 56.3095C99.2872 55.8535 99.6312 55.5015 100.071 55.2535C100.511 54.9975 101.015 54.8695 101.583 54.8695C102.135 54.8695 102.623 54.9895 103.047 55.2295C103.471 55.4615 103.803 55.7975 104.043 56.2375C104.283 56.6775 104.403 57.1935 104.403 57.7855V58.2175H99.6152C99.6392 58.8495 99.8432 59.3455 100.227 59.7055C100.611 60.0575 101.091 60.2335 101.667 60.2335C102.171 60.2335 102.559 60.1175 102.831 59.8855C103.103 59.6535 103.311 59.3775 103.455 59.0575L104.271 59.4535C104.151 59.7015 103.983 59.9495 103.767 60.1975C103.559 60.4455 103.283 60.6535 102.939 60.8215C102.603 60.9895 102.171 61.0735 101.643 61.0735ZM99.6272 57.4375H103.443C103.411 56.8935 103.223 56.4695 102.879 56.1655C102.543 55.8615 102.111 55.7095 101.583 55.7095C101.047 55.7095 100.607 55.8615 100.263 56.1655C99.9192 56.4695 99.7072 56.8935 99.6272 57.4375Z" fill="white"></path>
<path d="M173.694 61.0858C173.445 61.0858 173.235 61.0042 173.063 60.8411C172.9 60.678 172.818 60.4677 172.818 60.2101C172.818 59.9526 172.9 59.7422 173.063 59.5791C173.235 59.416 173.445 59.3345 173.694 59.3345C173.952 59.3345 174.162 59.416 174.325 59.5791C174.488 59.7422 174.57 59.9526 174.57 60.2101C174.57 60.4677 174.488 60.678 174.325 60.8411C174.162 61.0042 173.952 61.0858 173.694 61.0858ZM173.694 56.1795C173.445 56.1795 173.235 56.098 173.063 55.9348C172.9 55.7717 172.818 55.5614 172.818 55.3039C172.818 55.0463 172.9 54.836 173.063 54.6729C173.235 54.5098 173.445 54.4282 173.694 54.4282C173.952 54.4282 174.162 54.5098 174.325 54.6729C174.488 54.836 174.57 55.0463 174.57 55.3039C174.57 55.5614 174.488 55.7717 174.325 55.9348C174.162 56.098 173.952 56.1795 173.694 56.1795Z" fill="white"></path>
<path d="M191.986 61.0735C191.378 61.0735 190.834 60.9655 190.354 60.7495C189.874 60.5335 189.494 60.2095 189.214 59.7775C188.942 59.3375 188.806 58.7895 188.806 58.1335V57.8815H189.802V58.1335C189.802 58.8295 190.006 59.3495 190.414 59.6935C190.822 60.0295 191.346 60.1975 191.986 60.1975C192.642 60.1975 193.142 60.0495 193.486 59.7535C193.83 59.4575 194.002 59.0855 194.002 58.6375C194.002 58.3255 193.926 58.0775 193.774 57.8935C193.622 57.7095 193.406 57.5615 193.126 57.4495C192.846 57.3295 192.518 57.2255 192.142 57.1375L191.506 56.9815C191.018 56.8535 190.586 56.6975 190.21 56.5135C189.834 56.3295 189.538 56.0895 189.322 55.7935C189.114 55.4895 189.01 55.1015 189.01 54.6295C189.01 54.1575 189.13 53.7495 189.37 53.4055C189.61 53.0615 189.942 52.7975 190.366 52.6135C190.79 52.4295 191.286 52.3375 191.854 52.3375C192.422 52.3375 192.93 52.4375 193.378 52.6375C193.826 52.8295 194.182 53.1175 194.446 53.5015C194.71 53.8775 194.842 54.3535 194.842 54.9295V55.4335H193.846V54.9295C193.846 54.5215 193.758 54.1935 193.582 53.9455C193.414 53.6975 193.178 53.5135 192.874 53.3935C192.578 53.2735 192.238 53.2135 191.854 53.2135C191.302 53.2135 190.858 53.3375 190.522 53.5855C190.186 53.8255 190.018 54.1695 190.018 54.6175C190.018 54.9135 190.086 55.1535 190.222 55.3375C190.366 55.5215 190.57 55.6735 190.834 55.7935C191.098 55.9055 191.414 56.0055 191.782 56.0935L192.418 56.2495C192.898 56.3535 193.334 56.4975 193.726 56.6815C194.118 56.8575 194.426 57.1015 194.65 57.4135C194.882 57.7175 194.998 58.1175 194.998 58.6135C194.998 59.1095 194.874 59.5415 194.626 59.9095C194.378 60.2775 194.026 60.5655 193.57 60.7735C193.122 60.9735 192.594 61.0735 191.986 61.0735ZM191.53 62.2975V51.1135H192.454V62.2975H191.53ZM196.485 60.9055V52.5055H201.657V53.4175H197.493V56.2255H201.321V57.1375H197.493V59.9935H201.717V60.9055H196.485ZM205.379 60.9055C205.043 60.9055 204.783 60.8135 204.599 60.6295C204.423 60.4455 204.335 60.1935 204.335 59.8735V55.8655H202.571V55.0375H204.335V52.9495H205.283V55.0375H207.203V55.8655H205.283V59.7295C205.283 59.9695 205.399 60.0895 205.631 60.0895H206.939V60.9055H205.379ZM208.674 60.9055V52.5055H209.622V55.9735H209.79C209.87 55.7975 209.99 55.6335 210.15 55.4815C210.318 55.3215 210.53 55.1895 210.786 55.0855C211.05 54.9815 211.382 54.9295 211.782 54.9295C212.222 54.9295 212.614 55.0255 212.958 55.2175C213.31 55.4015 213.59 55.6735 213.798 56.0335C214.006 56.3855 214.11 56.8255 214.11 57.3535V60.9055H213.162V57.4255C213.162 56.8415 213.014 56.4175 212.718 56.1535C212.43 55.8895 212.038 55.7575 211.542 55.7575C210.974 55.7575 210.51 55.9415 210.15 56.3095C209.798 56.6775 209.622 57.2255 209.622 57.9535V60.9055H208.674ZM215.273 60.9055L217.865 52.5055H219.641L222.233 60.9055H221.189L220.541 58.7815H216.965L216.317 60.9055H215.273ZM217.217 57.8695H220.277L218.837 53.1175H218.669L217.217 57.8695ZM223.463 60.9055V55.0375H224.411V60.9055H223.463ZM223.943 54.1255C223.735 54.1255 223.559 54.0575 223.415 53.9215C223.279 53.7855 223.211 53.6135 223.211 53.4055C223.211 53.1895 223.279 53.0135 223.415 52.8775C223.559 52.7415 223.735 52.6735 223.943 52.6735C224.151 52.6735 224.323 52.7415 224.459 52.8775C224.595 53.0135 224.663 53.1895 224.663 53.4055C224.663 53.6135 224.595 53.7855 224.459 53.9215C224.323 54.0575 224.151 54.1255 223.943 54.1255Z" fill="white"></path>
<path d="M39.4064 93.3582V85.8702H36.7064V84.9582H43.1144V85.8702H40.4144V93.3582H39.4064ZM45.8854 93.5262C45.2934 93.5262 44.7694 93.4022 44.3134 93.1542C43.8654 92.9062 43.5134 92.5582 43.2574 92.1102C43.0094 91.6542 42.8854 91.1182 42.8854 90.5022V90.3462C42.8854 89.7382 43.0094 89.2062 43.2574 88.7502C43.5134 88.2942 43.8654 87.9422 44.3134 87.6942C44.7694 87.4462 45.2934 87.3222 45.8854 87.3222C46.4774 87.3222 46.9974 87.4462 47.4454 87.6942C47.9014 87.9422 48.2534 88.2942 48.5014 88.7502C48.7574 89.2062 48.8854 89.7382 48.8854 90.3462V90.5022C48.8854 91.1182 48.7574 91.6542 48.5014 92.1102C48.2534 92.5582 47.9014 92.9062 47.4454 93.1542C46.9974 93.4022 46.4774 93.5262 45.8854 93.5262ZM45.8854 92.6742C46.5094 92.6742 47.0054 92.4782 47.3734 92.0862C47.7494 91.6862 47.9374 91.1502 47.9374 90.4782V90.3702C47.9374 89.6982 47.7494 89.1662 47.3734 88.7742C47.0054 88.3742 46.5094 88.1742 45.8854 88.1742C45.2694 88.1742 44.7734 88.3742 44.3974 88.7742C44.0214 89.1662 43.8334 89.6982 43.8334 90.3702V90.4782C43.8334 91.1502 44.0214 91.6862 44.3974 92.0862C44.7734 92.4782 45.2694 92.6742 45.8854 92.6742ZM50.527 93.3582V84.9582H51.475V89.9022H51.643L54.331 87.4902H55.651L52.399 90.3462L55.747 93.3582H54.439L51.643 90.8022H51.475V93.3582H50.527ZM59.2912 93.5262C58.6992 93.5262 58.1792 93.4022 57.7312 93.1542C57.2832 92.8982 56.9352 92.5422 56.6872 92.0862C56.4392 91.6302 56.3152 91.1022 56.3152 90.5022V90.3582C56.3152 89.7502 56.4392 89.2182 56.6872 88.7622C56.9352 88.3062 57.2792 87.9542 57.7192 87.7062C58.1592 87.4502 58.6632 87.3222 59.2312 87.3222C59.7832 87.3222 60.2712 87.4422 60.6952 87.6822C61.1192 87.9142 61.4512 88.2502 61.6912 88.6902C61.9312 89.1302 62.0512 89.6462 62.0512 90.2382V90.6702H57.2632C57.2872 91.3022 57.4912 91.7982 57.8752 92.1582C58.2592 92.5102 58.7392 92.6862 59.3152 92.6862C59.8192 92.6862 60.2072 92.5702 60.4792 92.3382C60.7512 92.1062 60.9592 91.8302 61.1032 91.5102L61.9192 91.9062C61.7992 92.1542 61.6312 92.4022 61.4152 92.6502C61.2072 92.8982 60.9312 93.1062 60.5872 93.2742C60.2512 93.4422 59.8192 93.5262 59.2912 93.5262ZM57.2752 89.8902H61.0912C61.0592 89.3462 60.8712 88.9222 60.5272 88.6182C60.1912 88.3142 59.7592 88.1622 59.2312 88.1622C58.6952 88.1622 58.2552 88.3142 57.9112 88.6182C57.5672 88.9222 57.3552 89.3462 57.2752 89.8902ZM63.6404 93.3582V87.4902H64.5644V88.4862H64.7324C64.8604 88.2062 65.0764 87.9542 65.3804 87.7302C65.6924 87.4982 66.1484 87.3822 66.7484 87.3822C67.1884 87.3822 67.5804 87.4742 67.9244 87.6582C68.2764 87.8422 68.5564 88.1142 68.7644 88.4742C68.9724 88.8342 69.0764 89.2782 69.0764 89.8062V93.3582H68.1284V89.8782C68.1284 89.2942 67.9804 88.8702 67.6844 88.6062C67.3964 88.3422 67.0044 88.2102 66.5084 88.2102C65.9404 88.2102 65.4764 88.3942 65.1164 88.7622C64.7644 89.1302 64.5884 89.6782 64.5884 90.4062V93.3582H63.6404ZM76.317 93.5262C75.589 93.5262 74.973 93.3582 74.469 93.0222C73.973 92.6862 73.673 92.1542 73.569 91.4262L74.469 91.2222C74.533 91.6062 74.653 91.9102 74.829 92.1342C75.005 92.3502 75.221 92.5062 75.477 92.6022C75.741 92.6902 76.021 92.7342 76.317 92.7342C76.757 92.7342 77.105 92.6462 77.361 92.4702C77.617 92.2942 77.745 92.0582 77.745 91.7622C77.745 91.4582 77.621 91.2462 77.373 91.1262C77.133 90.9982 76.801 90.8942 76.377 90.8142L75.885 90.7302C75.509 90.6662 75.165 90.5662 74.853 90.4302C74.541 90.2942 74.293 90.1102 74.109 89.8782C73.925 89.6462 73.833 89.3542 73.833 89.0022C73.833 88.4742 74.037 88.0622 74.445 87.7662C74.853 87.4702 75.393 87.3222 76.065 87.3222C76.729 87.3222 77.265 87.4742 77.673 87.7782C78.089 88.0742 78.357 88.4942 78.477 89.0382L77.589 89.2662C77.517 88.8422 77.345 88.5462 77.073 88.3782C76.801 88.2022 76.465 88.1142 76.065 88.1142C75.665 88.1142 75.349 88.1902 75.117 88.3422C74.885 88.4862 74.769 88.7022 74.769 88.9902C74.769 89.2702 74.877 89.4782 75.093 89.6142C75.317 89.7422 75.613 89.8382 75.981 89.9022L76.473 89.9862C76.889 90.0582 77.261 90.1582 77.589 90.2862C77.925 90.4062 78.189 90.5822 78.381 90.8142C78.581 91.0462 78.681 91.3502 78.681 91.7262C78.681 92.3022 78.465 92.7462 78.033 93.0582C77.609 93.3702 77.037 93.5262 76.317 93.5262ZM82.2478 93.3582C81.9118 93.3582 81.6518 93.2662 81.4678 93.0822C81.2918 92.8982 81.2038 92.6462 81.2038 92.3262V88.3182H79.4398V87.4902H81.2038V85.4022H82.1518V87.4902H84.0718V88.3182H82.1518V92.1822C82.1518 92.4222 82.2678 92.5422 82.4998 92.5422H83.8078V93.3582H82.2478ZM87.3078 93.5262C86.8998 93.5262 86.5278 93.4542 86.1918 93.3102C85.8558 93.1662 85.5918 92.9582 85.3998 92.6862C85.2078 92.4142 85.1118 92.0822 85.1118 91.6902C85.1118 91.2902 85.2078 90.9622 85.3998 90.7062C85.5918 90.4422 85.8558 90.2462 86.1918 90.1182C86.5278 89.9822 86.9038 89.9142 87.3198 89.9142H89.2998V89.4822C89.2998 89.0662 89.1758 88.7382 88.9278 88.4982C88.6878 88.2582 88.3278 88.1382 87.8478 88.1382C87.3758 88.1382 87.0078 88.2542 86.7438 88.4862C86.4798 88.7102 86.2998 89.0142 86.2038 89.3982L85.3158 89.1102C85.4118 88.7822 85.5638 88.4862 85.7718 88.2222C85.9798 87.9502 86.2558 87.7342 86.5998 87.5742C86.9518 87.4062 87.3718 87.3222 87.8598 87.3222C88.6118 87.3222 89.1958 87.5182 89.6118 87.9102C90.0278 88.2942 90.2358 88.8382 90.2358 89.5422V92.1942C90.2358 92.4342 90.3478 92.5542 90.5718 92.5542H91.1118V93.3582H90.2838C90.0198 93.3582 89.8078 93.2862 89.6478 93.1422C89.4878 92.9902 89.4078 92.7902 89.4078 92.5422V92.4822H89.2638C89.1758 92.6342 89.0558 92.7942 88.9038 92.9622C88.7598 93.1222 88.5598 93.2542 88.3038 93.3582C88.0478 93.4702 87.7158 93.5262 87.3078 93.5262ZM87.4158 92.7102C87.9758 92.7102 88.4278 92.5462 88.7718 92.2182C89.1238 91.8822 89.2998 91.4142 89.2998 90.8142V90.6822H87.3558C86.9798 90.6822 86.6678 90.7662 86.4198 90.9342C86.1798 91.0942 86.0598 91.3382 86.0598 91.6662C86.0598 91.9942 86.1838 92.2502 86.4318 92.4342C86.6878 92.6182 87.0158 92.7102 87.4158 92.7102ZM92.3458 93.3582V87.4902H93.2698V88.4862H93.4378C93.5658 88.2062 93.7818 87.9542 94.0858 87.7302C94.3978 87.4982 94.8538 87.3822 95.4538 87.3822C95.8938 87.3822 96.2858 87.4742 96.6298 87.6582C96.9818 87.8422 97.2618 88.1142 97.4698 88.4742C97.6778 88.8342 97.7818 89.2782 97.7818 89.8062V93.3582H96.8338V89.8782C96.8338 89.2942 96.6858 88.8702 96.3898 88.6062C96.1018 88.3422 95.7098 88.2102 95.2138 88.2102C94.6458 88.2102 94.1818 88.3942 93.8218 88.7622C93.4698 89.1302 93.2938 89.6782 93.2938 90.4062V93.3582H92.3458ZM102.125 93.5262C101.621 93.5262 101.157 93.4062 100.733 93.1662C100.309 92.9262 99.9728 92.5782 99.7248 92.1222C99.4768 91.6662 99.3528 91.1262 99.3528 90.5022V90.3462C99.3528 89.7222 99.4768 89.1862 99.7248 88.7382C99.9728 88.2822 100.305 87.9342 100.721 87.6942C101.145 87.4462 101.613 87.3222 102.125 87.3222C102.533 87.3222 102.877 87.3782 103.157 87.4902C103.445 87.5942 103.677 87.7302 103.853 87.8982C104.029 88.0582 104.165 88.2302 104.261 88.4142H104.429V84.9582H105.377V93.3582H104.453V92.3862H104.285C104.125 92.6822 103.877 92.9462 103.541 93.1782C103.205 93.4102 102.733 93.5262 102.125 93.5262ZM102.377 92.6862C102.985 92.6862 103.477 92.4942 103.853 92.1102C104.237 91.7182 104.429 91.1742 104.429 90.4782V90.3702C104.429 89.6742 104.237 89.1342 103.853 88.7502C103.477 88.3582 102.985 88.1622 102.377 88.1622C101.777 88.1622 101.281 88.3582 100.889 88.7502C100.505 89.1342 100.313 89.6742 100.313 90.3702V90.4782C100.313 91.1742 100.505 91.7182 100.889 92.1102C101.281 92.4942 101.777 92.6862 102.377 92.6862ZM109.099 93.5262C108.691 93.5262 108.319 93.4542 107.983 93.3102C107.647 93.1662 107.383 92.9582 107.191 92.6862C106.999 92.4142 106.903 92.0822 106.903 91.6902C106.903 91.2902 106.999 90.9622 107.191 90.7062C107.383 90.4422 107.647 90.2462 107.983 90.1182C108.319 89.9822 108.695 89.9142 109.111 89.9142H111.091V89.4822C111.091 89.0662 110.967 88.7382 110.719 88.4982C110.479 88.2582 110.119 88.1382 109.639 88.1382C109.167 88.1382 108.799 88.2542 108.535 88.4862C108.271 88.7102 108.091 89.0142 107.995 89.3982L107.107 89.1102C107.203 88.7822 107.355 88.4862 107.563 88.2222C107.771 87.9502 108.047 87.7342 108.391 87.5742C108.743 87.4062 109.163 87.3222 109.651 87.3222C110.403 87.3222 110.987 87.5182 111.403 87.9102C111.819 88.2942 112.027 88.8382 112.027 89.5422V92.1942C112.027 92.4342 112.139 92.5542 112.363 92.5542H112.903V93.3582H112.075C111.811 93.3582 111.599 93.2862 111.439 93.1422C111.279 92.9902 111.199 92.7902 111.199 92.5422V92.4822H111.055C110.967 92.6342 110.847 92.7942 110.695 92.9622C110.551 93.1222 110.351 93.2542 110.095 93.3582C109.839 93.4702 109.507 93.5262 109.099 93.5262ZM109.207 92.7102C109.767 92.7102 110.219 92.5462 110.563 92.2182C110.915 91.8822 111.091 91.4142 111.091 90.8142V90.6822H109.147C108.771 90.6822 108.459 90.7662 108.211 90.9342C107.971 91.0942 107.851 91.3382 107.851 91.6662C107.851 91.9942 107.975 92.2502 108.223 92.4342C108.479 92.6182 108.807 92.7102 109.207 92.7102ZM114.137 93.3582V87.4902H115.061V88.2102H115.229C115.333 87.9542 115.493 87.7662 115.709 87.6462C115.925 87.5262 116.209 87.4662 116.561 87.4662H117.257V88.3302H116.501C116.077 88.3302 115.733 88.4502 115.469 88.6902C115.213 88.9222 115.085 89.2862 115.085 89.7822V93.3582H114.137ZM120.869 93.5262C120.365 93.5262 119.901 93.4062 119.477 93.1662C119.053 92.9262 118.717 92.5782 118.469 92.1222C118.221 91.6662 118.097 91.1262 118.097 90.5022V90.3462C118.097 89.7222 118.221 89.1862 118.469 88.7382C118.717 88.2822 119.049 87.9342 119.465 87.6942C119.889 87.4462 120.357 87.3222 120.869 87.3222C121.277 87.3222 121.621 87.3782 121.901 87.4902C122.189 87.5942 122.421 87.7302 122.597 87.8982C122.773 88.0582 122.909 88.2302 123.005 88.4142H123.173V84.9582H124.121V93.3582H123.197V92.3862H123.029C122.869 92.6822 122.621 92.9462 122.285 93.1782C121.949 93.4102 121.477 93.5262 120.869 93.5262ZM121.121 92.6862C121.729 92.6862 122.221 92.4942 122.597 92.1102C122.981 91.7182 123.173 91.1742 123.173 90.4782V90.3702C123.173 89.6742 122.981 89.1342 122.597 88.7502C122.221 88.3582 121.729 88.1622 121.121 88.1622C120.521 88.1622 120.025 88.3582 119.633 88.7502C119.249 89.1342 119.057 89.6742 119.057 90.3702V90.4782C119.057 91.1742 119.249 91.7182 119.633 92.1102C120.025 92.4942 120.521 92.6862 121.121 92.6862Z" fill="white"></path>
<path d="M173.694 93.5385C173.445 93.5385 173.235 93.4569 173.063 93.2938C172.9 93.1307 172.818 92.9204 172.818 92.6628C172.818 92.4053 172.9 92.195 173.063 92.0319C173.235 91.8688 173.445 91.7872 173.694 91.7872C173.952 91.7872 174.162 91.8688 174.325 92.0319C174.488 92.195 174.57 92.4053 174.57 92.6628C174.57 92.9204 174.488 93.1307 174.325 93.2938C174.162 93.4569 173.952 93.5385 173.694 93.5385ZM173.694 88.6323C173.445 88.6323 173.235 88.5507 173.063 88.3876C172.9 88.2245 172.818 88.0142 172.818 87.7566C172.818 87.4991 172.9 87.2887 173.063 87.1256C173.235 86.9625 173.445 86.8809 173.694 86.8809C173.952 86.8809 174.162 86.9625 174.325 87.1256C174.488 87.2887 174.57 87.4991 174.57 87.7566C174.57 88.0142 174.488 88.2245 174.325 88.3876C174.162 88.5507 173.952 88.6323 173.694 88.6323Z" fill="white"></path>
<path d="M189.19 93.3582V84.9582H194.362V85.8702H190.198V88.6782H194.026V89.5902H190.198V92.4462H194.422V93.3582H189.19ZM195.888 93.3582V84.9582H199.284C199.804 84.9582 200.26 85.0502 200.652 85.2342C201.052 85.4102 201.364 85.6662 201.588 86.0022C201.812 86.3302 201.924 86.7262 201.924 87.1902V87.3222C201.924 87.8742 201.792 88.3102 201.528 88.6302C201.264 88.9502 200.952 89.1662 200.592 89.2782V89.4462C200.88 89.4542 201.116 89.5502 201.3 89.7342C201.492 89.9102 201.588 90.1782 201.588 90.5382V93.3582H200.592V90.6582C200.592 90.4182 200.524 90.2342 200.388 90.1062C200.26 89.9782 200.064 89.9142 199.8 89.9142H196.896V93.3582H195.888ZM196.896 89.0022H199.188C199.74 89.0022 200.164 88.8702 200.46 88.6062C200.764 88.3342 200.916 87.9582 200.916 87.4782V87.3942C200.916 86.9142 200.768 86.5422 200.472 86.2782C200.176 86.0062 199.748 85.8702 199.188 85.8702H196.896V89.0022ZM206.43 93.5262C205.43 93.5262 204.634 93.2382 204.042 92.6622C203.45 92.0782 203.154 91.2302 203.154 90.1182V88.1982C203.154 87.0862 203.45 86.2422 204.042 85.6662C204.634 85.0822 205.43 84.7902 206.43 84.7902C207.422 84.7902 208.182 85.0662 208.71 85.6182C209.246 86.1702 209.514 86.9262 209.514 87.8862V87.9462H208.518V87.8502C208.518 87.2182 208.346 86.7022 208.002 86.3022C207.666 85.8942 207.142 85.6902 206.43 85.6902C205.718 85.6902 205.162 85.9102 204.762 86.3502C204.362 86.7822 204.162 87.3902 204.162 88.1742V90.1422C204.162 90.9262 204.362 91.5382 204.762 91.9782C205.162 92.4102 205.718 92.6262 206.43 92.6262C207.142 92.6262 207.666 92.4262 208.002 92.0262C208.346 91.6182 208.518 91.0982 208.518 90.4662V90.2742H209.514V90.4302C209.514 91.3902 209.246 92.1462 208.71 92.6982C208.182 93.2502 207.422 93.5262 206.43 93.5262ZM210.704 93.3582V92.4822C210.704 91.8822 210.808 91.4022 211.016 91.0422C211.232 90.6822 211.528 90.3942 211.904 90.1782C212.288 89.9542 212.744 89.7622 213.272 89.6022L213.932 89.3982C214.292 89.2862 214.608 89.1502 214.88 88.9902C215.152 88.8222 215.364 88.6142 215.516 88.3662C215.668 88.1102 215.744 87.7982 215.744 87.4302V87.3822C215.744 86.8542 215.56 86.4382 215.192 86.1342C214.824 85.8222 214.352 85.6662 213.776 85.6662C213.168 85.6662 212.672 85.8302 212.288 86.1582C211.904 86.4782 211.712 86.9662 211.712 87.6222V87.7902H210.752V87.6342C210.752 87.0262 210.884 86.5102 211.148 86.0862C211.412 85.6622 211.772 85.3422 212.228 85.1262C212.684 84.9022 213.2 84.7902 213.776 84.7902C214.352 84.7902 214.86 84.8982 215.3 85.1142C215.748 85.3302 216.096 85.6302 216.344 86.0142C216.592 86.3982 216.716 86.8462 216.716 87.3582V87.4662C216.716 88.0102 216.608 88.4622 216.392 88.8222C216.176 89.1742 215.876 89.4622 215.492 89.6862C215.116 89.9102 214.672 90.1022 214.16 90.2622L213.512 90.4662C213.104 90.5942 212.764 90.7302 212.492 90.8742C212.228 91.0102 212.028 91.1862 211.892 91.4022C211.756 91.6182 211.688 91.9102 211.688 92.2782V92.4822H216.644V93.3582H210.704ZM221.075 93.5262C220.123 93.5262 219.363 93.2462 218.795 92.6862C218.235 92.1182 217.955 91.2702 217.955 90.1422V88.1742C217.955 87.0542 218.235 86.2102 218.795 85.6422C219.363 85.0742 220.123 84.7902 221.075 84.7902C222.035 84.7902 222.795 85.0742 223.355 85.6422C223.923 86.2102 224.207 87.0542 224.207 88.1742V90.1422C224.207 91.2702 223.923 92.1182 223.355 92.6862C222.795 93.2462 222.035 93.5262 221.075 93.5262ZM221.075 92.6502C221.795 92.6502 222.335 92.4342 222.695 92.0022C223.055 91.5702 223.235 90.9662 223.235 90.1902V88.1142C223.235 87.3382 223.051 86.7382 222.683 86.3142C222.315 85.8822 221.779 85.6662 221.075 85.6662C220.371 85.6662 219.835 85.8822 219.467 86.3142C219.107 86.7462 218.927 87.3462 218.927 88.1142V90.1902C218.927 90.9742 219.107 91.5822 219.467 92.0142C219.827 92.4382 220.363 92.6502 221.075 92.6502Z" fill="white"></path>
<path d="M36.9464 125.811V124.911H38.1224V118.311H36.9464V117.411H41.1584C41.6464 117.411 42.0784 117.499 42.4544 117.675C42.8384 117.851 43.1344 118.099 43.3424 118.419C43.5584 118.731 43.6664 119.099 43.6664 119.523V119.619C43.6664 120.011 43.5904 120.335 43.4384 120.591C43.2864 120.839 43.1064 121.035 42.8984 121.179C42.6904 121.315 42.4864 121.415 42.2864 121.479V121.647C42.4864 121.695 42.6944 121.791 42.9104 121.935C43.1264 122.071 43.3064 122.267 43.4504 122.523C43.6024 122.779 43.6784 123.103 43.6784 123.495V123.615C43.6784 124.071 43.5664 124.467 43.3424 124.803C43.1264 125.131 42.8264 125.383 42.4424 125.559C42.0664 125.727 41.6344 125.811 41.1464 125.811H36.9464ZM39.1304 124.899H41.0384C41.5664 124.899 41.9704 124.775 42.2504 124.527C42.5304 124.279 42.6704 123.943 42.6704 123.519V123.411C42.6704 122.987 42.5304 122.651 42.2504 122.403C41.9704 122.155 41.5664 122.031 41.0384 122.031H39.1304V124.899ZM39.1304 121.119H41.0744C41.5544 121.119 41.9384 120.999 42.2264 120.759C42.5144 120.511 42.6584 120.187 42.6584 119.787V119.667C42.6584 119.259 42.5144 118.935 42.2264 118.695C41.9464 118.447 41.5624 118.323 41.0744 118.323H39.1304V121.119ZM45.2476 125.811V117.411H46.1956V125.811H45.2476ZM50.8366 125.979C50.2446 125.979 49.7206 125.855 49.2646 125.607C48.8166 125.359 48.4646 125.011 48.2086 124.563C47.9606 124.107 47.8366 123.571 47.8366 122.955V122.799C47.8366 122.191 47.9606 121.659 48.2086 121.203C48.4646 120.747 48.8166 120.395 49.2646 120.147C49.7206 119.899 50.2446 119.775 50.8366 119.775C51.4286 119.775 51.9486 119.899 52.3966 120.147C52.8526 120.395 53.2046 120.747 53.4526 121.203C53.7086 121.659 53.8366 122.191 53.8366 122.799V122.955C53.8366 123.571 53.7086 124.107 53.4526 124.563C53.2046 125.011 52.8526 125.359 52.3966 125.607C51.9486 125.855 51.4286 125.979 50.8366 125.979ZM50.8366 125.127C51.4606 125.127 51.9566 124.931 52.3246 124.539C52.7006 124.139 52.8886 123.603 52.8886 122.931V122.823C52.8886 122.151 52.7006 121.619 52.3246 121.227C51.9566 120.827 51.4606 120.627 50.8366 120.627C50.2206 120.627 49.7246 120.827 49.3486 121.227C48.9726 121.619 48.7846 122.151 48.7846 122.823V122.931C48.7846 123.603 48.9726 124.139 49.3486 124.539C49.7246 124.931 50.2206 125.127 50.8366 125.127ZM58.1782 125.979C57.6102 125.979 57.0982 125.859 56.6422 125.619C56.1942 125.371 55.8382 125.019 55.5742 124.563C55.3182 124.107 55.1902 123.567 55.1902 122.943V122.811C55.1902 122.179 55.3182 121.639 55.5742 121.191C55.8382 120.735 56.1942 120.387 56.6422 120.147C57.0982 119.899 57.6102 119.775 58.1782 119.775C58.7382 119.775 59.2142 119.879 59.6062 120.087C60.0062 120.295 60.3182 120.571 60.5422 120.915C60.7742 121.259 60.9222 121.627 60.9862 122.019L60.0622 122.211C60.0222 121.923 59.9262 121.659 59.7742 121.419C59.6302 121.179 59.4262 120.987 59.1622 120.843C58.8982 120.699 58.5742 120.627 58.1902 120.627C57.7982 120.627 57.4462 120.715 57.1342 120.891C56.8302 121.067 56.5862 121.319 56.4022 121.647C56.2262 121.975 56.1382 122.367 56.1382 122.823V122.931C56.1382 123.387 56.2262 123.779 56.4022 124.107C56.5862 124.435 56.8302 124.687 57.1342 124.863C57.4462 125.039 57.7982 125.127 58.1902 125.127C58.7742 125.127 59.2182 124.975 59.5222 124.671C59.8342 124.367 60.0262 123.991 60.0982 123.543L61.0342 123.747C60.9462 124.131 60.7862 124.495 60.5542 124.839C60.3222 125.183 60.0062 125.459 59.6062 125.667C59.2142 125.875 58.7382 125.979 58.1782 125.979ZM62.5857 125.811V117.411H63.5337V122.355H63.7017L66.3897 119.943H67.7097L64.4577 122.799L67.8057 125.811H66.4977L63.7017 123.255H63.5337V125.811H62.5857ZM71.3619 125.979C70.7939 125.979 70.2819 125.859 69.8259 125.619C69.3779 125.371 69.0219 125.019 68.7579 124.563C68.5019 124.107 68.3739 123.567 68.3739 122.943V122.811C68.3739 122.179 68.5019 121.639 68.7579 121.191C69.0219 120.735 69.3779 120.387 69.8259 120.147C70.2819 119.899 70.7939 119.775 71.3619 119.775C71.9219 119.775 72.3979 119.879 72.7899 120.087C73.1899 120.295 73.5019 120.571 73.7259 120.915C73.9579 121.259 74.1059 121.627 74.1699 122.019L73.2459 122.211C73.2059 121.923 73.1099 121.659 72.9579 121.419C72.8139 121.179 72.6099 120.987 72.3459 120.843C72.0819 120.699 71.7579 120.627 71.3739 120.627C70.9819 120.627 70.6299 120.715 70.3179 120.891C70.0139 121.067 69.7699 121.319 69.5859 121.647C69.4099 121.975 69.3219 122.367 69.3219 122.823V122.931C69.3219 123.387 69.4099 123.779 69.5859 124.107C69.7699 124.435 70.0139 124.687 70.3179 124.863C70.6299 125.039 70.9819 125.127 71.3739 125.127C71.9579 125.127 72.4019 124.975 72.7059 124.671C73.0179 124.367 73.2099 123.991 73.2819 123.543L74.2179 123.747C74.1299 124.131 73.9699 124.495 73.7379 124.839C73.5059 125.183 73.1899 125.459 72.7899 125.667C72.3979 125.875 71.9219 125.979 71.3619 125.979ZM75.7694 125.811V117.411H76.7174V120.879H76.8854C76.9654 120.703 77.0854 120.539 77.2454 120.387C77.4134 120.227 77.6254 120.095 77.8814 119.991C78.1454 119.887 78.4774 119.835 78.8774 119.835C79.3174 119.835 79.7094 119.931 80.0534 120.123C80.4054 120.307 80.6854 120.579 80.8934 120.939C81.1014 121.291 81.2054 121.731 81.2054 122.259V125.811H80.2574V122.331C80.2574 121.747 80.1094 121.323 79.8134 121.059C79.5254 120.795 79.1334 120.663 78.6374 120.663C78.0694 120.663 77.6054 120.847 77.2454 121.215C76.8934 121.583 76.7174 122.131 76.7174 122.859V125.811H75.7694ZM84.8644 125.979C84.4564 125.979 84.0844 125.907 83.7484 125.763C83.4124 125.619 83.1484 125.411 82.9564 125.139C82.7644 124.867 82.6684 124.535 82.6684 124.143C82.6684 123.743 82.7644 123.415 82.9564 123.159C83.1484 122.895 83.4124 122.699 83.7484 122.571C84.0844 122.435 84.4604 122.367 84.8764 122.367H86.8564V121.935C86.8564 121.519 86.7324 121.191 86.4844 120.951C86.2444 120.711 85.8844 120.591 85.4044 120.591C84.9324 120.591 84.5644 120.707 84.3004 120.939C84.0364 121.163 83.8564 121.467 83.7604 121.851L82.8724 121.563C82.9684 121.235 83.1204 120.939 83.3284 120.675C83.5364 120.403 83.8124 120.187 84.1564 120.027C84.5084 119.859 84.9284 119.775 85.4164 119.775C86.1684 119.775 86.7524 119.971 87.1684 120.363C87.5844 120.747 87.7924 121.291 87.7924 121.995V124.647C87.7924 124.887 87.9044 125.007 88.1284 125.007H88.6684V125.811H87.8404C87.5764 125.811 87.3644 125.739 87.2044 125.595C87.0444 125.443 86.9644 125.243 86.9644 124.995V124.935H86.8204C86.7324 125.087 86.6124 125.247 86.4604 125.415C86.3164 125.575 86.1164 125.707 85.8604 125.811C85.6044 125.923 85.2724 125.979 84.8644 125.979ZM84.9724 125.163C85.5324 125.163 85.9844 124.999 86.3284 124.671C86.6804 124.335 86.8564 123.867 86.8564 123.267V123.135H84.9124C84.5364 123.135 84.2244 123.219 83.9764 123.387C83.7364 123.547 83.6164 123.791 83.6164 124.119C83.6164 124.447 83.7404 124.703 83.9884 124.887C84.2444 125.071 84.5724 125.163 84.9724 125.163ZM89.9024 125.811V119.943H90.8504V125.811H89.9024ZM90.3824 119.031C90.1744 119.031 89.9984 118.963 89.8544 118.827C89.7184 118.691 89.6504 118.519 89.6504 118.311C89.6504 118.095 89.7184 117.919 89.8544 117.783C89.9984 117.647 90.1744 117.579 90.3824 117.579C90.5904 117.579 90.7624 117.647 90.8984 117.783C91.0344 117.919 91.1024 118.095 91.1024 118.311C91.1024 118.519 91.0344 118.691 90.8984 118.827C90.7624 118.963 90.5904 119.031 90.3824 119.031ZM92.7794 125.811V119.943H93.7034V120.939H93.8714C93.9994 120.659 94.2154 120.407 94.5194 120.183C94.8314 119.951 95.2874 119.835 95.8874 119.835C96.3274 119.835 96.7194 119.927 97.0634 120.111C97.4154 120.295 97.6954 120.567 97.9034 120.927C98.1114 121.287 98.2154 121.731 98.2154 122.259V125.811H97.2674V122.331C97.2674 121.747 97.1194 121.323 96.8234 121.059C96.5354 120.795 96.1434 120.663 95.6474 120.663C95.0794 120.663 94.6154 120.847 94.2554 121.215C93.9034 121.583 93.7274 122.131 93.7274 122.859V125.811H92.7794Z" fill="white"></path>
<path d="M173.694 125.991C173.445 125.991 173.235 125.91 173.063 125.747C172.9 125.583 172.818 125.373 172.818 125.116C172.818 124.858 172.9 124.648 173.063 124.485C173.235 124.321 173.445 124.24 173.694 124.24C173.952 124.24 174.162 124.321 174.325 124.485C174.488 124.648 174.57 124.858 174.57 125.116C174.57 125.373 174.488 125.583 174.325 125.747C174.162 125.91 173.952 125.991 173.694 125.991ZM173.694 121.085C173.445 121.085 173.235 121.003 173.063 120.84C172.9 120.677 172.818 120.467 172.818 120.209C172.818 119.952 172.9 119.741 173.063 119.578C173.235 119.415 173.445 119.334 173.694 119.334C173.952 119.334 174.162 119.415 174.325 119.578C174.488 119.741 174.57 119.952 174.57 120.209C174.57 120.467 174.488 120.677 174.325 120.84C174.162 121.003 173.952 121.085 173.694 121.085Z" fill="white"></path>
<path d="M189.19 125.811V117.411H194.362V118.323H190.198V121.131H194.026V122.043H190.198V124.899H194.422V125.811H189.19ZM198.084 125.811C197.748 125.811 197.488 125.719 197.304 125.535C197.128 125.351 197.04 125.099 197.04 124.779V120.771H195.276V119.943H197.04V117.855H197.988V119.943H199.908V120.771H197.988V124.635C197.988 124.875 198.104 124.995 198.336 124.995H199.644V125.811H198.084ZM201.379 125.811V117.411H202.327V120.879H202.495C202.575 120.703 202.695 120.539 202.855 120.387C203.023 120.227 203.235 120.095 203.491 119.991C203.755 119.887 204.087 119.835 204.487 119.835C204.927 119.835 205.319 119.931 205.663 120.123C206.015 120.307 206.295 120.579 206.503 120.939C206.711 121.291 206.815 121.731 206.815 122.259V125.811H205.867V122.331C205.867 121.747 205.719 121.323 205.423 121.059C205.135 120.795 204.743 120.663 204.247 120.663C203.679 120.663 203.215 120.847 202.855 121.215C202.503 121.583 202.327 122.131 202.327 122.859V125.811H201.379ZM211.362 125.979C210.77 125.979 210.25 125.855 209.802 125.607C209.354 125.351 209.006 124.995 208.758 124.539C208.51 124.083 208.386 123.555 208.386 122.955V122.811C208.386 122.203 208.51 121.671 208.758 121.215C209.006 120.759 209.35 120.407 209.79 120.159C210.23 119.903 210.734 119.775 211.302 119.775C211.854 119.775 212.342 119.895 212.766 120.135C213.19 120.367 213.522 120.703 213.762 121.143C214.002 121.583 214.122 122.099 214.122 122.691V123.123H209.334C209.358 123.755 209.562 124.251 209.946 124.611C210.33 124.963 210.81 125.139 211.386 125.139C211.89 125.139 212.278 125.023 212.55 124.791C212.822 124.559 213.03 124.283 213.174 123.963L213.99 124.359C213.87 124.607 213.702 124.855 213.486 125.103C213.278 125.351 213.002 125.559 212.658 125.727C212.322 125.895 211.89 125.979 211.362 125.979ZM209.346 122.343H213.162C213.13 121.799 212.942 121.375 212.598 121.071C212.262 120.767 211.83 120.615 211.302 120.615C210.766 120.615 210.326 120.767 209.982 121.071C209.638 121.375 209.426 121.799 209.346 122.343ZM215.711 125.811V119.943H216.635V120.663H216.803C216.907 120.407 217.067 120.219 217.283 120.099C217.499 119.979 217.783 119.919 218.135 119.919H218.831V120.783H218.075C217.651 120.783 217.307 120.903 217.043 121.143C216.787 121.375 216.659 121.739 216.659 122.235V125.811H215.711ZM222.647 125.979C222.055 125.979 221.535 125.855 221.087 125.607C220.639 125.351 220.291 124.995 220.043 124.539C219.795 124.083 219.671 123.555 219.671 122.955V122.811C219.671 122.203 219.795 121.671 220.043 121.215C220.291 120.759 220.635 120.407 221.075 120.159C221.515 119.903 222.019 119.775 222.587 119.775C223.139 119.775 223.627 119.895 224.051 120.135C224.475 120.367 224.807 120.703 225.047 121.143C225.287 121.583 225.407 122.099 225.407 122.691V123.123H220.619C220.643 123.755 220.847 124.251 221.231 124.611C221.615 124.963 222.095 125.139 222.671 125.139C223.175 125.139 223.563 125.023 223.835 124.791C224.107 124.559 224.315 124.283 224.459 123.963L225.275 124.359C225.155 124.607 224.987 124.855 224.771 125.103C224.563 125.351 224.287 125.559 223.943 125.727C223.607 125.895 223.175 125.979 222.647 125.979ZM220.631 122.343H224.447C224.415 121.799 224.227 121.375 223.883 121.071C223.547 120.767 223.115 120.615 222.587 120.615C222.051 120.615 221.611 120.767 221.267 121.071C220.923 121.375 220.711 121.799 220.631 122.343ZM229.24 125.919C228.816 125.919 228.424 125.827 228.064 125.643C227.712 125.459 227.432 125.187 227.224 124.827C227.024 124.459 226.924 124.015 226.924 123.495V119.943H227.872V123.423C227.872 124.007 228.016 124.431 228.304 124.695C228.6 124.959 228.996 125.091 229.492 125.091C230.052 125.091 230.512 124.907 230.872 124.539C231.232 124.171 231.412 123.623 231.412 122.895V119.943H232.36V125.811H231.436V124.815H231.268C231.14 125.095 230.92 125.351 230.608 125.583C230.296 125.807 229.84 125.919 229.24 125.919ZM234.28 125.811V119.943H235.204V120.675H235.372C235.484 120.467 235.668 120.275 235.924 120.099C236.18 119.923 236.54 119.835 237.004 119.835C237.46 119.835 237.828 119.935 238.108 120.135C238.396 120.335 238.604 120.579 238.732 120.867H238.9C239.036 120.579 239.24 120.335 239.512 120.135C239.792 119.935 240.18 119.835 240.676 119.835C241.068 119.835 241.412 119.915 241.708 120.075C242.004 120.235 242.236 120.467 242.404 120.771C242.58 121.067 242.668 121.423 242.668 121.839V125.811H241.72V121.923C241.72 121.531 241.604 121.223 241.372 120.999C241.148 120.767 240.832 120.651 240.424 120.651C239.992 120.651 239.636 120.791 239.356 121.071C239.084 121.351 238.948 121.755 238.948 122.283V125.811H238V121.923C238 121.531 237.884 121.223 237.652 120.999C237.428 120.767 237.112 120.651 236.704 120.651C236.272 120.651 235.916 120.791 235.636 121.071C235.364 121.351 235.228 121.755 235.228 122.283V125.811H234.28Z" fill="white"></path>
<path d="M39.4064 158.264V150.776H36.7064V149.864H43.1144V150.776H40.4144V158.264H39.4064ZM45.8854 158.432C45.2934 158.432 44.7694 158.308 44.3134 158.06C43.8654 157.812 43.5134 157.464 43.2574 157.016C43.0094 156.56 42.8854 156.024 42.8854 155.408V155.252C42.8854 154.644 43.0094 154.112 43.2574 153.656C43.5134 153.2 43.8654 152.848 44.3134 152.6C44.7694 152.352 45.2934 152.228 45.8854 152.228C46.4774 152.228 46.9974 152.352 47.4454 152.6C47.9014 152.848 48.2534 153.2 48.5014 153.656C48.7574 154.112 48.8854 154.644 48.8854 155.252V155.408C48.8854 156.024 48.7574 156.56 48.5014 157.016C48.2534 157.464 47.9014 157.812 47.4454 158.06C46.9974 158.308 46.4774 158.432 45.8854 158.432ZM45.8854 157.58C46.5094 157.58 47.0054 157.384 47.3734 156.992C47.7494 156.592 47.9374 156.056 47.9374 155.384V155.276C47.9374 154.604 47.7494 154.072 47.3734 153.68C47.0054 153.28 46.5094 153.08 45.8854 153.08C45.2694 153.08 44.7734 153.28 44.3974 153.68C44.0214 154.072 43.8334 154.604 43.8334 155.276V155.384C43.8334 156.056 44.0214 156.592 44.3974 156.992C44.7734 157.384 45.2694 157.58 45.8854 157.58ZM52.4409 158.264C52.1049 158.264 51.8449 158.172 51.6609 157.988C51.4849 157.804 51.3969 157.552 51.3969 157.232V153.224H49.6329V152.396H51.3969V150.308H52.3449V152.396H54.2649V153.224H52.3449V157.088C52.3449 157.328 52.4609 157.448 52.6929 157.448H54.0009V158.264H52.4409ZM57.5009 158.432C57.0929 158.432 56.7209 158.36 56.3849 158.216C56.0489 158.072 55.7849 157.864 55.5929 157.592C55.4009 157.32 55.3049 156.988 55.3049 156.596C55.3049 156.196 55.4009 155.868 55.5929 155.612C55.7849 155.348 56.0489 155.152 56.3849 155.024C56.7209 154.888 57.0969 154.82 57.5129 154.82H59.4929V154.388C59.4929 153.972 59.3689 153.644 59.1209 153.404C58.8809 153.164 58.5209 153.044 58.0409 153.044C57.5689 153.044 57.2009 153.16 56.9369 153.392C56.6729 153.616 56.4929 153.92 56.3969 154.304L55.5089 154.016C55.6049 153.688 55.7569 153.392 55.9649 153.128C56.1729 152.856 56.4489 152.64 56.7929 152.48C57.1449 152.312 57.5649 152.228 58.0529 152.228C58.8049 152.228 59.3889 152.424 59.8049 152.816C60.2209 153.2 60.4289 153.744 60.4289 154.448V157.1C60.4289 157.34 60.5409 157.46 60.7649 157.46H61.3049V158.264H60.4769C60.2129 158.264 60.0009 158.192 59.8409 158.048C59.6809 157.896 59.6009 157.696 59.6009 157.448V157.388H59.4569C59.3689 157.54 59.2489 157.7 59.0969 157.868C58.9529 158.028 58.7529 158.16 58.4969 158.264C58.2409 158.376 57.9089 158.432 57.5009 158.432ZM57.6089 157.616C58.1689 157.616 58.6209 157.452 58.9649 157.124C59.3169 156.788 59.4929 156.32 59.4929 155.72V155.588H57.5489C57.1729 155.588 56.8609 155.672 56.6129 155.84C56.3729 156 56.2529 156.244 56.2529 156.572C56.2529 156.9 56.3769 157.156 56.6249 157.34C56.8809 157.524 57.2089 157.616 57.6089 157.616ZM62.5388 158.264V149.864H63.4868V158.264H62.5388ZM71.1818 158.432C70.5738 158.432 70.0298 158.324 69.5498 158.108C69.0698 157.892 68.6898 157.568 68.4098 157.136C68.1378 156.696 68.0018 156.148 68.0018 155.492V155.24H68.9978V155.492C68.9978 156.188 69.2018 156.708 69.6098 157.052C70.0178 157.388 70.5418 157.556 71.1818 157.556C71.8378 157.556 72.3378 157.408 72.6818 157.112C73.0258 156.816 73.1978 156.444 73.1978 155.996C73.1978 155.684 73.1178 155.436 72.9578 155.252C72.8058 155.068 72.5898 154.92 72.3098 154.808C72.0298 154.688 71.7018 154.584 71.3258 154.496L70.7018 154.34C70.2138 154.212 69.7818 154.056 69.4058 153.872C69.0298 153.688 68.7338 153.448 68.5178 153.152C68.3098 152.848 68.2058 152.46 68.2058 151.988C68.2058 151.516 68.3218 151.108 68.5538 150.764C68.7938 150.42 69.1258 150.156 69.5498 149.972C69.9818 149.788 70.4778 149.696 71.0378 149.696C71.6058 149.696 72.1138 149.796 72.5618 149.996C73.0178 150.188 73.3738 150.476 73.6298 150.86C73.8938 151.236 74.0258 151.712 74.0258 152.288V152.792H73.0298V152.288C73.0298 151.88 72.9418 151.552 72.7658 151.304C72.5978 151.056 72.3618 150.872 72.0578 150.752C71.7618 150.632 71.4218 150.572 71.0378 150.572C70.4858 150.572 70.0418 150.696 69.7058 150.944C69.3698 151.184 69.2018 151.528 69.2018 151.976C69.2018 152.272 69.2738 152.512 69.4178 152.696C69.5618 152.88 69.7658 153.032 70.0298 153.152C70.2938 153.264 70.6098 153.364 70.9778 153.452L71.6018 153.608C72.0898 153.712 72.5258 153.856 72.9098 154.04C73.3018 154.216 73.6138 154.46 73.8458 154.772C74.0778 155.076 74.1938 155.476 74.1938 155.972C74.1938 156.468 74.0698 156.9 73.8218 157.268C73.5738 157.636 73.2218 157.924 72.7658 158.132C72.3178 158.332 71.7898 158.432 71.1818 158.432ZM77.9607 158.372C77.5367 158.372 77.1447 158.28 76.7847 158.096C76.4327 157.912 76.1527 157.64 75.9447 157.28C75.7447 156.912 75.6447 156.468 75.6447 155.948V152.396H76.5927V155.876C76.5927 156.46 76.7367 156.884 77.0247 157.148C77.3207 157.412 77.7167 157.544 78.2127 157.544C78.7727 157.544 79.2327 157.36 79.5927 156.992C79.9527 156.624 80.1327 156.076 80.1327 155.348V152.396H81.0807V158.264H80.1567V157.268H79.9887C79.8607 157.548 79.6407 157.804 79.3287 158.036C79.0167 158.26 78.5607 158.372 77.9607 158.372ZM83 160.664V152.396H83.924V153.368H84.092C84.244 153.072 84.488 152.808 84.824 152.576C85.168 152.344 85.644 152.228 86.252 152.228C86.756 152.228 87.216 152.352 87.632 152.6C88.056 152.84 88.392 153.184 88.64 153.632C88.896 154.08 89.024 154.62 89.024 155.252V155.408C89.024 156.032 88.9 156.572 88.652 157.028C88.404 157.484 88.068 157.832 87.644 158.072C87.228 158.312 86.764 158.432 86.252 158.432C85.844 158.432 85.496 158.376 85.208 158.264C84.928 158.16 84.7 158.024 84.524 157.856C84.348 157.688 84.212 157.516 84.116 157.34H83.948V160.664H83ZM86 157.592C86.608 157.592 87.1 157.4 87.476 157.016C87.86 156.624 88.052 156.08 88.052 155.384V155.276C88.052 154.58 87.86 154.04 87.476 153.656C87.1 153.264 86.608 153.068 86 153.068C85.4 153.068 84.904 153.264 84.512 153.656C84.128 154.04 83.936 154.58 83.936 155.276V155.384C83.936 156.08 84.128 156.624 84.512 157.016C84.904 157.4 85.4 157.592 86 157.592ZM90.6583 160.664V152.396H91.5823V153.368H91.7503C91.9023 153.072 92.1463 152.808 92.4823 152.576C92.8263 152.344 93.3023 152.228 93.9103 152.228C94.4143 152.228 94.8743 152.352 95.2903 152.6C95.7143 152.84 96.0503 153.184 96.2983 153.632C96.5543 154.08 96.6823 154.62 96.6823 155.252V155.408C96.6823 156.032 96.5583 156.572 96.3103 157.028C96.0623 157.484 95.7263 157.832 95.3023 158.072C94.8863 158.312 94.4223 158.432 93.9103 158.432C93.5023 158.432 93.1543 158.376 92.8663 158.264C92.5863 158.16 92.3583 158.024 92.1823 157.856C92.0063 157.688 91.8703 157.516 91.7743 157.34H91.6063V160.664H90.6583ZM93.6583 157.592C94.2663 157.592 94.7583 157.4 95.1343 157.016C95.5183 156.624 95.7103 156.08 95.7103 155.384V155.276C95.7103 154.58 95.5183 154.04 95.1343 153.656C94.7583 153.264 94.2663 153.068 93.6583 153.068C93.0583 153.068 92.5623 153.264 92.1703 153.656C91.7863 154.04 91.5943 154.58 91.5943 155.276V155.384C91.5943 156.08 91.7863 156.624 92.1703 157.016C92.5623 157.4 93.0583 157.592 93.6583 157.592ZM98.3166 158.264V149.864H99.2646V158.264H98.3166ZM101.902 160.664V159.824H105.262C105.494 159.824 105.61 159.704 105.61 159.464V157.328H105.442C105.362 157.496 105.238 157.664 105.07 157.832C104.91 157.992 104.698 158.124 104.434 158.228C104.17 158.324 103.838 158.372 103.438 158.372C103.014 158.372 102.622 158.28 102.262 158.096C101.91 157.912 101.63 157.64 101.422 157.28C101.222 156.92 101.122 156.48 101.122 155.96V152.396H102.07V155.888C102.07 156.464 102.214 156.884 102.502 157.148C102.798 157.412 103.194 157.544 103.69 157.544C104.25 157.544 104.71 157.36 105.07 156.992C105.43 156.624 105.61 156.076 105.61 155.348V152.396H106.558V159.632C106.558 159.952 106.466 160.204 106.282 160.388C106.106 160.572 105.846 160.664 105.502 160.664H101.902Z" fill="white"></path>
<path d="M173.694 158.444C173.445 158.444 173.235 158.362 173.063 158.199C172.9 158.036 172.818 157.826 172.818 157.568C172.818 157.311 172.9 157.1 173.063 156.937C173.235 156.774 173.445 156.693 173.694 156.693C173.952 156.693 174.162 156.774 174.325 156.937C174.488 157.1 174.57 157.311 174.57 157.568C174.57 157.826 174.488 158.036 174.325 158.199C174.162 158.362 173.952 158.444 173.694 158.444ZM173.694 153.538C173.445 153.538 173.235 153.456 173.063 153.293C172.9 153.13 172.818 152.92 172.818 152.662C172.818 152.405 172.9 152.194 173.063 152.031C173.235 151.868 173.445 151.786 173.694 151.786C173.952 151.786 174.162 151.868 174.325 152.031C174.488 152.194 174.57 152.405 174.57 152.662C174.57 152.92 174.488 153.13 174.325 153.293C174.162 153.456 173.952 153.538 173.694 153.538Z" fill="white"></path>
<path d="M191.314 158.264V150.512H191.134L189.502 153.5H188.446L190.45 149.864H192.286V158.264H191.314ZM197.022 158.432C196.07 158.432 195.31 158.152 194.742 157.592C194.182 157.024 193.902 156.176 193.902 155.048V153.08C193.902 151.96 194.182 151.116 194.742 150.548C195.31 149.98 196.07 149.696 197.022 149.696C197.982 149.696 198.742 149.98 199.302 150.548C199.87 151.116 200.154 151.96 200.154 153.08V155.048C200.154 156.176 199.87 157.024 199.302 157.592C198.742 158.152 197.982 158.432 197.022 158.432ZM197.022 157.556C197.742 157.556 198.282 157.34 198.642 156.908C199.002 156.476 199.182 155.872 199.182 155.096V153.02C199.182 152.244 198.998 151.644 198.63 151.22C198.262 150.788 197.726 150.572 197.022 150.572C196.318 150.572 195.782 150.788 195.414 151.22C195.054 151.652 194.874 152.252 194.874 153.02V155.096C194.874 155.88 195.054 156.488 195.414 156.92C195.774 157.344 196.31 157.556 197.022 157.556ZM204.645 158.432C203.693 158.432 202.933 158.152 202.365 157.592C201.805 157.024 201.525 156.176 201.525 155.048V153.08C201.525 151.96 201.805 151.116 202.365 150.548C202.933 149.98 203.693 149.696 204.645 149.696C205.605 149.696 206.365 149.98 206.925 150.548C207.493 151.116 207.777 151.96 207.777 153.08V155.048C207.777 156.176 207.493 157.024 206.925 157.592C206.365 158.152 205.605 158.432 204.645 158.432ZM204.645 157.556C205.365 157.556 205.905 157.34 206.265 156.908C206.625 156.476 206.805 155.872 206.805 155.096V153.02C206.805 152.244 206.621 151.644 206.253 151.22C205.885 150.788 205.349 150.572 204.645 150.572C203.941 150.572 203.405 150.788 203.037 151.22C202.677 151.652 202.497 152.252 202.497 153.02V155.096C202.497 155.88 202.677 156.488 203.037 156.92C203.397 157.344 203.933 157.556 204.645 157.556ZM212.405 158.264V149.864H214.325L216.557 157.628H216.713L218.945 149.864H220.865V158.264H219.893V150.524H219.725L217.505 158.264H215.765L213.545 150.524H213.377V158.264H212.405ZM222.76 158.264V152.396H223.708V158.264H222.76ZM223.24 151.484C223.032 151.484 222.856 151.416 222.712 151.28C222.576 151.144 222.508 150.972 222.508 150.764C222.508 150.548 222.576 150.372 222.712 150.236C222.856 150.1 223.032 150.032 223.24 150.032C223.448 150.032 223.62 150.1 223.756 150.236C223.892 150.372 223.96 150.548 223.96 150.764C223.96 150.972 223.892 151.144 223.756 151.28C223.62 151.416 223.448 151.484 223.24 151.484ZM225.637 158.264V149.864H226.585V158.264H225.637ZM228.514 158.264V149.864H229.462V158.264H228.514ZM231.391 158.264V152.396H232.339V158.264H231.391ZM231.871 151.484C231.663 151.484 231.487 151.416 231.343 151.28C231.207 151.144 231.139 150.972 231.139 150.764C231.139 150.548 231.207 150.372 231.343 150.236C231.487 150.1 231.663 150.032 231.871 150.032C232.079 150.032 232.251 150.1 232.387 150.236C232.523 150.372 232.591 150.548 232.591 150.764C232.591 150.972 232.523 151.144 232.387 151.28C232.251 151.416 232.079 151.484 231.871 151.484ZM236.98 158.432C236.388 158.432 235.864 158.308 235.408 158.06C234.96 157.812 234.608 157.464 234.352 157.016C234.104 156.56 233.98 156.024 233.98 155.408V155.252C233.98 154.644 234.104 154.112 234.352 153.656C234.608 153.2 234.96 152.848 235.408 152.6C235.864 152.352 236.388 152.228 236.98 152.228C237.572 152.228 238.092 152.352 238.54 152.6C238.996 152.848 239.348 153.2 239.596 153.656C239.852 154.112 239.98 154.644 239.98 155.252V155.408C239.98 156.024 239.852 156.56 239.596 157.016C239.348 157.464 238.996 157.812 238.54 158.06C238.092 158.308 237.572 158.432 236.98 158.432ZM236.98 157.58C237.604 157.58 238.1 157.384 238.468 156.992C238.844 156.592 239.032 156.056 239.032 155.384V155.276C239.032 154.604 238.844 154.072 238.468 153.68C238.1 153.28 237.604 153.08 236.98 153.08C236.364 153.08 235.868 153.28 235.492 153.68C235.116 154.072 234.928 154.604 234.928 155.276V155.384C234.928 156.056 235.116 156.592 235.492 156.992C235.868 157.384 236.364 157.58 236.98 157.58ZM241.622 158.264V152.396H242.546V153.392H242.714C242.842 153.112 243.058 152.86 243.362 152.636C243.674 152.404 244.13 152.288 244.73 152.288C245.17 152.288 245.562 152.38 245.906 152.564C246.258 152.748 246.538 153.02 246.746 153.38C246.954 153.74 247.058 154.184 247.058 154.712V158.264H246.11V154.784C246.11 154.2 245.962 153.776 245.666 153.512C245.378 153.248 244.986 153.116 244.49 153.116C243.922 153.116 243.458 153.3 243.098 153.668C242.746 154.036 242.57 154.584 242.57 155.312V158.264H241.622Z" fill="white"></path>
<path d="M39.4064 190.716V183.228H36.7064V182.316H43.1144V183.228H40.4144V190.716H39.4064ZM45.1257 190.884C44.7177 190.884 44.3457 190.812 44.0097 190.668C43.6737 190.524 43.4097 190.316 43.2177 190.044C43.0257 189.772 42.9297 189.44 42.9297 189.048C42.9297 188.648 43.0257 188.32 43.2177 188.064C43.4097 187.8 43.6737 187.604 44.0097 187.476C44.3457 187.34 44.7217 187.272 45.1377 187.272H47.1177V186.84C47.1177 186.424 46.9937 186.096 46.7457 185.856C46.5057 185.616 46.1457 185.496 45.6657 185.496C45.1937 185.496 44.8257 185.612 44.5617 185.844C44.2977 186.068 44.1177 186.372 44.0217 186.756L43.1337 186.468C43.2297 186.14 43.3817 185.844 43.5897 185.58C43.7977 185.308 44.0737 185.092 44.4177 184.932C44.7697 184.764 45.1897 184.68 45.6777 184.68C46.4297 184.68 47.0137 184.876 47.4297 185.268C47.8457 185.652 48.0537 186.196 48.0537 186.9V189.552C48.0537 189.792 48.1657 189.912 48.3897 189.912H48.9297V190.716H48.1017C47.8377 190.716 47.6257 190.644 47.4657 190.5C47.3057 190.348 47.2257 190.148 47.2257 189.9V189.84H47.0817C46.9937 189.992 46.8737 190.152 46.7217 190.32C46.5777 190.48 46.3777 190.612 46.1217 190.716C45.8657 190.828 45.5337 190.884 45.1257 190.884ZM45.2337 190.068C45.7937 190.068 46.2457 189.904 46.5897 189.576C46.9417 189.24 47.1177 188.772 47.1177 188.172V188.04H45.1737C44.7977 188.04 44.4857 188.124 44.2377 188.292C43.9977 188.452 43.8777 188.696 43.8777 189.024C43.8777 189.352 44.0017 189.608 44.2497 189.792C44.5057 189.976 44.8337 190.068 45.2337 190.068ZM49.6837 190.716L52.0357 187.74L49.7557 184.848H50.8957L52.6477 187.116H52.8157L54.5557 184.848H55.7077L53.4157 187.74L55.7677 190.716H54.6157L52.8157 188.376H52.6477L50.8477 190.716H49.6837Z" fill="white"></path>
<path d="M173.694 190.897C173.445 190.897 173.235 190.815 173.063 190.652C172.9 190.489 172.818 190.279 172.818 190.021C172.818 189.764 172.9 189.553 173.063 189.39C173.235 189.227 173.445 189.145 173.694 189.145C173.952 189.145 174.162 189.227 174.325 189.39C174.488 189.553 174.57 189.764 174.57 190.021C174.57 190.279 174.488 190.489 174.325 190.652C174.162 190.815 173.952 190.897 173.694 190.897ZM173.694 185.99C173.445 185.99 173.235 185.909 173.063 185.746C172.9 185.583 172.818 185.372 172.818 185.115C172.818 184.857 172.9 184.647 173.063 184.484C173.235 184.321 173.445 184.239 173.694 184.239C173.952 184.239 174.162 184.321 174.325 184.484C174.488 184.647 174.57 184.857 174.57 185.115C174.57 185.372 174.488 185.583 174.325 185.746C174.162 185.909 173.952 185.99 173.694 185.99Z" fill="white"></path>
<path d="M191.854 190.884C191.238 190.884 190.706 190.768 190.258 190.536C189.81 190.296 189.462 189.968 189.214 189.552C188.966 189.128 188.842 188.64 188.842 188.088V187.944H189.814V188.052C189.814 188.684 189.998 189.168 190.366 189.504C190.734 189.84 191.222 190.008 191.83 190.008C192.47 190.008 192.97 189.828 193.33 189.468C193.69 189.108 193.87 188.616 193.87 187.992V187.884C193.87 187.284 193.694 186.808 193.342 186.456C192.998 186.096 192.55 185.916 191.998 185.916C191.678 185.916 191.414 185.968 191.206 186.072C190.998 186.168 190.834 186.292 190.714 186.444C190.594 186.588 190.494 186.728 190.414 186.864H189.094V182.316H194.614V183.192H190.066V186.096H190.234C190.322 185.936 190.442 185.78 190.594 185.628C190.754 185.476 190.966 185.348 191.23 185.244C191.494 185.14 191.822 185.088 192.214 185.088C192.702 185.088 193.142 185.2 193.534 185.424C193.934 185.648 194.25 185.968 194.482 186.384C194.722 186.8 194.842 187.296 194.842 187.872V188.004C194.842 188.572 194.722 189.072 194.482 189.504C194.242 189.936 193.898 190.276 193.45 190.524C193.002 190.764 192.47 190.884 191.854 190.884ZM196.97 190.884L196.322 190.368L203.006 182.148L203.642 182.664L196.97 190.884ZM202.298 190.872C201.714 190.872 201.246 190.704 200.894 190.368C200.55 190.024 200.378 189.56 200.378 188.976V188.904C200.378 188.32 200.55 187.86 200.894 187.524C201.246 187.18 201.714 187.008 202.298 187.008C202.866 187.008 203.326 187.18 203.678 187.524C204.03 187.86 204.206 188.32 204.206 188.904V188.976C204.206 189.56 204.03 190.024 203.678 190.368C203.334 190.704 202.874 190.872 202.298 190.872ZM202.298 190.176C202.634 190.176 202.898 190.068 203.09 189.852C203.29 189.636 203.39 189.356 203.39 189.012V188.868C203.39 188.516 203.29 188.236 203.09 188.028C202.898 187.812 202.634 187.704 202.298 187.704C201.954 187.704 201.682 187.812 201.482 188.028C201.29 188.236 201.194 188.516 201.194 188.868V189.012C201.194 189.356 201.29 189.636 201.482 189.852C201.682 190.068 201.954 190.176 202.298 190.176ZM197.678 186.024C197.094 186.024 196.63 185.852 196.286 185.508C195.942 185.164 195.77 184.704 195.77 184.128V184.056C195.77 183.472 195.942 183.012 196.286 182.676C196.63 182.332 197.094 182.16 197.678 182.16C198.254 182.16 198.714 182.332 199.058 182.676C199.41 183.012 199.586 183.472 199.586 184.056V184.128C199.586 184.704 199.41 185.164 199.058 185.508C198.714 185.852 198.254 186.024 197.678 186.024ZM197.678 185.328C198.014 185.328 198.282 185.22 198.482 185.004C198.682 184.788 198.782 184.508 198.782 184.164V184.02C198.782 183.668 198.682 183.388 198.482 183.18C198.282 182.964 198.014 182.856 197.678 182.856C197.334 182.856 197.062 182.964 196.862 183.18C196.67 183.388 196.574 183.668 196.574 184.02V184.164C196.574 184.508 196.67 184.788 196.862 185.004C197.062 185.22 197.334 185.328 197.678 185.328ZM204.555 193.116L208.083 182.316H209.031L205.503 193.116H204.555ZM212.556 190.884C211.94 190.884 211.408 190.768 210.96 190.536C210.512 190.296 210.164 189.968 209.916 189.552C209.668 189.128 209.544 188.64 209.544 188.088V187.944H210.516V188.052C210.516 188.684 210.7 189.168 211.068 189.504C211.436 189.84 211.924 190.008 212.532 190.008C213.172 190.008 213.672 189.828 214.032 189.468C214.392 189.108 214.572 188.616 214.572 187.992V187.884C214.572 187.284 214.396 186.808 214.044 186.456C213.7 186.096 213.252 185.916 212.7 185.916C212.38 185.916 212.116 185.968 211.908 186.072C211.7 186.168 211.536 186.292 211.416 186.444C211.296 186.588 211.196 186.728 211.116 186.864H209.796V182.316H215.316V183.192H210.768V186.096H210.936C211.024 185.936 211.144 185.78 211.296 185.628C211.456 185.476 211.668 185.348 211.932 185.244C212.196 185.14 212.524 185.088 212.916 185.088C213.404 185.088 213.844 185.2 214.236 185.424C214.636 185.648 214.952 185.968 215.184 186.384C215.424 186.8 215.544 187.296 215.544 187.872V188.004C215.544 188.572 215.424 189.072 215.184 189.504C214.944 189.936 214.6 190.276 214.152 190.524C213.704 190.764 213.172 190.884 212.556 190.884ZM217.671 190.884L217.023 190.368L223.707 182.148L224.343 182.664L217.671 190.884ZM222.999 190.872C222.415 190.872 221.947 190.704 221.595 190.368C221.251 190.024 221.079 189.56 221.079 188.976V188.904C221.079 188.32 221.251 187.86 221.595 187.524C221.947 187.18 222.415 187.008 222.999 187.008C223.567 187.008 224.027 187.18 224.379 187.524C224.731 187.86 224.907 188.32 224.907 188.904V188.976C224.907 189.56 224.731 190.024 224.379 190.368C224.035 190.704 223.575 190.872 222.999 190.872ZM222.999 190.176C223.335 190.176 223.599 190.068 223.791 189.852C223.991 189.636 224.091 189.356 224.091 189.012V188.868C224.091 188.516 223.991 188.236 223.791 188.028C223.599 187.812 223.335 187.704 222.999 187.704C222.655 187.704 222.383 187.812 222.183 188.028C221.991 188.236 221.895 188.516 221.895 188.868V189.012C221.895 189.356 221.991 189.636 222.183 189.852C222.383 190.068 222.655 190.176 222.999 190.176ZM218.379 186.024C217.795 186.024 217.331 185.852 216.987 185.508C216.643 185.164 216.471 184.704 216.471 184.128V184.056C216.471 183.472 216.643 183.012 216.987 182.676C217.331 182.332 217.795 182.16 218.379 182.16C218.955 182.16 219.415 182.332 219.759 182.676C220.111 183.012 220.287 183.472 220.287 184.056V184.128C220.287 184.704 220.111 185.164 219.759 185.508C219.415 185.852 218.955 186.024 218.379 186.024ZM218.379 185.328C218.715 185.328 218.983 185.22 219.183 185.004C219.383 184.788 219.483 184.508 219.483 184.164V184.02C219.483 183.668 219.383 183.388 219.183 183.18C218.983 182.964 218.715 182.856 218.379 182.856C218.035 182.856 217.763 182.964 217.563 183.18C217.371 183.388 217.275 183.668 217.275 184.02V184.164C217.275 184.508 217.371 184.788 217.563 185.004C217.763 185.22 218.035 185.328 218.379 185.328Z" fill="white"></path>
</g>
<defs>
<filter id="filter0_b_1_1595" x="-9.78268" y="-10.1087" width="369.565" height="230.387" filterUnits="userSpaceOnUse" color-interpolation-filters="sRGB">
<feFlood flood-opacity="0" result="BackgroundImageFix"></feFlood>
<feGaussianBlur in="BackgroundImageFix" stdDeviation="5.05433"></feGaussianBlur>
<feComposite in2="SourceAlpha" operator="in" result="effect1_backgroundBlur_1_1595"></feComposite>
<feBlend mode="normal" in="SourceGraphic" in2="effect1_backgroundBlur_1_1595" result="shape"></feBlend>
</filter>
</defs>
</svg>