<svg width="24" height="24" viewBox="0 0 24 24" fill="none" xmlns="http://www.w3.org/2000/svg">
<path d="M0.629603 20.1636C0.317668 20.4778 0.105164 20.8783 0.0190171 21.3145C-0.0671301 21.7507 -0.0230436 22.2028 0.145691 22.6137C0.314425 23.0246 0.600213 23.3756 0.966843 23.6224C1.33347 23.8692 1.76444 24.0006 2.20515 24C2.49777 24.0005 2.78761 23.9427 3.05801 23.8298C3.3284 23.7169 3.574 23.5512 3.7807 23.3421L11.0941 15.9615L7.94305 12.783L0.629603 20.1636ZM18.908 6.48442L22.0903 4.82248L23.7594 1.56903L22.2047 0L18.9808 1.68442L17.334 4.89591L13.4552 8.81024L15.0293 10.3988L18.908 6.48442ZM19.6045 15.0159C19.5035 15.0099 19.407 14.986 19.3045 14.986C18.761 14.986 18.2457 15.0983 17.7646 15.2782L8.6202 6.04983C8.79839 5.56428 8.90977 5.04427 8.90977 4.49579C8.90977 4.39238 8.88601 4.29497 8.88007 4.19307C8.72266 1.85376 6.813 0 4.45487 0C3.76882 0 3.12583 0.169341 2.54521 0.449579L5.50474 3.43628C5.66066 3.59363 5.76758 3.77946 5.83886 3.97577C6.03339 4.50777 5.92796 5.12669 5.50474 5.55529C5.21517 5.84752 4.83502 5.99438 4.45487 5.99438C4.27965 5.99438 4.10591 5.95542 3.93959 5.89248C3.73937 5.82033 3.557 5.7053 3.405 5.55529L0.445467 2.56859C0.155474 3.16909 0.00321011 3.82778 -2.22307e-05 4.49579C-2.22307e-05 6.87556 1.83688 8.80275 4.15491 8.9616C4.25589 8.96759 4.35241 8.99157 4.45487 8.99157C4.99837 8.99157 5.51365 8.87918 5.99478 8.69934L15.1392 17.9277C14.9517 18.4242 14.8536 18.9505 14.8496 19.4817C14.8496 19.5851 14.8734 19.6825 14.8793 19.7845C15.0367 22.1238 16.9464 23.9775 19.3045 23.9775C19.9906 23.9775 20.6336 23.8082 21.2142 23.5279L18.2546 20.5412C18.1055 20.3883 17.9914 20.2041 17.9205 20.0018C17.8206 19.7338 17.7989 19.4426 17.8582 19.1626C17.9174 18.8826 18.055 18.6256 18.2546 18.4222C18.5442 18.13 18.9244 17.9831 19.3045 17.9831C19.4797 17.9831 19.6535 18.0221 19.8198 18.085C20.0143 18.1585 20.1985 18.2649 20.3544 18.4222L23.3139 21.4089C23.5916 20.823 23.7594 20.1741 23.7594 19.4817C23.7594 17.102 21.9225 15.1748 19.6045 15.0159Z" fill="#61F0FE"></path>
</svg>